<svg width="273" height="247" viewBox="0 0 273 247" fill="none" xmlns="http://www.w3.org/2000/svg">
<path d="M241.77 66.0206C241.77 66.0206 249.247 26.896 218.601 15.7213C187.955 4.54664 167.5 11.7568 160.374 13.9311C153.247 16.1053 111.695 42.603 136.837 73.5636C136.837 73.5636 130.95 70.3849 128.271 72.7933C125.592 75.2017 125.595 75.2018 125.595 75.2018C125.595 75.2018 113 72.3089 102.712 80.0514C92.4232 87.7967 98.0111 90.6402 100.151 92.3469C102.291 94.0537 100.705 93.9702 100.705 93.9702C100.705 93.9702 81.7185 97.4336 74.7765 102.167C67.8345 106.9 61.7949 112.639 86.4358 110.748C111.077 108.857 123.62 106.651 123.62 106.651C123.62 106.651 101.407 110.9 101.173 115.351C100.939 119.801 153.598 112.373 163.884 110.684C174.171 108.996 221.711 95.8796 231.413 93.205C231.413 93.205 222.831 98.8073 229.506 99.1586C236.18 99.5099 264.65 85.3929 268.614 82.7327C272.578 80.0726 260.45 80.3896 260.45 80.3896C260.45 80.3896 263.092 72.5611 259.563 66.9572C256.034 61.3533 244.164 62.9585 241.77 66.0206Z" fill="#F3E7D9"/>
<path d="M87.2899 62.2516C87.2899 62.2516 90.2777 53.7598 83.0085 49.7556C78.2086 47.1132 68.1712 53.118 68.6552 59.0379C68.8656 61.5955 65.5763 56.9623 59.9389 61.1284C54.3015 65.2945 54.4029 72.4689 54.4029 72.4689C54.4029 72.4689 42.2755 75.8143 40.6357 76.6833C38.9959 77.5523 36.9734 79.6787 49.8859 76.5315C62.8009 73.3929 87.2899 62.2516 87.2899 62.2516Z" fill="#F3E7D9"/>
<path d="M51.0726 130.987C51.0726 130.987 49.4488 125.483 39.1958 126.537C28.9428 127.592 24.6943 135.655 26.231 136.691C27.7705 137.728 28.0387 138.7 28.0387 138.7C28.0387 138.7 13.0844 144.286 7.22886 146.527C1.37337 148.768 6.91107 152.565 18.27 148.703C29.6291 144.838 58.7839 135.855 69.3554 134.818C79.9269 133.78 51.0726 130.987 51.0726 130.987Z" fill="#F3E7D9"/>
<path d="M110.633 179.815C90.4261 185.715 88.0083 195.243 88.0083 195.243C88.0083 195.243 46.9217 201.852 37.4712 205.972C28.0207 210.091 14.7438 217.559 32.795 224.652C45.0071 229.45 75.075 237.032 102.454 234.318C129.833 231.605 147.634 229.907 155.16 225.618C162.686 221.331 156.136 215.092 156.136 215.092C156.136 215.092 172.648 217.621 196.227 218.574C219.805 219.527 233.322 214.167 222.411 209.242C222.411 209.242 281.118 194.56 251.388 182.724C246.627 181.087 235.415 170.456 196.763 168.077C158.112 165.697 138.763 171.6 110.633 179.815Z" fill="#856792"/>
<path d="M155.978 186.117C155.978 186.117 128.02 191.654 132.58 195.824C137.14 199.994 154.464 200.421 154.464 200.421C154.464 200.421 161.663 209.221 175.674 208.98C189.686 208.739 199.392 208.318 207.983 205.471C216.574 202.623 251.824 195.784 221.003 189.502C190.182 183.22 155.978 186.117 155.978 186.117Z" fill="#4B3355"/>
<path d="M146.339 176.972C130.04 179.45 127.089 182.258 138.706 185.792C150.323 189.327 155.003 186.61 162.955 182.894C170.91 179.177 162.642 174.49 146.339 176.972Z" fill="#4B3355"/>
<path d="M138.079 202.147C132.626 200.475 127.322 204.812 138.346 205.854C149.37 206.897 143.529 203.817 138.079 202.147Z" fill="#4B3355"/>
<path d="M112.583 208.536C112.583 208.536 111.875 208.602 110.771 208.72C106.142 209.215 94.5246 210.623 98.5524 211.953C103.544 213.601 122.976 212.776 116.675 209.676" fill="#4B3355"/>
<path d="M87.8382 200.906C87.8382 200.906 52.1687 204.176 46.5856 207.797C41.0025 211.419 61.9151 215.345 61.9151 215.345C61.9151 215.345 69.0029 217.27 78.9077 216.924C88.8126 216.579 120.279 210.975 111.797 206.713C105.233 203.41 87.8382 200.906 87.8382 200.906Z" fill="#4B3355"/>
<path d="M130.027 217.901C130.027 217.901 109.913 215.642 113.404 220.559C116.895 225.477 146.331 221.622 130.027 217.901Z" fill="#4B3355"/>
<path d="M137.613 232.935C134.031 234.457 125.722 239.695 144.13 240.664C162.538 241.633 167.158 229.873 162.713 229.639C158.271 229.406 141.192 231.415 137.613 232.935Z" fill="#856792"/>
<path d="M163.181 155.313C163.181 155.313 114.985 158.505 105.92 161.433C96.8541 164.36 84.0026 173.337 106.086 177.066C128.17 180.797 140.294 185.63 150.399 181.765C160.503 177.9 153.555 168.831 153.555 168.831C153.555 168.831 171.253 171.262 183.244 169.201C195.238 167.135 198.564 150.979 163.181 155.313Z" fill="#856792"/>
<path d="M190.204 207.238C188.178 207.748 186.279 211.648 191.344 211.915C196.409 212.182 201.766 210.69 199.825 208.669C197.489 206.236 192.233 206.729 190.204 207.238Z" fill="#4B3355"/>
<path d="M167.413 219.27C167.413 219.27 163.125 221.814 168.165 222.541C173.206 223.268 173.4 219.585 167.413 219.27Z" fill="#856792"/>
<path d="M169.575 225.983C167.597 227.763 166.149 230.445 173.079 231.1C180.008 231.756 180.607 225.839 178.311 225.427C176.008 225.015 171.554 224.202 169.575 225.983Z" fill="#856792"/>
<path d="M212.085 203.773C212.085 203.773 212.133 205.775 215.986 205.672C219.838 205.567 224.224 204.107 224.224 204.107C224.224 204.107 227.89 204.608 230.749 202.91C233.607 201.213 230.862 197.838 222.793 199.107C214.725 200.373 211.05 202.949 212.085 203.773Z" fill="#4B3355"/>
<path d="M167.292 162.368C167.292 162.368 155.934 161.077 159.207 164.711C162.478 168.348 176.816 165.641 167.292 162.368Z" fill="#4B3355"/>
<path d="M168.179 145.476L167.016 162.042L164.931 163.398L162.375 167.051C162.375 167.051 162.512 169.975 161.977 174.615C161.442 179.255 160.537 185.333 160.537 185.333L196.104 202.376L210.036 203.694L222.29 202.773L243.128 192.791L238.394 174.848L238.011 171.035L233.478 168.464L236.509 166.291L235.332 144.351L185.631 140.859L168.179 145.476Z" fill="#7A462F"/>
<path d="M235.335 144.342L210.821 133.425L183.627 134.62L168.179 145.476C168.179 145.476 170.398 147.634 175.053 147.879C179.708 148.124 200.225 151.831 200.225 151.831L215.369 152.337C215.369 152.337 227.54 148.309 231.079 147.62C234.617 146.931 235.335 144.342 235.335 144.342Z" fill="#A96443"/>
<path d="M230.506 195.817L221.856 184.745L221.712 169.966L217.375 155.887L217.715 166.984L220.233 171.733L219.07 185.06L219.022 194.751L210.039 203.691L222.632 196.327L221.613 189.349L227.212 197.03L230.506 195.817Z" fill="#A96443"/>
<path d="M206.108 150.677L204.848 157.076L199.228 149.856L206.108 150.677Z" fill="#A96443"/>
<path d="M223.794 147.915L226.777 152.689L229.417 146.366L223.794 147.915Z" fill="#A96443"/>
<path d="M203.299 142.682L201.214 155.96L205.454 163.107L204.533 171.831L203.033 165.29L198.937 155.379L203.299 142.682Z" fill="#A96443"/>
<path d="M207.297 163.205L206.74 173.792L210.202 186.901L210.323 193.369L212.214 183.776L209.525 173.479L207.297 163.205Z" fill="#A96443"/>
<path d="M210.446 164.756L209.55 173.019L211.099 178.638L211.195 168.026L212.723 160.952L210.446 164.756Z" fill="#A96443"/>
<path d="M168.057 163.218L166.029 171.036L167.322 178.644L166.264 184.126L168.394 178.7L167.08 171.55L168.057 163.218Z" fill="#A96443"/>
<path d="M229.732 149.152C229.732 149.152 228.883 156.493 228.81 157.875C228.738 159.257 227.999 173.297 227.999 173.297L233.328 186.042L232.103 174.206L243.127 192.789L238.01 171.032L233.478 168.461L236.509 166.288L235.712 149.47L233.887 153.526L233.196 162.261L231.875 156.651L232.36 151.828L229.732 149.152Z" fill="#A96443"/>
<path d="M227.301 201.879C228.579 201.716 230.978 197.804 226.022 191.078C223.967 188.293 223.762 195.596 224.488 198.269C225.217 200.943 226.024 202.043 227.301 201.879Z" fill="#33A86D"/>
<path d="M229.043 198.212C229.043 198.212 227.649 190.733 228.972 190.891C232.951 191.363 231.373 193.926 231.373 193.926C231.373 193.926 237.169 188.865 238.082 190.858C238.995 192.853 235.193 195.625 235.193 195.625C235.193 195.625 245.153 189.69 240.196 194.371C235.241 199.052 228.119 201.737 229.043 198.212Z" fill="#33A86D"/>
<path d="M224.838 180.747C224.838 180.747 226.366 186.827 227.939 183.217C229.515 179.607 228.739 176.798 224.838 180.747Z" fill="#33A86D"/>
<path d="M236.736 182.761C236.736 182.761 239.692 179.222 236.469 179.052C233.245 178.883 234.941 181.742 236.736 182.761Z" fill="#33A86D"/>
<path d="M225.905 151.72C225.905 151.72 226.609 155.913 223.892 154.846C221.175 153.779 221.372 150.097 225.905 151.72Z" fill="#33A86D"/>
<path d="M225.031 159.521C225.031 159.521 231.548 158.478 228.399 156.929C225.249 155.378 222.342 157.997 225.031 159.521Z" fill="#33A86D"/>
<path d="M228.302 167.541C228.302 167.541 232.663 163.616 228.544 162.937C224.425 162.261 223.722 166.838 228.302 167.541Z" fill="#33A86D"/>
<path d="M219.893 160.637C219.893 160.637 220.063 166.188 222 164.441C223.938 162.695 224.159 158.554 219.893 160.637Z" fill="#33A86D"/>
<path d="M202.401 205.995C202.401 205.995 199.695 200.897 202.452 198.729C205.21 196.559 202.401 205.995 202.401 205.995Z" fill="#288453"/>
<path d="M200.602 204.86C199.809 206.05 194.623 193.466 197.402 193.265C200.182 193.063 201.397 203.672 200.602 204.86Z" fill="#288453"/>
<path d="M195.564 203.367C194.902 202.064 194.517 195.465 196.756 198.274C198.401 200.343 198.817 200.767 199.162 203.711C199.506 206.652 196.225 204.671 195.564 203.367Z" fill="#288453"/>
<path d="M161.029 187.081C161.029 187.081 160.556 178.516 157.746 179.292C154.937 180.068 157.953 184.15 157.953 184.15C157.953 184.15 154.003 180.25 154.985 183.532C155.967 186.815 161.029 187.081 161.029 187.081Z" fill="#33A86D"/>
<path d="M163.754 187.918C163.754 187.918 166.091 182.962 163.815 182.38C161.539 181.798 161.839 184.814 161.839 184.814C161.839 184.814 160.035 179.64 159.672 182.162C159.308 184.681 160.593 186.596 162.166 187.372C163.742 188.148 163.742 188.148 163.742 188.148" fill="#288453"/>
<path d="M95.2596 228.513C95.2596 228.513 91.625 218.629 93.571 221.152C95.514 223.679 96.1323 225.097 96.1323 225.097C96.1323 225.097 95.7502 219.191 98.0947 220.7C100.439 222.21 98.8573 225.933 98.8573 225.933C98.8573 225.933 102.82 223.025 103.055 225.116C103.29 227.208 97.9664 229.693 95.2596 228.513Z" fill="#33A86D"/>
<path d="M72.9499 229.187C72.9499 229.187 69.8792 221.753 72.3326 221.192C74.7862 220.628 75.2228 225.499 75.2228 225.499C75.2228 225.499 75.3513 216.503 78.4567 216.667C81.5621 216.83 78.3828 224.625 78.3828 224.625C78.3828 224.625 79.5088 222.953 81.1441 224.77C82.7794 226.587 81.5807 229.641 81.5807 229.641C81.5807 229.641 85.1603 227.405 87.1425 229.241C89.1219 231.076 87.0153 231.658 87.0153 231.658C87.0153 231.658 93.6486 230.621 93.2108 232.329C92.7759 234.037 87.1777 235.128 82.0719 233.474C76.9662 231.819 65.5165 232.257 66.7 229.548C67.8805 226.841 72.9499 229.187 72.9499 229.187Z" fill="#33A86D"/>
<path d="M34.9373 212.132C34.9373 212.132 29.3592 205.581 34.0239 201.421L35.0885 205.792C35.0885 205.792 37.2389 200.316 39.8839 198.607L36.7443 206.623C36.7443 206.623 38.8294 202.658 41.4126 201.636C43.9957 200.617 34.9373 212.132 34.9373 212.132Z" fill="#856792"/>
<path d="M32.4744 211.785C32.4744 211.785 26.8245 207.575 20.5252 206.762C20.5252 206.762 25.001 205.486 27.7454 206.549C30.4898 207.611 30.3627 209.809 30.3627 209.809L29.3599 204.752C29.3599 204.752 34.8864 210.332 34.9343 212.131C34.9822 213.93 32.4744 211.785 32.4744 211.785Z" fill="#856792"/>
<path d="M247.472 184.166C247.472 184.166 245.84 176.067 248.692 173.827L248.523 178.29C248.523 178.29 250.387 173.928 251.904 173.266L249.178 179.653C249.178 179.653 250.778 176.683 252.16 176.642C253.542 176.6 247.472 184.166 247.472 184.166Z" fill="#856792"/>
<path d="M246.359 182.97C246.359 182.97 244.333 177.037 241.473 174.05C241.473 174.05 243.791 174.44 244.928 176.404C246.065 178.369 245.666 180.378 245.666 180.378L245.97 175.296C245.97 175.296 247.729 182.466 247.474 184.167C247.219 185.867 246.359 182.97 246.359 182.97Z" fill="#856792"/>
<path d="M138.561 180.373C138.503 180.39 138.445 180.412 138.389 180.441C137.547 180.847 129.538 181.999 128.709 182.914C128.031 183.66 128.012 186.995 128.155 188.286C128.2 188.687 128.464 189.026 128.844 189.172C130.39 189.772 132.567 191.15 136.444 191.129C141.581 191.1 142.616 190.838 146.519 189.221C149.076 188.164 153.034 187.24 153.811 186.893C154.182 186.727 154.36 186.377 154.4 185.983L154.834 181.657C154.888 181.115 154.603 180.624 154.059 180.495C151.541 179.907 144.483 178.554 138.561 180.373Z" fill="#29ABE2"/>
<path d="M141.422 178.846C141.422 178.846 129.527 181.573 128.658 182.469C127.79 183.364 128.15 187.09 128.15 187.09C128.15 187.09 131.417 189.332 136.51 189.116C141.623 188.897 142.789 189.235 146.664 187.771C149.67 186.634 153.686 185.737 154.267 185.493C154.421 185.427 154.525 185.296 154.542 185.143L154.94 181.32C154.975 180.971 154.727 180.647 154.35 180.556C152.119 180.025 147.582 177.103 141.422 178.846Z" fill="#121721"/>
<path d="M134.281 181.111C134.281 181.111 137.513 180.767 139.808 182.953" stroke="#29ABE2" stroke-width="2" stroke-miterlimit="10" stroke-linecap="round" stroke-linejoin="round"/>
<path d="M136.544 180.178C136.544 180.178 138.864 179.915 142.58 182.417" stroke="#29ABE2" stroke-width="2" stroke-miterlimit="10" stroke-linecap="round" stroke-linejoin="round"/>
<path d="M183.124 119.787C183.124 119.787 162.852 114.258 155.019 113.052C150.703 112.389 148.631 113.557 147.166 115.976C145.699 118.391 145.586 126.917 149.737 129.497C153.887 132.076 160.67 132.311 166.049 134.467C171.425 136.621 179.039 141.493 183.696 139.477C188.354 137.461 195.268 125.674 183.124 119.787Z" fill="#CE9436"/>
<path d="M183.124 119.788L174.004 117.525L156.293 131.821C156.293 131.821 163.675 133.515 166.046 134.467C171.422 136.621 179.036 141.493 183.693 139.477C188.353 137.461 189.676 119.978 183.124 119.788Z" fill="#F7BC4B"/>
<path d="M157.045 148.249C157.045 148.249 157.03 128.107 157.676 123.801C158.325 119.495 158.216 113.381 150.524 112.648C145.317 112.151 142.241 112.848 141.602 119.122C141.094 124.123 140.317 128.202 140.802 133.415C141.454 140.407 140.303 172.257 139.251 173.331C138.199 174.405 138.121 173.947 138.097 176.663C138.079 178.855 139.975 179.178 145.02 180.364C148.128 180.918 151.19 183.21 153.834 181.738C156.478 180.266 155.92 179.056 155.92 179.056L155.923 176.33L157.045 148.249Z" fill="#CE9436"/>
<path d="M157.045 148.249C157.045 148.249 160.322 128.95 160.971 124.644C161.619 120.338 150.19 146.676 150.795 149.479C151.403 152.283 151.446 157.969 151.446 157.969L149.67 155.24C149.67 155.24 146.785 173.219 146.761 175.939C146.743 178.131 139.972 179.183 145.017 180.367C148.125 180.921 151.186 183.212 153.83 181.74C156.474 180.268 155.916 179.058 155.916 179.058L155.92 176.332L157.045 148.249Z" fill="#F7BC4B"/>
<path d="M219.782 124.777C219.782 124.777 223.594 134.211 221.921 139.661C220.248 145.114 219.023 145.049 212.6 144.249C206.733 143.518 172.695 138.647 179.399 126.036C185.026 115.448 193.219 117.838 202.19 119.85C211.164 121.862 219.782 124.777 219.782 124.777Z" fill="#F7BC4B"/>
<path d="M180.912 82.7167C180.912 82.7167 175.34 86.6238 174.586 92.0508C173.833 97.4778 170.107 103.256 168.692 105.046C167.278 106.837 163.632 113.304 169.209 117.287C174.785 121.271 177.3 113.082 179.668 109.554C182.035 106.025 185.373 102.845 187.299 97.5136C189.226 92.1797 191.657 79.3612 180.912 82.7167Z" fill="#7A462F"/>
<path d="M173.959 113.884C173.959 113.884 175.166 117.94 170.495 121.843C165.824 125.747 158.022 131.858 155.99 133.524C153.957 135.191 151.228 134.383 149.398 132.416C147.568 130.446 149.539 127.721 154.567 122.245C159.595 116.77 165.161 109.3 169.768 107.746C174.376 106.192 173.959 113.884 173.959 113.884Z" fill="#7A462F"/>
<path d="M161.737 125.415C162.63 124.76 175.166 117.94 170.494 121.843C165.823 125.747 158.022 131.858 155.989 133.524C153.957 135.191 152.683 130.787 154.62 129.044C156.556 127.301 158.448 127.819 161.737 125.415Z" fill="#A96443"/>
<path d="M151.541 128.097C150.594 127.782 149.089 128.139 147.024 128.644C145.464 129.024 143.074 129.129 141.45 129.274C138.897 129.502 138.951 128.527 137.201 129.59C136.32 130.125 136.701 131.514 137.234 131.898C138.495 132.812 142.29 132.333 142.776 132.575C143.262 132.817 139.634 136.359 139.463 136.627C139.292 136.894 135.041 138.715 134.118 139.3C133.195 139.884 133.825 140.416 134.191 140.781C134.557 141.145 135.917 141.194 135.917 141.194C135.917 141.194 134.606 141.729 135.479 142.748C136.355 143.769 137.033 143.671 137.616 143.379C138.199 143.088 139.073 142.894 139.073 142.894C139.073 142.894 138.806 144.183 140.119 144.375C141.432 144.567 141.965 144.181 141.965 144.181C141.965 144.181 142.16 144.813 143.253 145.179C144.346 145.544 144.468 145.18 146.484 143.989C148.5 142.797 151.246 141.122 152.047 140.417C152.849 139.712 155.885 134.246 155.375 132.619C154.871 130.987 152.488 128.412 151.541 128.097Z" fill="#7A462F"/>
<path d="M152.982 130.956C152.035 130.641 149.239 129.687 147.176 130.189C145.617 130.569 142.799 130.035 141.177 130.181C138.624 130.409 139.236 129.078 137.486 130.141C136.605 130.676 136.71 131.511 137.24 131.899C138.501 132.812 142.296 132.333 142.782 132.575C143.268 132.818 139.64 136.359 139.469 136.627C139.298 136.895 135.047 138.716 134.124 139.3C133.201 139.884 133.831 140.417 134.197 140.781C134.563 141.145 136.236 140.731 136.236 140.731C136.236 140.731 134.612 141.73 135.485 142.751C136.361 143.772 137.02 143.054 137.658 142.922C138.551 142.738 139.217 142.542 139.217 142.542C139.217 142.542 138.492 144.144 140.125 144.378C141.112 144.519 143.113 143.238 143.113 143.238C143.113 143.238 142.124 143.936 142.732 144.458C143.674 145.266 144.291 144.597 146.307 143.406C148.323 142.215 150.727 140.259 151.528 139.555C152.33 138.85 155.008 134.126 154.498 132.499C153.987 130.87 153.929 131.271 152.982 130.956Z" fill="#A96443"/>
<path d="M141.768 137.906C141.768 137.906 144.25 139.73 145.267 140.129C146.284 140.528 146.999 140.873 146.999 140.873C146.999 140.873 143.132 138.323 142.908 138.197C142.684 138.071 141.469 137.043 141.469 137.043L141.768 137.906Z" fill="#7A462F"/>
<path d="M142.158 143.822L144.811 142.202L146.62 140.739C146.62 140.739 146.016 141.546 144.879 142.385C144.187 142.894 142.98 143.438 142.158 143.822Z" fill="#7A462F"/>
<path d="M139.209 142.656L141.917 140.877C141.917 140.877 143.586 139.63 144.537 139.321L142.378 140.901L139.209 142.656Z" fill="#7A462F"/>
<path d="M135.839 140.902L139.729 139.375L141.783 137.636C141.783 137.636 139.903 139 139.584 139.214C139.264 139.428 135.259 140.985 135.259 140.985L135.839 140.902Z" fill="#7A462F"/>
<path d="M199.943 77.801C189.921 78.1974 185.224 79.7182 182.864 80.6719C180.507 81.6258 180.925 82.4177 180.925 82.4177C180.925 82.4177 181.272 90.4377 181.58 93.3769C181.887 96.316 182.674 103.638 182.878 107.447C183.102 111.636 186.066 119.269 185.702 121.791C185.261 124.848 186.684 129.459 186.684 129.459C186.684 129.459 195.466 127.806 201.562 128.897C207.659 129.987 220.069 128.1 220.691 127.979C221.313 127.857 220.865 126.14 220.945 124.607C221.026 123.071 220.921 120.682 220.921 120.682C220.921 120.682 220.067 106.943 220.229 103.872C220.39 100.804 221.777 84.2658 220.704 80.9698C220.039 78.9358 209.965 77.4046 199.943 77.801Z" fill="#29ABE2"/>
<path d="M216.895 102.159C216.895 102.159 217.174 107.099 216.988 110.628C216.802 114.157 218.455 117.86 217.631 120.355C216.807 122.849 216.079 127.89 216.079 127.89" stroke="#1689CB" stroke-miterlimit="10"/>
<path d="M206.635 77.8282C207.557 77.8767 206.724 82.6978 205.438 84.478C204.152 86.2582 198.744 88.8965 194.592 88.8319C190.139 88.7629 187.973 87.2202 189.657 83.1854C190.538 81.0787 191.12 78.7995 192.668 78.5731C194.22 78.3468 195.322 78.2137 198.91 78.0546C202.497 77.8956 205.714 77.7797 206.635 77.8282Z" fill="#7A462F"/>
<path d="M201.326 82.7016C204.843 81.9913 204.649 81.9355 204.419 80.124L203.809 71.6196C203.628 70.1785 202.07 69.2211 199.88 69.6619L195.233 70.441C193.106 70.868 192.202 72.289 192.163 73.7242C192.163 73.7242 192.453 79.8078 192.891 81.7215C193.334 83.6583 197.807 83.4118 201.326 82.7016Z" fill="#A96443"/>
<path d="M201.112 82.9746C193.59 78.6234 192.198 72.2907 192.16 73.7231C192.16 73.7231 192.236 80.0777 192.674 81.9915C193.123 83.9314 197.593 83.6876 201.112 82.9746Z" fill="#7A462F"/>
<path d="M182.182 96.5626L182.767 101.219C182.767 101.219 196.134 103.414 213.397 102.13L212.635 96.8965C212.632 96.8964 200.289 98.4396 182.182 96.5626Z" fill="#3E4C6F"/>
<path d="M213.396 104.322C213.396 104.322 197.923 105.355 182.999 103.646L183.546 107.867C183.546 107.867 188.563 109.055 196.056 109.295C203.549 109.536 214.216 108.52 214.216 108.52L213.396 104.322Z" fill="#3E4C6F"/>
<path d="M205.894 60.5397C207.046 74.4679 204.459 73.3422 198.777 74.1211C194.023 74.7748 189.474 69.5421 188.641 62.6143C187.808 55.6866 190.994 49.6063 195.757 49.033C200.521 48.4596 205.187 51.9789 205.894 60.5397Z" fill="#273252"/>
<path d="M202.986 58.9694C202.189 52.5968 201.082 49.031 194.152 49.3591C190.536 49.5309 187.045 50.2997 185.097 51.66C183.336 52.8905 182.385 54.5856 182.221 58.8488C182.097 62.0618 182.045 67.597 183.693 72.7482C184.751 76.0491 189.126 76.8098 192.883 76.614C202.391 76.1221 203.727 74.9577 203.76 68.1525C203.791 61.7551 203.313 61.5844 202.986 58.9694Z" fill="#7A462F"/>
<path d="M201.864 52.2688C199.864 48.4307 194.057 52.779 196.587 53.8504C200.314 55.4324 198.941 64.0263 198.047 69.2377C197.064 74.972 193.705 76.221 193.705 76.221C193.705 76.221 195.505 76.3642 197.656 75.91C201.157 75.1703 203.607 75.3763 203.597 66.9063C203.594 62.8426 203.094 54.6263 201.864 52.2688Z" fill="#A96443"/>
<path d="M183.607 51.6907C183.074 52.1075 182.389 55.7501 182.25 58.0212C182.222 58.4988 182.797 55.0387 183.487 54.2394C183.487 54.2394 185.5 54.8274 187.838 54.6196C192.179 54.235 196.075 53.3023 196.075 53.3023C196.075 53.3023 197.575 58.2718 198.937 59.872C200.333 61.5139 202.014 62.3666 202.014 62.3666L203.9 58.8158C203.514 54.0161 201.74 49.9646 198.476 49.2852C192.502 48.0439 185.564 50.1568 183.607 51.6907Z" fill="#273252"/>
<path d="M193.826 62.9906C193.829 63.9493 193.384 64.0628 192.899 64.063C192.414 64.066 192.063 63.9562 192.048 62.9968C192.033 62.0289 192.423 61.2335 192.92 61.2311C193.416 61.2316 193.822 62.0233 193.826 62.9906Z" fill="#1D2538"/>
<path d="M191.443 58.0309C191.443 58.0309 193.414 57.7638 194.294 58.666" stroke="#1D2538" stroke-miterlimit="10" stroke-linecap="round" stroke-linejoin="round"/>
<path d="M186.751 63.4765C186.793 64.3745 186.401 64.4423 185.944 64.444C185.488 64.4456 185.132 64.3812 185.082 63.4828C185.03 62.5757 185.366 61.8288 185.831 61.8276C186.296 61.8235 186.708 62.567 186.751 63.4765Z" fill="#1D2538"/>
<path d="M186.514 58.7297C186.514 58.7297 185.067 58.2428 183.782 59.4618" stroke="#1D2538" stroke-miterlimit="10" stroke-linecap="round" stroke-linejoin="round"/>
<path d="M206.45 63.3665C205.845 65.653 204.046 67.2208 202.412 66.9352C202.412 66.9352 202.397 61.7073 202.361 60.7102C202.337 60.0844 202.714 58.1623 204.455 58.4678C206.19 58.773 207.073 61.001 206.45 63.3665Z" fill="#A96443"/>
<path d="M205.408 65.7387C205.312 66.3585 204.715 66.812 204.079 66.7557C203.443 66.6994 202.995 66.1509 203.082 65.5307C203.169 64.9048 203.764 64.4397 204.412 64.4966C205.059 64.5535 205.506 65.1134 205.408 65.7387Z" fill="#F3E7D9"/>
<path d="M193.945 136.035C193.945 136.035 194.074 140.532 190.185 140.609C190.185 140.609 193.777 136.962 193.945 136.035Z" fill="#CE9436"/>
<path d="M175.95 190.237C170.789 191.782 163.288 193.215 162.867 195.415C162.447 197.6 162.131 199.916 162.307 200.746C162.442 201.375 162.705 201.757 163.198 201.977C164.452 202.536 166.951 203.862 172.048 204.501C174.246 204.777 179.098 203.775 182.076 201.758C184.435 200.163 187.256 198.315 188.31 197.624C188.585 197.444 188.771 197.166 188.825 196.847L189.25 194.394C189.337 193.894 189.084 193.387 188.62 193.143C186.445 191.993 180.139 188.981 175.95 190.237Z" fill="#29ABE2"/>
<path d="M176.286 188.115C171.791 189.393 163.234 192.342 162.832 194.522C162.469 196.49 162.3 197.577 162.343 198.337C162.363 198.709 163.399 198.921 163.901 199.124C165.18 199.639 167.728 200.857 172.902 201.485C175.132 201.757 179.523 201.338 182.525 199.559C185.018 198.085 188.02 196.367 188.952 195.834C189.137 195.727 189.266 195.56 189.308 195.365L189.701 193.467C189.87 192.651 189.806 189.101 188.907 188.782C185.637 187.624 180.27 186.982 176.286 188.115Z" fill="#121721"/>
<path d="M176.62 193.88C176.62 193.88 172.559 190.096 167.806 191.331" stroke="#29ABE2" stroke-width="2" stroke-miterlimit="10" stroke-linecap="round" stroke-linejoin="round"/>
<path d="M179.549 192.237C179.549 192.237 175.304 188.799 170.565 190.03" stroke="#29ABE2" stroke-width="2" stroke-miterlimit="10" stroke-linecap="round" stroke-linejoin="round"/>
<path d="M183.683 190.473C183.683 190.473 182 190.698 178.298 190.389C174.593 190.083 174.389 188.86 173.441 188.285C172.493 187.711 170.282 189.956 171.413 183.91C172.544 177.864 171.673 175.44 171.457 173.911C171.241 172.383 170.82 174.154 171.08 169.375C171.34 164.595 171.832 160.822 171.876 154.514C171.921 148.205 172.003 128.054 172.813 125.408C173.625 122.758 191.953 124.65 193.073 129.371C194.193 134.093 192.32 139.512 191.64 141.692C190.961 143.872 191.466 150.366 190.661 154.71C190.212 157.127 189.819 164.375 190.006 172.521C190.193 180.667 190.622 183.569 191.12 184.471C191.617 185.373 190.82 188.328 190.409 189.575C190.004 190.826 183.683 190.473 183.683 190.473Z" fill="#F7BC4B"/>
<path d="M221.158 129.312C220.795 127.445 220.412 128.694 206.787 126.095C196.242 124.082 182.112 118.334 179.651 124.204C177.189 130.075 206.44 132.692 213.183 133.201C219.929 133.71 221.522 131.179 221.158 129.312Z" fill="#F7BC4B"/>
<path d="M182.268 135.883C182.268 135.883 176.734 132.823 177.413 128.703C178.1 124.522 188.124 123.498 193.024 122.986C184.204 119.522 173.625 122.764 172.812 125.413C172 128.062 171.92 148.213 171.876 154.519C171.832 160.827 171.34 164.6 171.08 169.38C170.817 174.159 171.238 172.388 171.457 173.917C171.676 175.445 172.543 177.869 171.412 183.915C170.281 189.961 172.493 187.716 173.441 188.291C174.388 188.865 174.592 190.088 178.297 190.394C182.003 190.7 183.683 190.478 183.683 190.478C183.683 190.478 190.004 190.828 190.411 189.58C190.819 188.333 191.619 185.378 191.122 184.476C190.854 183.989 186.057 178.523 181.614 173.33L181.973 174.635L181.998 179.627C181.998 179.627 180.222 175.29 179.593 173.692C179.148 172.559 178.304 170.176 177.845 168.877C175.739 166.348 174.191 164.388 174.032 163.886C173.773 163.074 173.961 133.113 176.772 134.977C180.048 137.152 182.268 135.883 182.268 135.883Z" fill="#CE9436"/>
<path d="M219.279 80.2817C217.879 80.2679 215.14 79.3709 213.394 84.5887C211.648 89.8066 214.545 102.652 217.318 101.877C220.09 101.102 220.036 94.172 220.87 90.292C221.705 86.4092 221.097 80.3004 219.279 80.2817Z" fill="#7A462F"/>
<path d="M219.278 80.2788C217.666 79.9687 216.994 81.3163 215.891 83.2573C214.159 86.3115 215.018 93.6626 217.771 93.2515C220.525 92.8404 220.766 86.7962 221.519 84.4746C222.271 82.153 221.486 80.7058 219.278 80.2788Z" fill="#A96443"/>
<path d="M228.145 95.9821C228.145 95.9821 226.94 92.5337 225.088 88.2814C223.236 84.029 222.133 80.1241 219.323 80.9001C216.513 81.6762 215.09 86.0641 214.678 89.5043C214.266 92.9445 215.701 96.405 218.131 99.9178C220.081 102.735 222.029 111.356 224.753 115.192C228.153 119.985 231.116 122.913 234.471 120.551C237.826 118.19 236.095 111.634 233.792 107.127C231.488 102.62 228.145 95.9821 228.145 95.9821Z" fill="#A96443"/>
<path d="M216.972 93.392C214.251 89.7555 215.698 84.7072 215.698 84.7072C215.698 84.7072 214.82 86.047 214.408 89.4872C213.996 92.9274 215.431 96.3878 217.861 99.9006C219.811 102.718 222.029 111.353 224.75 115.189C224.75 115.189 232.728 114.166 230.348 113.348C228.082 112.57 226.724 113.171 226.145 112.088C225.015 109.984 221.303 101.043 221.303 101.043C221.303 101.043 219.127 96.2772 216.972 93.392Z" fill="#7A462F"/>
<path d="M232.98 113.777C232.98 113.777 231.034 112.925 225.884 114.27C220.735 115.616 223.105 117.181 213.598 121.297C208.727 123.405 211.774 127.817 218.279 127.008C224.783 126.195 230.082 124.937 233.486 121.654C236.89 118.369 237.229 116.311 232.98 113.777Z" fill="#A96443"/>
<path d="M223.771 117.678C225.196 116.518 227.533 114.742 228.198 113.987C228.713 113.401 228.133 113.584 225.881 114.173C220.731 115.519 223.107 117.181 213.6 121.297C208.727 123.405 221.239 119.738 223.771 117.678Z" fill="#7A462F"/>
<path d="M214.515 122.501C213.802 121.955 209.571 119.933 207.053 119.57C204.534 119.206 201.733 119.752 201.733 119.752L196.56 121.555C196.56 121.555 194.736 123.307 194.239 123.971C193.742 124.638 194.574 125.315 194.574 125.315C194.574 125.315 196.299 126.501 196.664 126.175C197.027 125.849 197.027 125.849 197.027 125.849C197.027 125.849 197.893 126.933 198.578 127.086C199.263 127.236 200.074 127.164 200.074 127.164C200.074 127.164 201.875 128.066 203.14 128.133C204.405 128.199 205.66 126.303 206.938 126.14C208.215 125.976 209.21 127.933 211.634 127.944C214.057 127.957 216.623 124.111 214.515 122.501Z" fill="#A96443"/>
<path d="M212.949 121.64C211.297 120.843 208.776 119.817 207.053 119.57C204.534 119.206 201.733 119.752 201.733 119.752L196.56 121.555C196.56 121.555 194.736 123.307 194.239 123.971C193.742 124.638 194.574 125.315 194.574 125.315C194.574 125.315 196.299 126.501 196.664 126.175C197.027 125.849 197.027 125.849 197.027 125.849C197.027 125.849 197.893 126.933 198.578 127.086C199.263 127.236 200.074 127.164 200.074 127.164L200.655 125.618L208.177 121.551C208.18 121.551 213.714 122.008 212.949 121.64Z" fill="#7A462F"/>
<path d="M112.359 164.677C112.359 164.677 113.93 169.833 115.014 171.062L116.342 168.48C116.339 168.48 114.845 165.772 112.359 164.677Z" fill="#992C29"/>
<path d="M113.01 166.882C113.01 166.882 112.014 171.067 112.345 172.582L114.534 171.992C114.532 171.992 114.513 169.311 113.01 166.882Z" fill="#992C29"/>
<path d="M58.4535 183.704C58.4535 183.704 56.3091 194.972 56.6906 197.692C57.0693 200.413 55.962 203.788 54.7761 205.514C54.1183 206.58 56.0338 210.767 56.0338 210.767C56.0338 210.767 59.282 211.902 62.5113 210.957C65.3352 210.13 64.7473 208.459 63.0349 207.565C61.3087 206.662 65.8043 199.592 65.8043 199.592C65.8043 199.592 69.5498 187.325 69.8505 185.459C70.151 183.595 60.4726 177.633 58.4535 183.704Z" fill="#1D2538"/>
<path d="M109.388 167.307C106.579 167.752 92.4293 166.281 91.5364 160.707C90.8777 156.589 89.4608 151.977 89.2757 148.506C89.2757 148.506 87.8944 145.98 86.7201 142.936C85.5408 139.877 86.1528 139.41 87.8473 140.32C89.5279 141.221 92.6222 144.467 92.6222 144.467C92.6222 144.467 96.9137 141.71 102.673 141.503C108.259 141.303 106.865 143.141 108.816 145.83L110.197 148.255C110.197 148.255 114.351 146.267 117.044 146.097C119.696 145.932 120.546 147.066 121.512 150.048C122.511 153.127 122.549 153.437 121.813 155.174C121.074 156.921 118.6 160.138 115.933 162.482C115.942 162.476 112.157 166.868 109.388 167.307Z" fill="#1D2538"/>
<path d="M109.388 167.307C106.578 167.753 103.488 170.499 102.598 164.925C101.939 160.807 102.493 154.089 102.493 154.089C102.493 154.089 96.9222 141.705 102.682 141.498C108.268 141.298 108.571 142.9 110.02 145.383L110.941 147.875C110.941 147.875 114.36 146.259 117.052 146.093C119.704 145.927 120.554 147.061 121.521 150.043C122.519 153.122 122.557 153.432 121.821 155.169C121.082 156.916 118.609 160.133 115.942 162.477C115.942 162.477 112.157 166.869 109.388 167.307Z" fill="#273252"/>
<path d="M120.518 147.316C121.464 148.697 119.394 150.091 118.441 148.706C117.482 147.313 114.664 146.665 116.354 146.138C117.522 145.778 119.571 145.928 120.518 147.316Z" fill="#121721"/>
<path d="M99.5692 143.484C99.5692 143.484 99.1464 139.435 99.2394 136.423C99.3309 133.548 100.856 134.096 102.264 136.502C103.731 139.009 105.721 143.791 106.07 144.742C106.422 145.693 100.953 146.836 99.5692 143.484Z" fill="#273252"/>
<path d="M101.099 137.077C100.688 134.173 101.197 135.064 102.604 137.467C104.07 139.969 103.939 140.446 104.291 141.4C104.64 142.351 101.465 139.663 101.099 137.077Z" fill="#1D2538"/>
<path d="M102.693 201.859C102.353 200.741 100.341 200.603 100.273 200.323C99.1143 195.58 98.9859 190.813 98.8508 189.697C98.5723 187.404 100.059 183.048 99.495 178.108C98.9501 173.345 90.7817 177.486 91.2936 183.148C91.5892 186.418 93.2744 197.471 93.7608 200.474C93.8298 200.896 93.9882 201.301 94.2285 201.665L96.5446 204.148C97.0632 205.076 98.2097 204.803 100.307 204.289C102.378 203.782 103.155 203.378 102.693 201.859Z" fill="#273252"/>
<path d="M117.075 208.396C116.957 205.504 113.413 205.383 113.413 205.383C113.225 204.994 112.569 204.241 112.518 203.853C112.125 200.913 112.644 194.19 112.582 192.889C112.45 190.182 113.144 182.043 112.968 175.805C112.79 169.54 104.917 174.463 104.554 180.65C104.297 185.053 107.123 202.754 107.385 204.456C107.385 204.456 111.112 210.412 113.082 210.316C115.029 210.222 117.15 210.18 117.075 208.396Z" fill="#273252"/>
<path d="M91.4324 162.741C90.1314 165.298 90.9432 166.508 87.6799 167.502C80.2576 169.766 74.2333 169.96 65.8616 171.897C60.3997 173.161 56.4477 184.531 58.6027 187.852C60.7605 191.174 70.1015 191.084 75.7208 195.172C81.6147 199.461 88.5666 194.973 92.4407 193.426C96.3148 191.879 106.405 185.521 108.929 183.187C109.84 182.345 110.319 179.918 111.014 177.379C112.02 173.702 113.733 169.504 111.52 165.982C110.023 163.594 92.7332 160.186 91.4324 162.741Z" fill="#1D2538"/>
<path d="M105.532 167.652L101.62 174.193C101.62 174.193 97.2474 180.179 97.6036 180.184L101.327 187.455C101.327 187.455 106.408 185.518 108.929 183.184C109.841 182.342 111.819 180.393 112.515 177.852C113.521 174.175 113.157 171.176 112.56 165.894L105.532 167.652Z" fill="#273252"/>
<path d="M91.4931 161.578C91.4931 161.578 90.8673 162.306 90.8878 163.867C90.8878 163.867 95.7192 165.804 105.017 167.622C109.736 168.546 113.4 168.018 113.4 168.018L113.177 165.154C113.177 165.157 102.027 166.509 91.4931 161.578Z" fill="#992C29"/>
<path d="M67.1192 175.756C66.3438 174.56 65.0984 175.359 62.1901 169.662C59.2819 163.966 58.6256 154.817 62.826 152.001C62.826 152.001 58.4075 150.617 54.5786 159.053C50.6627 167.678 59.7371 178.017 60.5757 178.825C64.282 182.417 69.324 179.16 67.1192 175.756Z" fill="#273252"/>
<path d="M67.5631 176.092C66.7824 174.887 64.0076 179.386 59.7113 170.697C57.451 166.126 56.3987 154.912 62.8399 152C62.8399 152 55.9518 150.617 53.6697 159.679C50.7176 171.392 59.725 178.237 60.5689 179.054C64.3075 182.682 69.7891 179.525 67.5631 176.092Z" fill="#1D2538"/>
<path d="M70.4671 187.128C70.4671 187.128 73.5004 201.988 75.0308 204.281C76.5532 206.563 77.6412 209.948 77.1788 211.852C76.716 213.763 80.218 216.252 80.218 216.252C80.218 216.252 84.9299 215.964 85.7182 215.723C86.5037 215.482 88.1508 212.469 86.084 212.24C83.9944 212.011 83.2327 202.971 83.2327 202.971C83.2327 202.971 83.2429 186.902 82.761 185.115C82.2789 183.33 69.8914 180.944 70.4671 187.128Z" fill="#1D2538"/>
<path d="M109.475 148.228C109.786 148.127 109.803 147.318 109.512 146.419C109.221 145.521 108.733 144.875 108.422 144.976C108.11 145.077 108.094 145.887 108.385 146.785C108.676 147.683 109.164 148.329 109.475 148.228Z" fill="#121721"/>
<path d="M118.514 158.763C118.514 158.763 114.404 158.547 114.252 161.815C114.242 162.066 114.36 162.309 114.564 162.456L117.366 164.474C117.366 164.474 122.857 171.225 123.742 171.965C124.627 172.704 128.132 174.811 130.695 171.407C132.991 168.36 131.954 162.818 129.567 162.114L118.514 158.763Z" fill="#F5894E"/>
<path d="M123.487 169.487C122.782 167.442 124.346 163.623 127.768 163.404C131.706 163.15 131.658 169.15 130.044 171.152C128.061 173.617 124.623 172.78 123.487 169.487Z" fill="#FFFCF3"/>
<path d="M123.742 167.578L125.543 169.173C125.543 169.173 125.296 168.869 125.48 167.439C125.601 166.498 126.434 165.513 128.273 164.817L126.517 164.205C126.517 164.205 124.315 164.378 123.742 167.578Z" fill="#F5894E"/>
<path d="M123.111 170.776C123.111 170.776 129.042 173.549 129.656 167.736C129.763 166.732 128.424 164.825 126.285 165.251C123.893 165.727 126.143 164.32 126.678 164.348C127.213 164.376 131.407 165.144 130.168 168.955C128.974 172.625 125.903 172.4 124.328 171.724C123.625 171.422 123.111 170.776 123.111 170.776Z" fill="#F5894E"/>
<path d="M119.692 159.056C119.692 159.056 115.753 158.244 115.852 163.472" stroke="#F7BC4B" stroke-miterlimit="10" stroke-linecap="round" stroke-linejoin="round"/>
<path d="M119.556 159.394C119.556 159.394 122.257 156.304 120.251 157.123C118.246 157.941 119.556 159.394 119.556 159.394Z" stroke="#F7BC4B" stroke-miterlimit="10"/>
<path d="M119.69 159.055C119.69 159.055 122.325 157.231 123.279 158.899C124.232 160.567 121.237 160.409 120.668 160.262C120.097 160.115 119.69 159.055 119.69 159.055Z" stroke="#F7BC4B" stroke-miterlimit="10"/>
<path d="M119.692 159.056C119.692 159.056 118.69 158.918 117.414 160.12C116.568 160.917 115.725 163.177 116.191 163.635" stroke="#F7BC4B" stroke-miterlimit="10" stroke-linecap="round" stroke-linejoin="round"/>
</svg>
