<svg width="771" height="638" viewBox="0 0 771 638" fill="none" xmlns="http://www.w3.org/2000/svg">
<path d="M815.839 588.372C794.646 558.081 650.254 448.464 423.226 457.508C230.673 465.18 95.9995 553.986 75.448 563.971C54.8966 573.957 63.4625 580.619 121.691 572.292C179.918 563.965 209.029 565.63 209.029 565.63L205.603 573.95C205.603 573.95 159.224 612.937 155.804 626.254C152.378 639.57 171.216 641.236 191.767 632.915C212.319 624.595 363.161 595.594 382 593.928C400.838 592.263 434.044 602.911 447.743 604.569C461.441 606.235 551.865 634.417 570.874 636.062C589.883 637.714 580.354 607.02 556.295 563.623C545.633 544.389 644.2 593.273 666.464 598.269C688.729 603.266 655.967 573.964 652.54 568.975C649.114 563.985 779.316 597.252 806.721 612.234C834.118 627.23 837.032 618.664 815.839 588.372Z" fill="#F4E8D8"/>
<path d="M305.985 443.208C305.985 443.208 139.566 473.752 72.2469 375.268C4.92742 276.783 66.7729 134.582 193.931 107.157C193.931 107.157 60.4047 162.723 107.78 299.847C155.156 436.97 305.985 443.208 305.985 443.208Z" fill="#F4E8D8"/>
<path d="M696.606 393.867C732.794 358.873 737.743 329.059 758.144 294.195C778.545 259.331 800.195 240.233 800.195 240.233C800.195 240.233 786.995 240.212 754.451 269.528C725.484 295.621 696.606 356.068 696.606 356.068C703.131 325.967 701.22 287.997 701.22 287.997C663.277 370.954 530.924 429.653 493.521 410.528C493.528 410.528 592.176 494.85 696.606 393.867Z" fill="#F4E8D8"/>
<path d="M615.144 256.218C621.375 256.218 732.344 204.877 737.313 155.242C741.053 117.846 733.572 61.7472 642.568 33.0735C539.327 0.543361 496.715 16.8699 456.827 28.0841C456.827 28.0841 567.775 11.8804 636.337 60.4982C750.957 141.783 615.144 256.218 615.144 256.218Z" fill="#F4E8D8"/>
<path d="M564.028 125.326C564.028 125.326 490.477 56.7646 418.175 67.9857C367.653 75.8281 236.167 108.092 216.223 187.656C202.565 242.165 263.592 263.699 263.592 263.699C263.592 263.699 224.946 242.506 243.648 190.148C262.35 137.79 378.28 81.6912 451.831 86.6806C525.382 91.67 564.028 125.326 564.028 125.326Z" fill="#F4E8D8"/>
<path d="M192.546 193.888C192.546 193.888 131.465 248.737 168.861 281.152C206.258 313.566 283.549 286.141 283.549 286.141C283.549 286.141 228.7 291.13 203.767 259.965C178.833 228.793 192.546 193.888 192.546 193.888Z" fill="#F4E8D8"/>
<path d="M72.2469 375.268C72.2469 375.268 -17.5079 336.001 3.06403 259.337C23.636 182.674 59.1625 218.2 59.1625 218.2C59.1625 218.2 51.6817 147.147 90.9486 124.705C130.215 102.263 145.177 116.603 145.177 116.603C145.177 116.603 163.879 96.6593 173.223 100.4C177.379 102.065 177.96 105.198 177.332 108.174C176.485 112.16 152.084 125.094 148.289 126.575C137.314 130.868 127.902 134.616 105.282 157.74C72.1376 191.622 60.8688 240.192 62.896 281.779C66.6363 358.436 72.2469 375.268 72.2469 375.268Z" fill="#F4E8D8"/>
<path d="M185.065 210.092C185.065 210.092 202.518 180.176 180.075 175.186C157.633 170.197 156.391 217.572 156.391 217.572C156.391 217.572 148.91 206.351 137.689 226.295C126.468 246.239 151.402 276.162 168.854 281.145C186.314 286.134 177.584 226.302 185.065 210.092Z" fill="#F4E8D8"/>
<path d="M708.946 186.407C708.946 186.407 745.878 182.121 764.109 140.595C780.941 102.263 764.109 77.0159 744.472 71.4122C724.836 65.8017 708.946 74.2174 708.946 74.2174C708.946 74.2174 725.777 25.5997 683.705 19.9892C641.633 14.3787 642.568 33.0804 642.568 33.0804C642.568 33.0804 628.542 12.5085 608.912 4.09953C589.275 -4.31626 590.21 22.8013 590.21 22.8013C590.21 22.8013 571.509 2.22935 545.333 7.83987C519.157 13.4504 519.84 19.8254 531.996 20.7605C544.152 21.6956 617.164 21.8252 664.847 70.443C712.529 119.061 708.946 186.407 708.946 186.407Z" fill="#F4E8D8"/>
<path d="M312.216 104.134C312.216 104.134 353.667 51.7755 410.694 44.2947C456.315 38.3088 433.409 70.2588 439.989 66.7369C457.442 57.386 479.31 49.1476 487.985 54.2736C501.698 62.3754 489.856 72.3474 489.856 72.3474C489.856 72.3474 529.123 94.1615 534.733 106.004C535.354 109.123 502.237 81.2137 459.312 77.9579C410.073 74.2176 312.216 104.134 312.216 104.134Z" fill="#F4E8D8"/>
<path d="M200.974 342.608C200.974 342.608 198.784 334.643 196.279 328.936C193.883 323.476 192.047 327.264 190.88 332.649C189.658 338.294 190.231 346.874 190.211 348.921C190.19 350.976 200.62 349.809 200.974 342.608Z" fill="#1D2538"/>
<path d="M223.123 410.139C229.116 407.811 241.955 392.167 239.395 381.342C236.835 370.517 234.283 354.47 230.931 348.471C230.931 348.471 230.406 337.1 229.321 330.991C228.242 324.889 226.631 324.616 224.488 327.564C222.345 330.513 219.506 340.56 219.506 340.56C219.506 340.56 205.22 334.84 193.712 339.816C182.204 344.792 178.689 352.593 177.741 359.248L177.393 359.733C177.393 359.733 164.786 362.845 158.855 365.289C152.923 367.732 151.128 370.776 153.817 377.151C156.507 383.526 156.957 386.714 160.602 389.055C164.247 391.396 180.341 396.502 188.6 397.716C188.6 397.716 192.108 412.603 194.92 416.575C197.732 420.554 217.137 412.473 223.123 410.139Z" fill="#273150"/>
<path d="M224.952 391.758C224.952 391.758 241.955 392.167 239.402 381.342C236.849 370.517 234.29 354.47 230.938 348.471C230.938 348.471 230.413 337.1 229.327 330.991C228.249 324.889 226.638 324.616 224.495 327.564C222.352 330.513 219.512 340.56 219.512 340.56C219.512 340.56 205.227 334.84 193.719 339.816C193.719 339.816 207.063 340.157 212.25 345.133C217.437 350.109 223.888 370.483 223.888 370.483C223.888 370.483 209.267 388.284 210.148 389.533C212.953 393.512 224.952 391.758 224.952 391.758Z" fill="#1D2538"/>
<path d="M198.115 342.785C198.115 342.785 196.449 335.004 195.248 329.838C193.897 324.029 191.078 327.367 189.91 332.752C188.689 338.397 188.034 344.191 188.013 346.246C187.999 348.3 198.517 347.809 198.115 342.785Z" fill="#273150"/>
<path d="M195.813 355.925C196.706 353.378 196.051 350.83 194.35 350.234C192.65 349.639 190.548 351.22 189.655 353.767C188.763 356.314 189.418 358.862 191.118 359.458C192.818 360.054 194.92 358.472 195.813 355.925Z" fill="#121721"/>
<path d="M152.582 371.438C152.152 374.96 153.94 376.578 154.834 378.564C156.056 381.274 163.503 376.203 163.94 372.681C164.37 369.159 164.411 364.204 160.206 364.982C157.278 365.528 153.012 367.917 152.582 371.438Z" fill="#121721"/>
<path d="M206.251 393.034C206.251 393.034 190.054 401.354 189.037 397.546C180.928 396.447 167.857 392.215 167.857 392.215L189.774 392.202L206.251 393.034Z" fill="#1D2538"/>
<path d="M283.092 403.457C282.47 401.437 280.593 390.42 278.191 386.502C275.795 382.585 269.748 373.582 262.513 373.841C262.513 373.841 266.67 368.62 279.679 374.974C292.688 381.322 294.511 400.351 294.654 401.962C295.282 409.156 284.859 409.218 283.092 403.457Z" fill="#1D2538"/>
<path d="M192.886 500.842C194.047 497.45 198.606 493.846 198.606 493.846C199.043 493.082 200.558 491.546 200.674 490.816C201.582 485.233 204.06 469.998 204.203 467.561C204.51 462.497 202.265 447.413 202.681 435.816C203.097 424.22 220.727 433.339 221.54 444.539C222.12 452.525 216.564 485.205 215.984 488.4L211.677 498.843C210.086 501.068 205.67 502.651 201.131 502.87C196.599 503.074 191.753 504.16 192.886 500.842Z" fill="#1D2538"/>
<path d="M270.499 436.676C266.103 435.222 259.271 439.011 259.196 445.242C259.134 450.546 283.249 471.507 283.249 471.507L284.6 475.779C284.6 475.779 281.201 479.704 282.655 481.813C282.996 482.311 287.644 481.492 291.391 480.741C294.135 480.189 296.087 478.878 296.08 477.561L296.067 475.902L297.486 469.609L280.887 452.334C280.894 452.341 276.505 438.669 270.499 436.676Z" fill="#1D2538"/>
<path d="M208.919 393.219C208.919 393.219 227.116 380.209 243.094 387.362C257.38 393.758 263.892 394.836 279.822 395.075C289.828 395.225 296.702 430.431 294.627 437.284C290.873 450.088 246.678 451.221 241.013 451.413C224.318 451.979 210.359 443.434 203.473 440.171C197.296 437.243 188.197 420.275 195.924 407.354C198.872 402.426 202.271 397.089 208.919 393.219Z" fill="#273150"/>
<path d="M213.458 394.536C223.853 386.243 227.109 380.216 243.094 387.362C257.38 393.758 268.192 395.048 284.115 395.532C302.141 396.085 299.718 426.377 294.422 439.359C290.402 449.215 246.678 451.221 241.019 451.412C241.019 451.412 256.308 441.516 255.558 434.479C254.814 427.441 237.272 417.101 237.272 417.101C228.822 408.521 209.773 397.478 213.458 394.536Z" fill="#1D2538"/>
<path d="M223.048 499.716C223.028 496.652 230.576 489.246 230.529 488.495C229.757 475.827 226.577 463.835 226.072 460.948C225.041 455.023 218.338 444.983 216.031 432.179C213.806 419.838 235.798 425.892 238.678 440.117C240.337 448.321 244.432 476.517 245.483 484.216C245.633 485.301 245.565 486.4 245.285 487.465L240.897 496.816C240.385 499.498 236.139 501.805 230.945 502.112C225.751 502.419 223.082 503.887 223.048 499.716Z" fill="#273150"/>
<path d="M294.852 423.974C289.364 418.971 277.16 425.544 274.935 427.578C272.601 429.715 282.798 443.14 283.31 445.017C283.842 446.976 306.435 459.433 311.021 463.077C315.983 467.023 311.834 472.442 314.796 474.135C316.297 474.995 328.822 472.367 328.024 467.453C327.273 462.811 322.345 455.501 322.222 455.133C321.983 454.416 302.585 439.366 302.121 438.431C301.677 437.516 296.476 425.462 294.852 423.974Z" fill="#1D2538"/>
<path d="M240.023 381.868C240.023 381.868 243.32 385.369 244.152 388.455C244.152 388.455 234.112 395.71 216.011 404.337C206.312 408.958 191.33 413.204 191.33 413.204L189.153 405.075C189.16 405.068 219.765 397.034 240.023 381.868Z" fill="#992C29"/>
<path d="M189.269 405.157C189.269 405.157 184.006 415.948 184.853 421.374L198.429 425.722C198.429 425.722 193.159 409.928 189.269 405.157Z" fill="#C93F37"/>
<path d="M189.269 405.156C193.282 409.149 198.429 425.721 198.429 425.721C198.429 425.721 191.351 420.084 190.627 417.913C189.904 415.743 189.269 405.156 189.269 405.156Z" fill="#992C29"/>
<path d="M191.392 410.528C191.392 410.528 201.104 419.053 205.445 420.118L206.571 412.91C206.578 412.91 199.541 409.354 191.392 410.528Z" fill="#992C29"/>
<path d="M418.182 281.759L354.602 278.019C336.57 275.609 336.754 250.942 337.157 232.582L337.982 168.716C338.351 150.888 348.494 138.711 366.513 138.711H418.796C439.013 138.711 451.21 150.806 451.21 170.484L456.199 251.42C456.199 271.93 438.979 284.585 418.182 281.759Z" fill="#634874"/>
<path d="M351.981 157.918C357.858 144.356 341.62 132.002 326.147 126.671C304.182 119.108 301.582 115.074 292.579 110.392C281.522 104.638 272.144 102.522 265.441 107.566C258.745 112.611 257.292 121.347 261.257 125.156C270.615 134.158 275.079 136.165 286.989 144.677C308.803 160.259 320.454 163.644 327.505 168.361C339.32 176.272 344.951 174.142 351.981 157.918Z" fill="#A86243"/>
<path d="M356.575 160C362.451 146.437 275.072 136.165 286.982 144.67C308.796 160.252 320.447 163.638 327.498 168.354C339.32 176.272 349.551 176.224 356.575 160Z" fill="#D77E5B"/>
<path d="M278.553 90.728C273.802 97.5875 266.233 109.382 272.642 115.798C277.263 120.419 275.277 125.053 282.109 121.736C289.787 118.002 294.538 100.55 294.743 100.133C298.353 92.8234 283.358 83.8001 278.553 90.728Z" fill="#7A4630"/>
<path d="M306.203 51.9934C306.203 51.9934 275.147 75.2955 266.99 84.4212C258.923 93.4513 251.899 104.468 256.575 116.876C259.414 124.412 262.677 129.51 272.778 126.234C284.375 122.473 293.303 106.072 297.978 95.6286C304.251 81.6432 312.305 74.5857 317.062 69.7055C323.164 63.4465 322.693 43.68 306.203 51.9934Z" fill="#A86243"/>
<path d="M349.995 47.168L350.548 56.5734L344.466 58.232L339.668 50.1643L349.995 47.168Z" fill="#273150"/>
<path d="M300.558 63.8359L307.67 52.4783C307.67 52.4783 322.645 46.8746 331.279 46.2398C339.914 45.6051 344.814 49.6662 344.814 49.6662L345.545 66.3135C345.627 68.1905 344.384 69.8969 342.685 70.2518L340.03 70.8047L335.941 70.6067L335.784 72.8386C335.709 73.958 334.993 74.9341 334.003 75.2753L328.645 77.1114L320.673 78.8519C320.673 78.8519 314.659 77.3298 315.294 73.3164C315.929 69.3031 304.196 76.9749 300.558 63.8359Z" fill="#A86243"/>
<path d="M291.542 63.2146L297.405 73.1729L312.148 68.4156C313.424 68.0061 314.12 66.2519 313.622 64.6957C313.055 62.9211 311.506 62.0133 310.073 62.6071L300.012 65.4192L298.06 60.9895L291.542 63.2146Z" fill="#273150"/>
<path d="M280.744 27.654C265.782 33.2645 201.582 52.5874 201.582 52.5874C201.166 55.7066 201.998 68.791 204.285 70.2448C204.285 70.2448 213.636 82.7081 270.144 70.6612C336.119 56.5939 403.773 28.8211 403.773 28.8211L402.694 10.8224C402.701 10.8292 295.698 22.0434 280.744 27.654Z" fill="#B44C29"/>
<path d="M276.375 17.4773C261.278 22.7056 209.889 38.9843 202.408 50.4101C196.565 59.3378 216.537 67.5488 288.839 50.7241C361.141 33.8993 389.815 18.8287 400.408 13.8462C411.001 8.85674 386.381 2.42034 340.781 0.0314288C330.338 -0.521433 308.79 6.25624 276.375 17.4773Z" fill="#F08650"/>
<path d="M204.49 57.7817L228.59 49.4683L207.814 60.6893L204.49 57.7817Z" fill="#B44C29"/>
<path d="M341.354 0.700195L300.995 13.9484C301.002 13.9416 341.272 2.45434 341.354 0.700195Z" fill="#B44C29"/>
<path d="M258.616 45.4207C265.161 42.3014 237.6 50.7855 223.71 56.6417C223.71 56.6417 252.07 48.5331 258.616 45.4207Z" fill="#B44C29"/>
<path d="M374.239 25.7838L371.12 22.0435L381.713 23.6065L374.239 25.7838Z" fill="#B44C29"/>
<path d="M263.291 57.8838L267.967 52.9012L273.57 56.9487L263.291 57.8838Z" fill="#B44C29"/>
<path d="M316.55 21.8185C318.332 24.4258 314.168 28.5688 304.94 31.7905C291.692 36.4113 273.973 37.3669 271.837 32.0157C269.823 26.9649 284.068 21.0472 297.678 19.3067C307.397 18.0577 314.817 19.2862 316.55 21.8185Z" fill="#B44C29"/>
<path d="M315.697 19.6342C317.192 21.5317 312.912 25.0809 303.882 28.2957C290.921 32.9097 273.987 35.0188 272.369 31.0122C270.84 27.2309 284.846 21.5249 297.93 19.1223C307.274 17.4091 314.243 17.7913 315.697 19.6342Z" fill="#F08650"/>
<path d="M420.434 140.213C423.089 130.91 437.429 136.493 444.589 140.991C455.981 148.137 454.786 153.447 462.506 157.474C476.45 164.75 515.035 191.397 504.503 203.526C493.978 215.654 476.307 204.87 462.519 196.277C452.65 190.127 435.136 176.954 425.28 167.31C421.178 163.296 417.779 149.516 420.434 140.213Z" fill="#A86243"/>
<path d="M502.094 221.32C507.172 212.999 512.386 205.505 505.493 197.171C494.695 184.128 486.224 191.267 478.969 200.202C471.836 208.993 471.87 211.928 465.359 220.774C458.8 229.681 446.179 242.478 446.179 242.478C446.179 242.478 435.498 252.034 440.589 259.208C445.961 266.784 449.756 266.866 455.701 263.624C464.376 258.901 498.271 227.585 502.094 221.32Z" fill="#A86243"/>
<path d="M333.593 449.884C333.436 449.938 333.279 450.013 333.129 450.095C330.87 451.337 312.421 461.316 310.277 463.992C308.523 466.183 309.643 474.257 310.257 477.888C310.448 479.015 311.233 479.936 312.311 480.311C316.68 481.82 328.187 485.833 339.347 484.707C353.339 483.294 352.909 478.025 363.325 473.042C370.137 469.787 374.287 467.684 376.348 466.626C377.338 466.114 377.768 465.125 377.822 464.012L378.396 451.808C378.464 450.279 377.617 448.921 376.116 448.621C369.174 447.201 349.619 444.102 333.593 449.884Z" fill="#29ACE4"/>
<path d="M333.354 449.973C333.354 449.973 312.154 461.549 309.875 464.395C307.595 467.241 309.759 477.056 309.759 477.056C309.759 477.056 324.932 483.09 338.924 481.677C352.916 480.264 352.909 475.602 363.325 470.62C371.393 466.763 375.727 464.531 377.269 463.719C377.686 463.501 377.952 463.084 377.972 462.62L378.607 451.017C378.669 449.952 377.945 449.003 376.908 448.785C370.772 447.468 350.09 443.83 333.354 449.973Z" fill="#13161F"/>
<path d="M323.021 455.467C323.021 455.467 333.614 451.727 344.002 456.504" stroke="#29ACE4" stroke-width="2" stroke-miterlimit="10" stroke-linecap="round" stroke-linejoin="round"/>
<path d="M330.706 450.894C330.706 450.894 341.299 447.153 351.687 451.931" stroke="#29ACE4" stroke-width="2" stroke-miterlimit="10" stroke-linecap="round" stroke-linejoin="round"/>
<path d="M446.52 450.341C458.267 454.45 475.303 458.443 476.102 463.698C476.901 468.913 477.453 474.414 476.996 476.366C476.648 477.841 476.02 478.721 474.887 479.206C472 480.441 466.239 483.403 454.588 484.564C449.558 485.069 438.514 482.366 431.777 477.376C426.426 473.411 420.004 468.797 417.594 467.07C416.966 466.619 416.55 465.937 416.441 465.173L415.56 459.262C415.383 458.054 415.99 456.859 417.082 456.306C422.195 453.713 436.938 446.99 446.52 450.341Z" fill="#29ACE4"/>
<path d="M451.257 447.918C461.516 451.788 475.556 457.637 476.355 463.439C477.071 468.667 477.392 471.541 477.249 473.541C477.18 474.517 474.819 474.981 473.665 475.466C470.73 476.701 464.867 479.67 453.025 480.844C447.906 481.349 437.859 479.841 431.02 474.858C425.321 470.708 418.434 465.848 416.291 464.34C415.861 464.04 415.574 463.576 415.485 463.057L414.625 457.958C414.257 455.76 415.506 453.617 417.601 452.866C425.218 450.116 442.132 444.478 451.257 447.918Z" fill="#13161F"/>
<path d="M444.773 458.996C444.773 458.996 454.329 450.273 465.133 453.597" stroke="#29ACE4" stroke-width="2" stroke-miterlimit="10" stroke-linecap="round" stroke-linejoin="round"/>
<path d="M438.125 454.839C438.125 454.839 448.097 446.942 458.902 450.266" stroke="#29ACE4" stroke-width="2" stroke-miterlimit="10" stroke-linecap="round" stroke-linejoin="round"/>
<path d="M443.108 276.162C443.108 276.162 446.186 316.931 451.831 349.713C454.875 367.391 457.728 399.041 459.53 422.09C460.745 437.625 461.741 449.344 461.018 449.877C459.236 451.201 450.629 448.628 434.903 452.566C419.382 456.457 412.994 458.702 412.994 458.702L410.557 451.208C410.557 451.208 409.096 447.72 411.008 433.339C411.574 429.086 406.708 422.486 406.011 417.067C401.575 382.339 395.159 329.285 391.985 293.615C387.146 239.12 432.951 230.513 443.108 276.162Z" fill="#F6BE4A"/>
<path opacity="0.5" d="M443.108 276.162C443.108 276.162 446.186 316.931 451.831 349.713C455.305 369.889 458.035 404.337 460.376 428.315C460.868 433.346 462.704 433.769 463.045 437.659C463.454 442.348 462.765 449.085 460.738 450.15C458.54 451.303 450.636 448.628 434.91 452.566C419.389 456.457 413.001 458.702 413.001 458.702L410.564 451.208C409.8 447.652 409.683 445.884 411.014 433.339C411.465 429.134 406.673 422.186 406.018 417.067C401.582 382.209 395.077 328.309 391.992 293.615C387.146 239.12 432.951 230.513 443.108 276.162Z" fill="#F6BE4A"/>
<path d="M339.381 273.841C339.381 273.841 337.156 320.336 335.975 348.041C335.122 367.964 332.453 449.808 332.453 449.808C332.453 449.808 335.962 448.457 350.848 448.921L372.212 458.415C372.212 458.415 377.003 459.712 378.266 458.989C379.529 458.272 382.955 454.907 383.289 446.73C384.354 420.732 384.552 364.074 384.163 359.876C383.808 356.088 384.17 312.316 387.023 279.868C388.272 265.651 381.72 253.747 362.922 248.894C344.876 244.239 339.852 259.528 339.381 273.841Z" fill="#F6BE4A"/>
<path d="M451.837 349.713C455.277 369.698 457.994 403.668 460.315 427.619C460.485 429.346 462.704 433.707 462.867 435.318C463.796 444.471 462.151 450.245 460.349 450.621C458.54 450.989 450.643 448.628 434.917 452.566C419.396 456.456 413.007 458.702 413.007 458.702L410.571 451.208C410.571 451.208 426.133 428.977 434.385 414.534C436.876 410.173 446.479 397.218 449.032 379.943C451.421 363.78 450.452 341.686 451.837 349.713Z" fill="#F6BE4A"/>
<path d="M390.545 298.604C418.199 298.604 440.616 282.21 440.616 261.986C440.616 241.762 418.199 225.367 390.545 225.367C362.891 225.367 340.473 241.762 340.473 261.986C340.473 282.21 362.891 298.604 390.545 298.604Z" fill="#F6BE4A"/>
<path opacity="0.5" d="M390.545 298.604C418.199 298.604 440.616 282.21 440.616 261.986C440.616 241.762 418.199 225.367 390.545 225.367C362.891 225.367 340.473 241.762 340.473 261.986C340.473 282.21 362.891 298.604 390.545 298.604Z" fill="#F6BE4A"/>
<path d="M383.064 261.515C384.368 253.822 378.751 258.648 374.389 261.201C371.167 263.091 368.615 264.511 371.618 266.682C376.45 270.176 382.218 266.518 383.064 261.515Z" stroke="#FEED7F" stroke-width="3" stroke-miterlimit="10"/>
<path d="M383.897 260.58C383.897 260.58 390.129 267.746 395.739 268.681C401.35 269.617 400.414 261.201 396.674 259.645C392.934 258.088 386.081 258.088 383.897 260.58Z" stroke="#FEED7F" stroke-width="3" stroke-miterlimit="10"/>
<path d="M384.211 259.959C384.211 259.959 391.999 267.596 392.313 278.189" stroke="#FEED7F" stroke-width="3" stroke-miterlimit="10"/>
<path d="M382.962 275.384C382.962 275.384 383.74 263.699 384.211 259.959" stroke="#FEED7F" stroke-width="3" stroke-miterlimit="10"/>
<path d="M437.606 406.692C444.664 399.396 451.094 381.991 450.588 373.397C450.588 373.397 424.065 411.654 423.164 413.285C420.652 417.852 437.333 406.979 437.606 406.692Z" fill="#F6BE4A"/>
<path d="M353.906 135.08C353.906 135.08 349.299 136.151 347.907 150.662C347.286 157.126 341.962 187.001 342.344 207.648C342.794 231.851 340.726 264.572 340.726 264.572C340.726 264.572 357.599 259.597 382.491 257.685C407.39 255.774 437.579 266.122 437.579 266.122C447.217 267.712 437.033 238.54 434.822 227.428C432.235 214.426 435.887 190.905 433.744 173.37C430.515 147.004 426.004 141.707 425.464 139.544C424.283 134.793 409.015 134.65 398.722 133.175C383.665 131.032 364.977 133.483 353.906 135.08Z" fill="#29ACE4"/>
<path d="M341.511 170.279C341.511 170.279 388.259 157.372 424.72 168.019L426.59 177.698C426.59 177.698 383.897 162.211 340.262 179.636L341.511 170.279Z" fill="#3D4C6D"/>
<path d="M339.955 181.896C339.955 181.896 388.259 168.668 424.72 179.316L426.59 188.994C426.59 188.994 384.204 174.476 340.576 191.895L339.955 181.896Z" fill="#3D4C6D"/>
<path opacity="0.5" d="M353.906 135.08C353.906 135.08 349.299 136.151 347.907 150.662C347.285 157.126 341.962 187.001 342.344 207.648C365.584 171.992 421.464 256.894 440.617 258.559C445.913 259.016 434.542 238.697 433.969 218.985C433.3 195.949 436.774 175.759 436.774 175.759C433.546 149.393 426.01 141.721 425.471 139.55C424.29 134.8 409.022 134.657 398.729 133.182C383.665 131.032 364.977 133.483 353.906 135.08Z" fill="#29ACE4"/>
<path d="M408.831 134.309C409.534 134.268 408.831 135.926 408.831 135.926C403.896 140.404 392.334 147.373 382.048 147.373C371.898 147.373 363.353 146.731 361.148 140.219C360.199 137.414 364.684 133.722 364.684 133.722C364.684 133.722 372.744 132.343 382.034 132.056C391.098 131.77 408.128 134.35 408.831 134.309Z" fill="#7A4630"/>
<path d="M381.686 138.254C373.529 137.994 373.782 131.694 373.843 127.742L374.649 114.842C374.697 111.703 377.98 109.102 383.058 109.252L391.828 109.389C396.756 109.539 399.173 112.249 399.623 115.293C399.623 115.293 401.07 128.889 400.565 133.128C400.046 137.428 389.849 138.506 381.686 138.254Z" fill="#7A4630"/>
<path d="M439.443 164.682C439.443 164.682 441.716 193.287 437.791 189.643C423.485 176.347 425.69 151.502 426.788 144.861C427.887 138.22 431.02 135.674 435.313 138.561C441.92 142.984 439.443 164.682 439.443 164.682Z" fill="#A86243"/>
<path d="M348.862 131.237C352.643 131.353 357.647 132.493 356.752 134.465C354.049 140.438 349.797 155.276 347.572 167.665C344.965 182.175 342.624 195.383 341.497 205.382C340.979 209.996 336.945 213.648 333.355 211.068C332.338 210.337 331.573 209.313 331.334 207.887C330.399 202.174 327.15 177.288 340.549 136.499C342.207 131.462 344.883 131.114 348.862 131.237Z" fill="#634874"/>
<path d="M432.221 134.472C429.73 132.534 419.335 130.411 415.479 131.599C411.622 132.786 412.748 149.782 417.554 168.989C422.202 187.554 429.389 211.62 433.225 215.866C433.982 216.698 435.047 217.128 436.146 217.053C438.453 216.89 442.125 216.084 441.934 212.596C441.661 207.539 437.614 185.206 434.481 160.928C431.819 140.233 434.638 136.349 432.221 134.472Z" fill="#634874"/>
<path d="M445.149 269.951C447.265 270.62 449.606 270.081 451.162 268.497C454.855 264.75 456.377 259.133 455.872 253.113C455.251 245.632 446.214 242.827 440.392 241.585C435.784 240.595 431.962 239.612 430.57 239.243C430.215 239.148 429.833 239.23 429.546 239.462L413.008 252.853C412.721 253.086 412.564 253.44 412.585 253.809L412.912 260.027C412.946 260.641 413.452 261.119 414.066 261.119C415.076 261.119 415.595 262.32 414.912 263.058L414.537 263.46C414.216 263.801 414.141 264.307 414.332 264.73L415.977 268.286C416.264 268.9 417.008 269.139 417.595 268.805L418.646 268.204C419.096 267.945 419.663 268.02 420.031 268.388L422.993 271.35C423.335 271.692 423.854 271.787 424.29 271.583L427.84 269.944C428.42 269.678 429.095 269.931 429.368 270.511C429.744 271.303 430.399 272.326 431.457 272.852C433.082 273.664 439.962 270.163 441.736 269.235C442.009 269.091 442.323 269.064 442.617 269.159L445.149 269.951Z" fill="#A86243"/>
<path d="M429.048 239.872L413.015 252.847C412.728 253.079 412.571 253.434 412.591 253.803L412.919 260.021C412.953 260.635 413.458 261.113 414.073 261.113C415.083 261.113 415.601 262.314 414.919 263.051L414.544 263.454C414.223 263.795 414.148 264.3 414.339 264.723L415.984 268.279C416.27 268.894 417.014 269.133 417.601 268.798L418.652 268.197C419.103 267.938 419.669 268.013 420.038 268.382L423 271.344C423.342 271.685 423.86 271.781 424.297 271.576L427.846 269.938C428.426 269.672 429.102 269.924 429.375 270.504C429.751 271.296 430.406 272.32 431.464 272.846C433.013 273.624 439.354 270.463 441.47 269.365C441.886 269.146 442.132 268.696 442.084 268.225L441.531 262.655C441.361 260.928 440.576 259.311 439.32 258.109L437.204 256.082C435.825 254.765 435.02 252.963 434.958 251.059L434.856 248.083C434.808 246.677 434.358 245.312 433.552 244.158L430.713 240.09C430.331 239.558 429.566 239.449 429.048 239.872Z" fill="#D77E5B"/>
<path d="M414.536 90.5507C413.635 114.699 408.598 122.275 392.531 122.548C380.382 122.753 370.526 108.222 370.526 90.5507C370.526 72.8796 380.382 58.553 392.531 58.553C404.68 58.553 415.342 68.8116 414.536 90.5507Z" fill="#273150"/>
<path d="M407.759 85.0765C407.643 69.2346 405.916 60.1704 388.395 58.8804C379.249 58.2115 370.246 59.0442 364.942 61.788C360.151 64.2725 357.257 68.1357 355.585 78.5309C354.322 86.3597 352.547 99.9014 355.168 113.013C356.847 121.415 367.625 124.596 377.126 125.251C401.657 126.944 405.424 120.426 406.953 108.863C409.014 93.2125 407.799 91.5812 407.759 85.0765Z" fill="#7A4630"/>
<path d="M404.585 94.6664C404.435 80.9336 398.79 74.9682 383.016 73.801C374.785 73.1935 358.567 77.4321 357.81 86.5237C356.998 96.366 355.817 104.939 357.564 113.457C359.066 120.781 366.922 123.347 375.481 123.948C397.568 125.49 402.598 118.01 403.902 107.99C405.015 99.4579 404.646 100.304 404.585 94.6664Z" fill="#A96344"/>
<path d="M361.175 61.5561C359.707 62.4434 359.141 63.3239 358.103 68.989C357.885 70.1834 360.083 65.5694 362.062 63.7675C364.041 61.9656 363.584 64.3818 373.945 64.1293C384.306 63.8767 398.995 62.0953 398.995 62.0953L400.435 76.4151L405.786 88.8511L409.014 81.9847C409.499 69.7944 407.301 62.6959 399.295 60.0067C384.641 55.0787 366.56 58.2935 361.175 61.5561Z" fill="#273150"/>
<path d="M387.159 74.0809C386.975 76.4971 385.835 78.3605 384.607 78.2649C383.378 78.1694 382.518 76.1558 382.675 73.7396C382.832 71.2961 383.979 69.3645 385.235 69.4601C386.484 69.5556 387.344 71.6374 387.159 74.0809Z" fill="#102342"/>
<path d="M382.156 69.269L388.333 67.3101" stroke="#273150" stroke-miterlimit="10" stroke-linecap="round" stroke-linejoin="round"/>
<path d="M369.829 74.6881C369.748 76.9678 368.751 78.7219 367.604 78.6332C366.451 78.5445 365.564 76.647 365.618 74.3673C365.673 72.0671 366.669 70.2515 367.843 70.3403C369.024 70.429 369.911 72.3879 369.829 74.6881Z" fill="#102342"/>
<path d="M369.229 69.2688L363.68 67.6853" stroke="#273150" stroke-miterlimit="10" stroke-linecap="round" stroke-linejoin="round"/>
<path d="M415.601 95.4443C413.99 101.976 409.363 106.563 405.219 105.894C405.219 105.894 405.349 91.0828 405.288 88.2571C405.247 86.4825 406.271 81.0085 410.687 81.732C415.089 82.4486 417.266 88.6871 415.601 95.4443Z" fill="#7A4630"/>
<path d="M413.267 100.106C413.035 101.683 411.54 102.836 409.929 102.707C408.318 102.577 407.172 101.205 407.383 99.6284C407.588 98.0381 409.09 96.8505 410.728 96.9801C412.359 97.1167 413.499 98.5227 413.267 100.106Z" fill="#E2D6C9"/>
<path d="M478.689 228.002C478.689 228.002 460.983 228.295 452.731 225.094C444.479 221.9 446.807 187.895 463.215 183.418C481.965 178.299 504.496 189.233 516.959 198.024C529.422 206.815 524.358 219.961 506.325 226.159C488.026 232.445 478.689 228.002 478.689 228.002Z" fill="#1689CB"/>
<path d="M517.273 212.023C517.273 220.76 484.135 221.204 474.027 221.204C463.925 221.204 455.735 214.119 455.735 205.382C455.735 196.646 463.925 189.561 474.027 189.561C484.129 189.554 517.273 203.287 517.273 212.023Z" fill="#992C29"/>
<path d="M510.529 217.531C510.529 217.531 555.509 232.841 581.692 271.07C604.106 303.805 635.708 282.708 654.41 291.431C673.112 300.154 561.591 321.435 542.322 326.65C519.259 332.882 451.011 255.863 463.789 234.677C479.228 209.061 510.529 217.531 510.529 217.531Z" fill="#1689CB"/>
<path d="M521.437 227.544C521.662 228.602 545.878 239.011 561.222 262.866C593.841 313.559 634.357 280.735 653.052 289.458C671.747 298.181 666.348 320.684 666.348 320.684C666.348 320.684 635.183 311.962 627.702 336.888C620.221 361.815 555.359 365.343 536.091 370.551C513.028 376.783 459.994 367.453 459.994 367.453C459.994 367.453 439.975 282.714 465.243 226.295C469.706 216.323 501.185 218.815 501.185 218.815L521.437 227.544Z" fill="#992C29"/>
<path d="M484.354 153.563C484.354 153.563 476.068 150.799 467.782 161.849C461.271 170.531 457.96 178.422 464.404 189.158C466.226 192.195 458.882 192.844 463.482 205.73C468.301 219.224 495.705 219.845 504.913 213.402C504.913 213.402 522.713 228.439 542.657 217.695C556.076 210.467 537.75 191.301 537.75 191.301C537.75 191.301 547.326 170.449 525.232 149.891C509.499 135.257 492.64 145.277 484.354 153.563Z" fill="#273150"/>
<path d="M478.007 176.858C483.853 176.858 488.593 168.822 488.593 158.908C488.593 148.993 483.853 140.957 478.007 140.957C472.16 140.957 467.42 148.993 467.42 158.908C467.42 168.822 472.16 176.858 478.007 176.858Z" fill="#273150"/>
<path d="M500.789 150.185C503.883 142.935 502.79 135.521 498.348 133.626C493.907 131.731 487.798 136.072 484.705 143.322C481.611 150.572 482.703 157.986 487.145 159.881C491.587 161.776 497.695 157.435 500.789 150.185Z" fill="#273150"/>
<path d="M482.109 158.102C482.109 158.102 475.215 153.638 467.509 162.709C459.803 171.78 458.568 179.807 464.124 189.062C465.693 191.683 459.168 194.154 463.134 205.266C465.345 211.45 475.481 213.982 474.833 212.829C474.184 211.675 474.744 208.419 474.744 208.419C481.713 212.583 493.105 215.033 505.124 214.091C511.875 218.139 524.324 217.729 532.371 213.395C543.941 207.17 528.14 190.646 528.14 190.646C528.14 190.646 536.398 172.674 517.349 154.949C503.786 142.315 489.255 150.956 482.109 158.102Z" fill="#3D4C6D"/>
<path d="M480.962 159.269C480.962 167.815 481.685 178.183 476.641 178.183C471.604 178.183 467.516 171.255 467.516 162.709C467.516 154.164 471.604 147.236 476.641 147.236C481.679 147.236 480.962 150.724 480.962 159.269Z" fill="#3D4C6D"/>
<path d="M494.19 150.089C491.521 156.334 488.34 165.207 484.511 163.569C480.682 161.938 479.74 155.543 482.402 149.297C485.071 143.052 490.333 139.312 494.162 140.943C497.992 142.581 496.859 143.844 494.19 150.089Z" fill="#3D4C6D"/>
<path d="M519.389 217.681C519.389 217.681 527.129 215.525 528.392 209.941C528.392 209.941 531.095 218.043 519.389 217.681Z" fill="#273150"/>
<path d="M527.921 236.636C527.921 236.636 540.753 261.815 544.404 268.149C548.056 274.476 538.262 281.848 531.873 280.135C525.484 278.421 513.301 248.758 510.243 242.479C507.178 236.192 519.84 226.33 527.921 236.636Z" fill="#F6874E"/>
<path d="M529.695 239.728C529.695 239.728 517.942 216.255 510.031 217.497C502.1 218.74 502.257 222.316 503.943 229.224C506.441 239.462 513.28 253.167 513.28 253.167C513.28 253.167 520.085 242.363 529.695 239.728Z" fill="#C93F37"/>
<path d="M560.396 266.709C560.396 266.709 544.5 265.672 540.76 264.423C537.019 263.173 523.771 269.255 529.231 278.135C533.695 285.404 558.11 282.599 562.267 280.94C566.423 279.282 568.184 268.163 560.396 266.709Z" fill="#F6874E"/>
<path d="M601.431 99.349C601.431 99.349 576.327 230.152 576.027 232.186C575.726 234.22 575.46 236.049 575.46 236.049C575.044 236.998 574.027 237.155 570.307 236.302L554.369 233.531L576.614 94.5098C576.723 93.7999 590.053 81.8963 590.053 81.8963C590.497 81.8554 591.056 81.2138 592.176 82.5311L601.151 96.8714C601.684 97.9634 601.54 98.7757 601.431 99.349Z" fill="#F6BE4A"/>
<path d="M601.431 99.3491C601.431 99.3491 576.327 230.152 576.027 232.186C575.727 234.22 575.46 236.049 575.46 236.049C575.044 236.998 576.805 237.21 573.092 236.35L598.646 97.9021C598.646 97.9021 591.057 81.2071 592.183 82.5244L601.158 96.8647C601.684 97.9636 601.54 98.7758 601.431 99.3491Z" fill="#F6874E"/>
<path d="M587.978 164.116L589.282 158.806C589.446 158.423 588.729 158.198 587.985 158.403L582.934 159.795C582.484 159.918 582.272 160.198 582.463 160.41L586.92 164.505C587.241 164.86 587.801 164.505 587.978 164.116Z" fill="#F6874E"/>
<path d="M571.31 127.354L574.907 124.89L572.225 121.928L571.31 127.354Z" fill="#F6874E"/>
<path d="M595.732 120.686L591.486 116.604L596.79 116.263L595.732 120.686Z" fill="#F6874E"/>
<path d="M591.036 81.9167L563.693 234.677" stroke="#F4E8D8" stroke-miterlimit="10"/>
<path d="M567.379 152.246L570.669 152.82L573.522 148.765L571.502 144.711L578.539 138.261L581.228 135.735" stroke="#F4E8D8" stroke-miterlimit="10"/>
<path d="M558.042 286.155C557.973 286.366 556.39 287.11 553.551 286.359C550.22 285.479 550.513 283.192 550.513 283.192L556.144 234.541L571.679 237.032L558.042 286.155Z" fill="#1D2538"/>
<path d="M551.046 300.864C555.591 302.031 559.851 298.686 560.465 293.635C561.052 288.837 558.096 284.346 553.94 283.384C549.831 282.435 545.79 285.24 544.828 289.84C543.817 294.68 546.554 299.71 551.046 300.864ZM553.476 288.079C555.032 288.626 556.178 290.776 556.028 292.926C555.878 295.123 554.431 296.461 552.813 295.867C551.21 295.274 550.09 293.021 550.309 290.871C550.52 288.769 551.933 287.533 553.476 288.079Z" fill="#1D2538"/>
<path d="M550.616 297.73C553.189 298.44 555.619 296.509 556.008 293.512C556.083 292.925 556.069 292.338 555.987 291.779C556.042 292.154 556.056 292.543 556.028 292.932C555.878 295.13 554.431 296.468 552.814 295.874C551.21 295.28 550.09 293.028 550.309 290.878C550.52 288.775 551.933 287.547 553.476 288.086C554.438 288.427 555.243 289.376 555.68 290.564C555.086 288.898 553.824 287.574 552.24 287.171C549.817 286.55 547.469 288.277 546.957 291.11C546.439 294.024 548.056 297.027 550.616 297.73Z" fill="#F6BE4A"/>
<path d="M555.94 291.506C555.933 291.458 555.926 291.403 555.912 291.355C555.926 291.41 555.933 291.458 555.94 291.506Z" fill="#F6BE4A"/>
<path d="M555.803 290.926C555.783 290.851 555.755 290.776 555.728 290.694C555.755 290.769 555.783 290.844 555.803 290.926Z" fill="#F6BE4A"/>
<path d="M555.742 286.284C555.83 286.284 555.919 286.318 555.994 286.373C556.554 286.81 557.004 287.288 557.325 287.806C557.448 287.997 557.366 288.257 557.154 288.38C556.943 288.503 556.67 288.448 556.554 288.257C556.281 287.82 555.892 287.404 555.407 287.028C555.223 286.885 555.209 286.626 555.373 286.448C555.462 286.332 555.605 286.277 555.742 286.284Z" fill="#F4E8D8"/>
<path d="M557.257 266.34C554.397 266.34 552.39 267.241 552.39 267.241L555.202 243.468C555.393 240.902 556.021 233.449 556.021 233.449C556.021 233.449 570.689 235.578 572.539 236.131C572.539 236.131 570.539 244.226 569.863 246.513L563.7 267.166C563.7 267.173 560.117 266.34 557.257 266.34Z" fill="#C73F37"/>
<path d="M565.652 260.621L564.785 263.481C564.785 263.481 559.837 263.064 553.885 263.064C553.892 263.064 555.687 261.358 565.652 260.621Z" fill="#1D2538"/>
<path d="M552.377 267.426C552.377 267.426 560.553 267.358 563.236 268.743L562.192 272.142C562.192 272.142 553.851 269.822 552.097 269.822L552.377 267.426Z" fill="#C73F37"/>
<path d="M553.38 258.901L553.496 257.966C553.496 257.966 559.741 257.611 563.891 258.928L553.38 258.901Z" fill="#1D2538"/>
<path d="M566.969 255.795L567.734 253.372C567.734 253.372 559.427 251.57 553.96 253.72C553.96 253.72 563.994 253.372 566.969 255.795Z" fill="#1D2538"/>
<path d="M569.864 246.519L568.614 250.649C568.614 250.649 560.458 247.339 554.547 248.444L555.407 240.998C555.407 240.998 561.591 243.496 569.864 246.519Z" fill="#1D2538"/>
<path d="M571.147 241.557L571.754 239.401C571.754 239.401 563.993 235.687 557.373 237.305C557.373 237.305 570.334 239.735 571.147 241.557Z" fill="#1D2538"/>
<path d="M542.548 221.545C543.012 221.347 543.537 221.286 544.043 221.375L589.398 228.343C589.978 228.466 590.551 229.436 592.176 231.872C593.268 233.51 593.78 235.619 591.93 236.486C589.507 237.626 586.818 239.558 585.821 239.264L542.302 231.517C541.633 231.388 539.545 229.709 538.691 229.012C537.722 228.221 536.371 226.699 535.545 225.408C534.931 224.453 535.313 223.197 536.35 222.753L542.548 221.545Z" fill="#C73F37"/>
<path d="M541.415 219.613C541.906 219.402 542.446 219.34 542.978 219.436L589.029 227.62C589.152 227.647 592.34 231.142 591.93 232.445C591.521 233.749 585.985 236.056 585.985 236.056C585.985 236.056 539.04 228.466 538.623 227.9C537.852 226.848 536.576 225.784 535.709 224.439C535.067 223.443 535.47 222.132 536.548 221.668L541.415 219.613Z" fill="#F6874E"/>
<path d="M541.415 219.613C541.906 219.402 542.446 219.34 542.978 219.436L548.739 225.961L585.985 236.056C585.985 236.056 539.04 228.466 538.623 227.9C537.483 226.773 536.576 225.784 535.709 224.439C535.067 223.443 535.47 222.132 536.548 221.668L541.415 219.613Z" fill="#F6BE4A"/>
<path d="M567.549 157.986L565.529 169.951L580.047 191.226L582.252 179.555L567.549 157.986Z" fill="#F6BE4A"/>
<path d="M565.106 173.48L564.533 178.088L579.044 199.362L579.808 195.042L565.106 173.48Z" fill="#F6BE4A"/>
<path d="M549.216 220.747L550.561 222.644C551.011 223.313 551.148 223.381 551.837 222.938L554.028 221.593L549.216 220.747Z" fill="#C73F37"/>
<path d="M555.032 264.395C554.602 265.426 555.707 265.753 557.27 265.924C558.396 266.047 560.478 264.914 560.478 264.914C560.478 264.914 562.355 265.528 563.14 265.999C563.543 266.238 560 265.924 558.745 265.999C557.489 266.074 554.642 267.275 554.642 267.275C554.561 267.282 554.479 267.296 554.404 267.323C553.448 267.665 552.847 268.675 553.025 270.251C553.052 270.463 553.155 270.62 553.311 270.763C553.509 270.948 553.871 271.023 553.735 271.589C553.55 272.333 552.69 272.872 552.697 273.412C552.697 273.719 553.298 276.312 553.503 276.544L556.26 276.654C556.26 276.654 553.093 277.015 552.868 278.462C552.479 280.974 554.615 282.291 556.096 282.053C557.932 281.759 557.919 282.66 559.502 282.933C559.502 282.933 563.406 283.356 563.925 281.998C564.471 280.571 566.212 279.459 566.751 277.445C567.065 276.265 567.065 273.917 567.925 272.504C569.611 269.746 567.536 268.941 568 267.166C568.409 265.631 569.488 265.521 568.942 263.713C568.512 262.307 567.038 261.911 565.959 261.515C564.881 261.126 562.034 260.887 559.216 261.201C559.222 261.214 555.468 263.364 555.032 264.395Z" fill="#CE6D3E"/>
<path d="M555.032 264.395C554.602 265.426 555.694 265.91 557.257 266.081C558.383 266.204 560.471 264.914 560.471 264.914C560.471 264.914 562.348 265.528 563.133 265.999C563.536 266.238 559.994 265.924 558.738 265.999C557.482 266.074 554.636 267.275 554.636 267.275C554.554 267.282 554.472 267.296 554.397 267.323C553.441 267.664 552.759 268.763 552.943 270.333C552.97 270.545 553.4 271.063 553.557 271.207C553.755 271.391 553.598 271.63 553.557 271.712C553.216 272.401 552.8 272.551 552.684 273.077C552.411 274.292 552.731 275.418 553.496 276.544L556.39 276.653C556.39 276.653 553.052 277.008 552.861 278.462C552.677 279.861 553.878 281.766 555.482 281.356C557.775 280.769 560.547 281.711 560.84 281.581C562.908 280.64 561.099 278.633 561.782 277.083C562.287 275.937 562.328 274.626 562.86 273.391C563.324 272.319 563.133 269.248 563.133 269.248L565.836 266.818C565.836 266.818 565.747 264.477 565.563 263.576C565.229 261.897 560.881 260.887 559.216 261.201C558.915 261.269 555.468 263.364 555.032 264.395Z" fill="#F6874E"/>
<path d="M551.516 270.606C553.148 273.064 555.223 270.511 554.738 266.777C554.506 264.982 553.939 262.662 551.223 263.46C548.506 264.259 548.602 266.218 551.516 270.606Z" fill="#F6874E"/>
<path d="M576.184 347.631C576.321 351.358 562.233 353.05 558.629 358.088C553.428 365.364 557.912 365.65 510.025 369.247C471.284 372.162 459.141 353.44 459.626 345.549C460.104 337.768 487.876 327.482 517.096 327.448C546.37 327.421 575.897 339.734 576.184 347.631Z" fill="#EC5E4D"/>
<path d="M465.032 371.875C465.032 371.875 457.551 341.502 456.93 332.26C456.309 323.018 487.474 309.811 493.084 324.998C498.695 340.184 499.944 364.613 499.944 375.841C499.944 387.069 498.074 396.972 484.361 396.31C464.322 395.341 469.898 391.771 465.032 371.875Z" fill="#273150"/>
<path d="M465.032 371.875C465.032 371.875 457.551 341.502 456.93 332.26C456.309 323.018 487.474 309.811 493.084 324.998C498.695 340.184 499.944 364.613 499.944 375.841C499.944 387.069 498.074 396.972 484.361 396.31C464.322 395.341 469.898 391.771 465.032 371.875Z" fill="#102441"/>
<path d="M486.948 374.435C478.717 372.469 467.12 379.294 467.939 388.386C468.56 395.321 461.605 397.3 456.93 410.835C452.254 424.37 486.846 433.284 489.965 416.118C493.077 398.952 509.076 379.718 486.948 374.435Z" fill="#273150"/>
<path d="M487.474 372.21C479.242 370.244 467.127 379.295 467.946 388.386C468.567 395.321 472.724 399.341 468.049 412.876C463.373 426.411 486.853 433.291 489.972 416.118C493.077 398.952 509.595 377.493 487.474 372.21Z" fill="#102441"/>
<path d="M489.965 416.118C486.846 433.284 468.151 481.164 466.281 489.744C464.411 498.33 458.179 501.518 458.179 501.518C458.179 501.518 449.647 505.436 449.913 486.086C450.111 471.302 452.261 424.377 456.937 410.842C456.937 410.842 468.779 405.886 476.26 407.873C483.733 409.845 489.965 416.118 489.965 416.118Z" fill="#F6874E"/>
<path d="M489.965 416.118C486.846 433.284 468.151 481.164 466.281 489.744C465.366 493.955 464.308 500.275 462.022 500.446C459.653 500.624 458.698 502.214 458.076 487.43C457.455 473.561 463.373 424.37 468.048 410.835C468.048 410.835 468.779 405.879 476.26 407.866C483.733 409.845 489.965 416.118 489.965 416.118Z" fill="#CE6D3E"/>
<path d="M458.691 482.004C455.271 488.474 449.033 492.29 449.033 492.29C449.033 492.29 444.61 500.119 445.245 503.067C445.654 504.856 447.449 509.415 447.449 509.415C447.449 509.415 448.787 525.284 449.258 527.154C449.954 529.953 478.014 534.43 479.891 535.14C481.768 535.85 481.358 520.063 481.358 520.063C481.358 520.063 469.332 505.21 467.079 498.856C464.861 492.617 462.383 475.028 458.691 482.004Z" fill="#CE6D3E"/>
<path d="M506.168 320.37C499.937 325.653 496.299 337.536 500.974 348.764C505.65 359.992 509.909 380.236 514.27 384.864C518.632 389.492 526.112 395.648 534.842 395.648C543.565 395.648 547.306 383.103 545.749 373.199C544.193 363.296 538.583 335.229 534.221 322.684C529.86 310.139 512.4 315.087 506.168 320.37Z" fill="#102441"/>
<path d="M515.451 377.848C512.359 381.151 511.588 392.079 509.847 397.962C507.506 405.88 507.056 411.873 507.506 422.711C507.964 433.728 510.175 447.986 511.253 455.665C513.465 471.438 508.865 477.301 516.345 478.175C523.826 479.056 522.577 476.414 525.485 468.49C528.392 460.565 538.992 419.189 541.067 410.821C543.142 402.46 544.391 393.212 544.807 385.731C545.224 378.25 523.71 369.022 515.451 377.848Z" fill="#273150"/>
<path d="M516.502 376.872C511.772 380.059 511.158 392.024 512.55 404.849C513.656 415.026 538.999 419.196 541.074 410.835C543.149 402.474 544.398 393.226 544.814 385.745C545.231 378.264 525.478 369.623 516.502 376.872Z" fill="#102441"/>
<path d="M508.141 405.525C505.622 413.715 506.878 427.667 510.427 453.596C512.584 469.377 509.39 480.523 516.871 481.403C524.351 482.284 525.641 482.53 527.15 474.23C528.679 465.814 538.992 419.203 541.067 410.842C541.067 410.842 531.716 405.122 522.993 404.678C514.27 404.235 508.141 405.525 508.141 405.525Z" fill="#F6874E"/>
<path d="M512.55 404.849C512.598 414.207 516.332 443.324 516.762 458.893C517.205 474.981 512.919 479.103 520.4 479.984C527.88 480.864 525.682 482.536 527.157 474.23C528.754 465.207 538.999 419.203 541.074 410.842C541.074 410.842 532.112 405.409 523 404.678C519.321 404.378 512.55 404.849 512.55 404.849Z" fill="#CE6D3E"/>
<path d="M511.724 472.537C511.724 472.537 510.864 477.779 508.503 483.287C506.476 488.01 517.028 490.174 520.87 493.689C520.87 493.689 548.766 508.282 558.11 503.661C568.492 498.528 539.702 483.936 547.933 488.413C547.933 488.413 530.481 479.827 527.989 473.226C525.491 466.633 511.724 472.537 511.724 472.537Z" fill="#F6874E"/>
<path d="M516.195 471.677C515.833 479.506 512.4 481.274 511.151 485.901C508.742 494.822 526.44 500.303 525.28 499.614C525.28 499.614 548.445 507.661 557.796 503.04C568.369 497.812 539.504 484.038 547.927 488.42C547.927 488.42 530.474 479.833 527.983 473.233C525.491 466.633 516.523 464.613 516.195 471.677Z" fill="#CE6D3E"/>
<path d="M509.178 479.424C509.622 478.544 510.434 477.779 510.571 478.66C510.714 479.54 512.059 482.912 513.902 483.949C515.738 484.987 536.705 496.413 544.056 494.331C548.541 493.061 545.299 489.014 542.091 486.045C540.043 484.147 538.002 482.694 538.002 482.694C538.002 482.694 547.408 487.99 551.728 490.481C556.049 492.973 565.134 501.491 565.994 504.815C566.86 508.139 534.057 508.555 529.355 506.371C524.652 504.187 517.683 497.955 515.089 495.464C512.7 493.171 509.922 494.194 509.035 493.177C507.028 490.891 507.834 482.066 509.178 479.424Z" fill="#992C29"/>
<path d="M499.623 216.951C499.623 216.951 507.923 215.081 510.844 218.821C514.202 223.128 523.178 234.192 523.621 242.997C523.976 250.014 522.768 255.624 519.232 265.385C516.332 273.404 512.421 285.718 507.493 287.956C492.477 294.775 479.652 293.662 471.263 288.632C468.144 286.762 464.834 282.018 465.086 269.603C465.195 264.251 465.031 262.456 463.782 243.447C462.11 217.893 472.198 216.835 482.464 216.262C492.722 215.682 499.623 216.951 499.623 216.951Z" fill="#F6BE4A"/>
<path d="M498.531 226.909L496.893 226.821C493.958 226.664 491.705 224.152 491.869 221.217L493.03 199.689C493.187 196.754 495.698 194.502 498.633 194.666L500.271 194.755C503.206 194.912 505.459 197.423 505.295 200.358L504.135 221.886C503.971 224.821 501.466 227.066 498.531 226.909Z" fill="#F6874E"/>
<path d="M498.947 218.187L497.309 218.098C494.374 217.941 492.122 215.429 492.286 212.494L493.446 190.967C493.603 188.032 496.115 185.779 499.05 185.943L500.688 186.032C503.623 186.189 505.875 188.701 505.711 191.636L504.551 213.163C504.387 216.091 501.882 218.344 498.947 218.187Z" fill="#CE6D3E"/>
<path d="M450.132 491.437C449.244 491.723 447.36 493.218 447.026 494.092C445.558 497.921 444.323 501.538 444.685 503.811C444.828 504.699 445.681 506.965 446.562 511.265C447.538 516.002 446.883 524.533 449.517 528.124C452.145 531.714 474.587 539.508 479.57 538.573C484.559 537.638 481.733 522.957 481.351 520.07C480.948 517.025 470.021 503.388 465.475 493.246C465.475 493.246 465.516 494.242 466.24 496.781C467.946 502.719 471.27 515.169 466.622 515.626C459.967 516.275 450.418 507.231 450.022 502.706C449.633 498.235 448.903 494.665 449.033 493.744C449.162 492.809 450.132 491.437 450.132 491.437Z" fill="#992C29"/>
<path d="M520.29 338.649L532.993 349.836C534.324 350.887 536.18 350.061 535.914 348.518C534.999 343.229 532.296 334.294 520.29 338.649Z" fill="#EC5E4D"/>
<path d="M465.448 273.875C463.373 277.82 447.374 327.687 462.745 360.927C462.745 360.927 476.287 346.225 495.63 342.246C534.153 334.328 530.829 345.201 531.819 348.075C532.474 349.986 534.549 350.976 536.46 350.32C536.951 350.15 537.504 349.945 538.119 349.699C546.773 346.246 561.823 341.004 575.829 345.959C575.829 345.959 548.657 300.761 512.318 278.216C477.536 256.661 467.523 269.93 465.448 273.875Z" fill="#F6BE4A"/>
<path opacity="0.5" d="M534.515 345.133C534.515 345.133 530.918 319.21 521.915 311.292C521.915 311.292 525.512 317.415 525.512 322.09L521.191 319.21C521.191 319.21 525.669 325.817 528.754 332.533C531.457 338.417 532.665 344.457 534.515 345.133Z" fill="#F6BE4A"/>
<path d="M524.228 176.585C529.504 201.969 519.157 210.624 501.247 210.064C487.787 209.641 476.764 201.123 475.884 184.278C474.996 167.432 482.088 153.611 495.377 151.386C512.918 148.451 520.795 160.095 524.228 176.585Z" fill="#CE6D3E"/>
<path d="M518.058 182.36C518.324 183.609 518.536 184.803 518.706 185.943C521.191 202.932 513.123 208.815 499.779 208.413C489.077 208.085 480.306 201.457 479.603 188.346C478.9 175.234 489.944 166.436 500.517 164.709C514.475 162.423 515.328 169.521 518.058 182.36Z" fill="#F6874E"/>
<path d="M477.843 196.491C481.959 195.854 484.635 191.068 483.82 185.8C483.005 180.533 479.008 176.779 474.892 177.416C470.775 178.053 468.099 182.839 468.914 188.107C469.729 193.374 473.727 197.128 477.843 196.491Z" fill="#F6874E"/>
<path d="M475.877 177.302L480.197 182.046C480.197 182.046 480.218 162.204 495.766 156.737C509.608 151.864 515.942 157.324 515.942 157.324C515.942 157.324 508.468 144.977 489.651 153.065C473.911 159.829 475.877 177.302 475.877 177.302Z" fill="#F6BE4A"/>
<path d="M488.736 180.053C489.946 180.053 490.927 178.219 490.927 175.957C490.927 173.696 489.946 171.862 488.736 171.862C487.526 171.862 486.545 173.696 486.545 175.957C486.545 178.219 487.526 180.053 488.736 180.053Z" fill="#273150"/>
<path d="M511.253 178.299C512.463 178.299 513.444 176.465 513.444 174.203C513.444 171.942 512.463 170.108 511.253 170.108C510.043 170.108 509.062 171.942 509.062 174.203C509.062 176.465 510.043 178.299 511.253 178.299Z" fill="#273150"/>
<path d="M508.673 169.235L512.768 166.989" stroke="#273150" stroke-miterlimit="10" stroke-linecap="round" stroke-linejoin="round"/>
<path d="M492.231 170.402L486.797 168.941" stroke="#273150" stroke-miterlimit="10" stroke-linecap="round" stroke-linejoin="round"/>
<path d="M513.881 153.843C513.881 153.843 517.826 158.642 521.873 160.696C524.931 162.252 527.388 162.539 527.388 162.539L526.774 161.31L528.296 160.136C528.296 160.136 522.576 159.536 515.068 153.127L513.881 153.843Z" fill="#EE5D4F"/>
<path d="M513.485 153.284C513.485 153.284 515.553 159.14 518.652 162.457C520.993 164.962 523.204 166.074 523.204 166.074L523.047 164.716L524.883 164.136C524.883 164.136 519.717 161.617 514.857 153.017L513.485 153.284Z" fill="#EE5D4F"/>
<path d="M515.99 156.375C517.451 156.116 518.836 148.328 515.362 148.164C512.093 148.007 508.386 148.431 509.001 150.894C509.622 153.358 514.536 156.635 515.99 156.375Z" fill="#EE5D4F"/>
<path d="M517.253 151.946C517.253 151.946 516.713 148.608 515.676 148.683C514.638 148.758 515.567 150.185 515.833 152.383C516.106 154.581 517.437 153.359 517.253 151.946Z" fill="#F7BC4B"/>
<path d="M514.782 154.765C514.782 154.765 514.563 153.229 516.802 151.741C519.041 150.253 520.747 149.441 522.167 150.328C523.587 151.215 524.085 155.099 523.273 157.058C522.46 159.017 517.478 157.529 516.222 156.792C514.966 156.048 514.782 154.765 514.782 154.765Z" fill="#EE5D4F"/>
<path d="M522.932 153.461C522.932 153.461 523.403 156.58 522.01 157.085C519.942 157.843 521.246 151.939 521.369 151.011C521.485 150.075 523.307 151.229 522.932 153.461Z" fill="#F7BC4B"/>
<path d="M468.771 258.006C468.771 258.006 476.907 276.148 480.62 280.127C484.361 284.141 489.309 288.598 494.176 286.714C499.029 284.837 501.172 272.749 497.752 266.415C494.374 260.163 488.176 242.13 486.088 239.284C484.013 236.451 476.279 238.458 472.512 240.745C468.717 243.038 466.041 251.228 468.771 258.006Z" fill="#F6874E"/>
<path d="M488.64 244.232C488.64 244.232 481.651 216.118 472.3 217.36C463.373 218.548 461.728 226.165 462.854 236.601C464.001 247.262 468.908 258.538 468.908 258.538C468.908 258.538 470.771 248.313 488.64 244.232Z" fill="#EC5E4D"/>
<path d="M485.808 235.1C485.808 235.1 481.658 216.118 472.307 217.361C463.38 218.548 461.735 226.165 462.861 236.602C464.008 247.263 465.769 249.331 465.769 249.331C465.769 249.331 466.697 242.601 467.939 238.554C469.011 235.079 475.836 233.462 475.836 233.462L485.808 235.1Z" fill="#C93F37"/>
<path d="M541.695 251.645C541.695 251.645 527.566 254.552 519.683 257.153C512.734 259.446 500.831 263.323 494.033 268.128C487.173 272.981 486.381 279.916 488.204 284.448C490.046 289.021 498.899 286.298 506.209 283.8C513.485 281.308 541.155 268.074 547.926 263.699C554.643 259.351 552.909 247.393 541.695 251.645Z" fill="#CE6D3E"/>
<path d="M512.086 259.747C504.605 261.822 500.831 263.323 494.033 268.128C487.173 272.981 486.381 279.916 488.204 284.448C490.046 289.021 498.899 286.298 506.209 283.8C513.492 281.308 518.672 257.917 512.086 259.747Z" fill="#F6874E"/>
<path d="M546.5 260.477C548.554 263.289 553.769 262.859 555.523 261.371C557.653 259.576 558.922 258.047 560.274 258.054C561.12 258.054 564.239 258.641 565.946 259.412C566.041 259.596 565.632 260.32 565.707 260.525C565.809 260.811 565.898 260.982 566.205 261.002C568.143 261.139 569.74 259.862 569.638 257.835L569.44 255.139L571.426 252.737L571.809 245.208L565.222 238.123C564.894 237.775 564.43 237.591 563.952 237.625L554.997 238.287C554.458 238.328 553.967 238.622 553.68 239.072L545.551 251.795C545.544 251.802 544.445 257.665 546.5 260.477Z" fill="#CE6D3E"/>
<path d="M565.611 255.665C566.232 256.341 567.208 257.371 568.048 258.027C568.956 258.736 569.7 258.989 569.638 257.835L569.44 255.139L571.918 253.167C571.918 253.167 572.491 247.324 572.3 245.638C571.788 241.161 565.154 237.837 565.154 237.837C564.567 237.543 564.423 237.598 563.946 237.632C563.946 237.632 561.837 241.12 561.707 242.171C561.577 243.222 563.522 247.843 563.522 247.843C563.522 247.843 561.4 250.539 561.284 251.344C561.004 253.235 563.454 253.324 565.611 255.665Z" fill="#F6874E"/>
<path d="M466.014 243.748C466.014 243.748 466.635 239.543 469.754 238.294C469.754 238.294 466.294 248.375 465.761 249.331C465.229 250.287 465.236 246.089 466.014 243.748Z" fill="#C93F37"/>
<path d="M463.994 222.971C462.329 227.749 456.097 243.953 449.865 279.691C443.634 315.429 453.606 361.549 459.421 366.538C465.236 371.527 485.597 334.54 529.232 357.604C529.232 357.604 499.302 314.685 482.484 302.959C461.912 288.625 463.578 253.925 466.069 235.435C468.567 216.951 463.994 222.971 463.994 222.971Z" fill="#29ACE4"/>
<path d="M449.865 279.698C443.634 315.436 453.606 361.555 459.421 366.545C465.236 371.534 485.597 334.547 529.232 357.61C529.232 357.61 513.404 335.55 503.589 324.138C503.589 324.138 490.948 342.751 487.706 342.076C485.781 341.673 470.055 343.031 460.704 331.817C451.353 320.603 449.865 279.698 449.865 279.698Z" fill="#1689CB"/>
<path d="M460.165 321.818C460.165 321.818 460.684 325.845 465.298 332.616C470.874 340.799 487.713 344.226 487.713 344.226L494.463 339.769C494.463 339.769 485.194 339.004 477.27 335.045C469.345 331.087 460.465 324.329 460.165 321.818Z" fill="#1689CB"/>
<path d="M490.586 215.238C487.453 214.515 469.707 213.054 464.717 221.784C459.728 230.507 463.782 246.662 463.782 246.662C463.782 246.662 464.711 233.346 471.42 229.107C475.304 226.65 498.196 234.677 501.493 235.182C507.568 236.117 499.937 227.394 499.937 227.394C499.937 227.394 494.64 216.173 490.586 215.238Z" fill="#29ACE4"/>
<path d="M505.077 216.432C502.92 216.985 496.893 237.427 502.838 233.783C504.401 232.82 513.008 230.199 522.836 231.134C529.382 231.755 534.535 235.448 534.993 234.718C536.556 232.22 514.257 214.064 505.077 216.432Z" fill="#1689CB"/>
<path d="M502.585 232.015C503.188 232.015 503.677 231.526 503.677 230.923C503.677 230.32 503.188 229.831 502.585 229.831C501.982 229.831 501.493 230.32 501.493 230.923C501.493 231.526 501.982 232.015 502.585 232.015Z" fill="#273150"/>
<path d="M329.873 314.746C329.873 314.746 330.61 301.075 323.43 300.283C316.25 299.491 300.947 315.34 297.487 317.026C294.026 318.719 291.296 324.165 289.528 325.851C287.76 327.537 283.01 328.827 280.375 330.943C277.734 333.066 268.485 339.448 275.119 346.573C281.767 353.713 284.279 355.808 293.439 351.918C302.571 348.034 332.262 321.804 329.873 314.746Z" fill="#1D2436"/>
<path d="M315.656 389.635C315.656 389.635 291.419 381.704 263.626 378.189C251.094 376.605 250.459 395.45 258.745 409.982C263.298 417.974 287.576 423.728 310.032 434.813C328.597 443.973 345.531 459.528 353.237 459.207C370.239 458.49 359.435 399.007 315.656 389.635Z" fill="#48598B"/>
<path d="M293.412 398.017C289.712 397.696 296.388 404.904 298.128 408.064C303.193 417.258 307.336 427.755 311.793 434.417C315.731 440.301 312.967 432.417 309.766 422.404C308.312 417.859 307.22 413.504 306.162 410.528C305.568 408.849 293.412 398.017 293.412 398.017Z" fill="#273150"/>
<path d="M294.19 508.221C294.19 508.221 279.973 520.186 274.997 526.643C270.001 533.12 283.344 540.15 295.187 538.526C307.001 536.908 318.202 532.594 322.202 526.165C326.188 519.756 326.215 519.687 332.46 512.807C338.685 505.955 330.119 491.41 326.59 488.352C323.055 485.301 296.142 497.853 294.19 508.221Z" fill="#EC6141"/>
<path d="M294.559 505.101C294.559 505.101 280.341 517.066 275.365 523.523C270.369 530 284.573 534.328 296.415 532.703C308.23 531.086 316.298 529.052 320.297 522.622C324.283 516.213 327.191 515.271 333.436 508.391C339.661 501.538 330.488 488.297 326.959 485.239C323.423 482.181 296.511 494.733 294.559 505.101Z" fill="#13161F"/>
<path d="M286.307 485.97C286.307 485.97 290.634 492.604 289.794 495.307C288.955 498.017 286.395 505.531 296.538 508.937C305.179 511.838 326.113 499.389 332.713 495.027C333.887 494.249 334.665 492.993 334.795 491.662C335.149 487.956 335.347 480.325 331.778 475.807C326.932 469.684 327.566 471.445 319.901 451.262C312.298 431.223 288.02 389.533 286.498 385.253C284.976 380.98 265.23 376.913 261.25 377.383C257.264 377.854 241.818 398.263 242.228 403.887C242.637 409.525 251.387 429.032 258.909 445.604C266.472 462.272 275.754 469.998 277.973 474.776C281.447 482.263 286.307 485.97 286.307 485.97Z" fill="#48598B"/>
<path d="M326.768 469.8C323.198 463.152 324.918 473.124 323.041 480.188C321.963 484.243 330.344 476.448 326.768 469.8Z" fill="#273150"/>
<path d="M286.027 483.929C286.027 483.929 290.313 495.048 292.709 495.874C295.105 496.706 302.278 495.771 307.145 493.28C312.011 490.782 294.716 494.734 286.027 483.929Z" fill="#273150"/>
<path d="M249.784 412.507C249.784 412.507 252.391 408.043 254.459 403.955C256.527 399.866 257.51 413.715 253.039 417.278C248.569 420.848 249.784 412.507 249.784 412.507Z" fill="#273150"/>
<path d="M303.739 412.35L289.753 405.484L272.492 391.676C272.492 391.676 276.533 391.758 279.7 393.976C281.133 394.979 288.675 401.225 292.784 404.494C297.732 408.446 302.21 410.767 303.739 412.35Z" fill="#273150"/>
<path d="M386.47 319.169C386.47 319.169 314.851 303.396 328.502 292.994C342.064 282.653 379.904 264.04 393.739 284.059C407.67 304.221 394.865 326.336 386.47 319.169Z" fill="#1D2436"/>
<path d="M414.011 464.06C414.011 464.06 415.13 461.419 418.454 459.119C421.771 456.825 432.057 457.781 433.893 461.856C435.73 465.944 435.709 493.969 435.709 495.867C435.709 497.771 432.016 505.668 428.665 510.31C425.307 514.965 418.98 515.859 413.403 513.675C407.827 511.49 411.602 501.873 413.11 497.28C414.618 492.707 411.404 468.981 414.011 464.06Z" fill="#EC6141"/>
<path d="M411.834 461.883C411.834 461.883 412.032 460.259 415.356 457.959C418.673 455.665 428.959 456.621 430.795 460.696C432.631 464.784 433.532 491.792 433.532 493.69C433.532 495.594 429.839 503.491 426.488 508.132C423.13 512.787 416.802 513.682 411.226 511.497C405.65 509.313 409.424 499.696 410.933 495.103C412.441 490.523 409.226 466.804 411.834 461.883Z" fill="#13161F"/>
<path d="M394.661 472.429C394.661 472.429 407.11 461.788 412.953 461.528C425.43 460.969 422.543 473.514 422.515 482.162C422.495 490.837 415.765 497.225 413.267 498.884C410.769 500.543 415.123 499.696 407.868 509.586C400.572 519.524 387.617 531.435 378.989 532.649C372.417 533.578 350.37 521.995 362.158 498.365C365.844 490.987 388.04 478.674 394.661 472.429Z" fill="#273150"/>
<path d="M354.37 419.831C354.37 419.831 352.063 476.496 353.012 497.908C353.967 519.51 352.984 529.687 358.213 535.032C363.448 540.39 372.949 541.386 379.611 539.188C386.259 536.99 383.87 534.219 389.166 532.745C394.456 531.278 398.251 515.217 399.602 509.791C400.954 504.378 404.564 451.775 405.97 432.759C407.37 413.9 403.575 404.263 388.142 404.454C372.683 404.658 357.148 408.761 354.37 419.831Z" fill="#273150"/>
<path d="M352.964 428.991C352.964 428.991 352.186 481.67 352.93 501.348C353.688 521.203 352.909 530.547 357.025 535.468C361.148 540.39 368.642 541.311 373.891 539.284C379.133 537.263 392.156 517.483 393.221 512.501C394.285 507.525 398.08 473.616 394.668 441.489C392.831 424.22 392.777 415.299 380.614 415.477C368.431 415.647 355.155 418.814 352.964 428.991Z" fill="#47588A"/>
<path d="M311.465 401.655C315.247 406.59 319.355 410.18 324.345 414.118C325.512 415.04 365.066 431.571 365.066 431.571C365.066 431.571 342.869 423.135 345.954 425.339C359.134 434.752 362.574 441.127 377.952 444.867C381.542 445.741 389.009 438.69 391.146 441.024C398.005 448.505 395.569 462.668 396.135 455.672C398.155 430.697 406.858 419.306 388.033 409.545C368.205 399.266 300.913 387.868 311.465 401.655Z" fill="#273150"/>
<path d="M319.983 389.158C320.563 383.984 319.314 363.972 319.512 338.629C319.71 313.559 319.533 303.607 334.057 297.751C348.514 291.922 366.628 290.195 380.361 299.164C386.729 303.321 389.521 394.352 390.736 402.488C391.951 410.651 377.604 424.036 364.635 424.868C351.647 425.708 318.325 404.037 319.983 389.158Z" fill="#F6BE4A"/>
<path opacity="0.5" d="M352.193 395.007C352.193 395.007 350.131 398.857 350.985 402.556C343.415 399.266 335.969 395.546 333.907 392.932C333.907 392.932 340.555 404.153 350.527 407.894C360.499 411.634 369.639 409.968 369.639 409.968C369.639 409.968 355.401 400.174 352.193 395.007Z" fill="#F6BE4A"/>
<path d="M311.349 396.993C311.349 397.26 311.445 397.512 311.629 397.703C313.117 399.259 317.622 405.989 324.549 408.337C326.406 408.965 329.6 407.607 329.614 406.815L329.648 405.198C329.655 404.808 325.778 405.184 325.437 405.006C323.389 403.928 314.741 397.15 311.137 392.891C310.516 392.154 311.356 396.01 311.349 396.993Z" fill="#F4E8D8"/>
<path d="M340.03 295.048C341.784 294.072 318.646 305.273 329.034 351.604C331.798 363.924 329.054 385.431 329.955 389.601C330.863 393.772 333.655 403.081 329.546 405.191C321.935 409.095 314.728 397.096 312.073 394.406C307.95 390.243 316.427 388.291 316.079 372.94C315.711 356.716 310.271 334.076 311.335 324.862C313.772 303.832 320.707 302.208 323.43 300.283C326.399 298.188 337.907 296.236 340.03 295.048Z" fill="#972B28"/>
<path d="M340.03 295.048C340.692 292.591 326.597 299.928 324.666 301.676C322.782 303.382 320.789 305.737 318.98 308.999C313.185 319.429 327.88 346.137 327.88 346.137C327.88 346.137 327.833 320.589 328.392 314.76C328.945 308.945 338.753 299.799 340.03 295.048Z" fill="#F4E8D8"/>
<path d="M340.501 293.035C340.501 293.035 339.798 294.652 339.873 296.632C340.153 304.59 341.818 326.589 344.787 326.862C347.804 327.135 349.196 326.411 352.978 314.077C353.783 311.45 361.796 291.663 359.277 289.956" stroke="#913636" stroke-miterlimit="10"/>
<path d="M345.34 333.66C346.222 333.66 346.937 332.022 346.937 330.002C346.937 327.981 346.222 326.343 345.34 326.343C344.458 326.343 343.743 327.981 343.743 330.002C343.743 332.022 344.458 333.66 345.34 333.66Z" fill="#29ACE4"/>
<path d="M339.955 285.595L340.419 298.017C340.61 303.184 345.354 307 350.793 306.358L351.531 306.269C356.752 305.655 360.574 301.15 360.076 296.222L358.827 283.909C358.24 278.101 351.981 274.544 346.173 276.701C342.323 278.135 339.811 281.725 339.955 285.595Z" fill="#CE6D3E"/>
<path d="M366.301 411.354L366.349 412.391C366.376 412.985 366.601 413.538 366.983 413.948C369.72 416.896 381.385 429.134 389.091 432.028C395.022 434.253 402.981 434.67 407.52 434.704C409.677 434.717 411.656 433.318 412.571 431.127C413.171 429.694 412.414 428.035 411.035 427.756C404.128 426.343 385.412 421.585 369.789 409.197C368.308 408.016 366.205 409.313 366.301 411.354Z" fill="#F4E8D8"/>
<path d="M361.578 291.048C359.448 292.7 350.309 309.238 357.96 332.056C365.673 355.078 358.615 396.44 363.618 406.706C365.045 409.627 385.487 428.22 393.248 428.547C398.36 428.759 405.725 429.585 410.837 430.254C413.24 430.568 416.939 425.906 417.021 423.462C417.273 415.736 417.021 399.396 411.82 383.008C404.721 360.627 404.175 296.509 386.17 288.011C372.423 281.52 363.707 289.397 361.578 291.048Z" fill="#972B28"/>
<path d="M385.753 387.13C385.753 387.13 400.217 395.942 404.052 397.184L401.882 402.358C401.882 402.358 385.685 393.546 383.153 390.154L385.753 387.13Z" fill="#F4E8D8"/>
<path d="M361.175 289.82C365.434 286.113 379.29 284.216 383.44 286.857C385.788 288.345 374.689 283.656 369.058 296.352C362.083 312.064 359.571 337.065 359.571 337.065C359.571 337.065 355.783 335.004 354.431 315.012C353.53 301.669 356.909 293.533 361.175 289.82Z" fill="#F4E8D8"/>
<path d="M396.756 378.073C396.756 378.073 398.469 373.083 397.691 370.749C396.913 368.415 394.886 376.36 392.552 379.629C391.425 381.199 396.033 378.605 396.756 378.073Z" fill="#972B28"/>
<path d="M315.833 379.213L315.26 381.97L318.946 379.841L319.622 376.565L315.833 379.213Z" fill="#F4E8D8"/>
<path d="M358.322 434.376C358.322 434.376 364.554 438.014 368.71 441.338C372.867 444.662 380.764 447.263 380.764 447.263C380.764 447.263 370.785 448.921 358.322 434.376Z" fill="#273150"/>
<path d="M310.428 347.222C313.636 356.737 303.2 368.176 293.378 368.272C287.494 368.333 283.071 365.623 279.133 360.204C277.645 358.156 278.553 355.781 277.475 353.542C276.642 351.809 273.727 350.218 273.174 348.553C270.035 339.045 275.468 332.179 285.194 331.23C292.204 330.547 293.651 335.195 297.5 336.936C298.886 337.564 303.063 337.687 304.36 338.492C309.042 341.434 308.858 342.574 310.428 347.222Z" fill="#C93F37"/>
<path d="M308.51 353.317C308.994 358.252 305.882 363.166 301.541 364.292C297.193 365.412 293.289 362.299 292.818 357.351C292.347 352.409 294.47 345.215 298.797 344.109C303.118 342.997 308.025 348.389 308.51 353.317Z" fill="#F4E8D8"/>
<path d="M306.278 353.815C306.633 357.528 304.367 361.235 301.213 362.074C298.06 362.92 295.221 360.572 294.879 356.846C294.538 353.126 296.715 345.761 301.493 347.01C304.64 347.829 305.923 350.109 306.278 353.815Z" fill="#CE6D3E"/>
<path d="M300.299 347.843C298.531 349.235 297.111 352.129 296.613 356.566C296.115 361.002 305.739 365.801 305.739 365.801C305.739 365.801 311.738 368.019 315.738 358.402C317.328 354.573 309.124 347.481 309.186 345.038C309.411 336.171 303.2 345.556 300.299 347.843Z" fill="#F6874E"/>
<path d="M307.937 346.594C307.937 346.594 304.817 346.955 305.445 349.297C306.066 351.631 310.974 355.788 316.12 354.545C321.267 353.303 307.937 346.594 307.937 346.594Z" fill="#CE6D3E"/>
<path d="M277.706 350.334C277.29 347.632 277.57 345.045 277.502 344.519C277.297 342.963 275.01 350.546 275.01 350.546C277.809 354.593 277.918 351.734 277.706 350.334Z" fill="#972B28"/>
<path d="M296.094 337.243C296.094 337.243 290.17 331.946 288.306 340.362C288.3 340.362 291.733 338.178 296.094 337.243Z" fill="#972B28"/>
<path d="M386.232 345.884C381.979 339.004 377.652 330.26 373.195 323.414C368.745 316.589 371.304 294.905 380.99 291.171C390.648 287.451 392.45 292.045 401.364 304.945C410.312 317.9 424.113 351.883 419.847 363.596C417.574 369.828 397.569 373.001 386.232 345.884Z" fill="#1D2436"/>
<path d="M417.089 352.259C412.332 345.413 406.264 340.676 393.856 343.167C387.672 344.41 386.887 350.286 386.887 350.286C386.887 350.286 379.836 349.645 376.621 352.511C373.4 355.385 362.486 352.511 362.834 366.845C363.182 381.178 366.697 387.765 376.28 389.594C385.856 391.423 400.818 378.906 400.818 378.906C400.818 378.906 406.094 379.929 413.103 373.268C420.175 366.551 424.645 363.132 417.089 352.259Z" fill="#C93F37"/>
<path d="M388.484 348.355C388.484 348.355 394.129 343.386 399.678 348.286C400.285 348.826 392.832 347.331 388.484 348.355Z" fill="#972B28"/>
<path d="M363.155 372.906C362.424 385.867 377.952 384.577 377.952 384.577C377.952 384.577 374.976 385.949 376.826 386.454C379.01 387.048 382.832 387.697 385.167 386.065C393.507 380.23 398.156 365.903 387.952 360.033C386.081 358.961 385.528 367.056 385.255 364.722C384.962 362.245 382.327 358.409 377.666 355.972C375.065 354.607 364.056 356.839 363.155 372.906Z" fill="#972B28"/>
<path d="M402.736 356.566C402.736 356.566 400.06 353.761 396.613 352.512C393.166 351.263 387.133 349.863 387.133 349.863C388.081 349.577 403.111 348.648 402.736 356.566Z" fill="#972B28"/>
<path d="M370.137 357.057C367.782 357.2 360.302 357.951 359.728 371.213C359.271 381.915 368.806 384.407 368.806 384.407C368.806 384.407 375.748 385.007 378.908 382.318C383.167 378.694 383.515 370.073 380.874 362.695C379.515 358.914 372.492 356.914 370.137 357.057Z" fill="#F4E8D8"/>
<path d="M365.4 359.521C363.052 359.624 356.227 358.347 355.872 370.933C355.585 381.083 365.127 383.581 365.127 383.581C365.127 383.581 372.048 384.243 375.154 381.731C379.338 378.346 379.543 370.169 376.792 363.132C375.379 359.514 367.748 359.419 365.4 359.521Z" fill="#CE6D3E"/>
<path d="M318.796 314.405C318.796 314.405 321.506 310.726 329.239 310.965C340.044 311.299 351.647 314.542 355.101 319.422C357.66 323.032 357.803 326.698 357.803 326.698C357.803 326.698 361.237 327.032 362.936 329.544C364.008 331.127 363.53 351.037 363.53 351.037C363.346 354.552 361.592 356.969 358.015 356.921L354.985 356.88L318.059 352.054C318.072 352.054 315.267 318.719 318.796 314.405Z" fill="#634874"/>
<path d="M306.066 342.232C306.483 351.788 314.68 353.46 317.042 353.856C323.424 354.921 357.79 357.924 357.79 357.924C357.79 357.924 363.782 355.631 360.363 355.392C359.544 355.337 342.583 351.549 337.027 350.539C327.56 348.819 324.352 342.642 324.352 342.642C324.352 342.642 305.875 337.871 306.066 342.232Z" fill="#7E6391"/>
<path d="M356.548 386.564L359.373 358.49C359.209 357.044 358.07 356.436 353.578 355.651C353.578 355.651 351.408 355.453 349.708 355.283C348.883 355.201 346.89 355.603 346.808 358.088L345.395 389.881C345.272 391.041 349.442 390.229 349.442 390.229C355.606 389.464 356.418 389.185 356.548 386.564Z" fill="#634874"/>
<path d="M324.167 346.751C318.223 349.399 314.352 350.191 308.899 347.556C304.845 345.829 303.725 336.99 303.828 334.219L303.903 324.691C304.121 318.48 309.418 313.449 315.731 313.449C324.816 313.443 329.56 320.521 329.314 329.476L328.993 334.84C328.918 337.605 326.898 345.536 324.167 346.751Z" fill="#634874"/>
<path d="M348.193 389.676L348.971 357.105C349.108 354.436 349.278 353.993 345.013 353.638L341.163 353.611C337.989 353.781 336.419 355.392 336.324 358.013L337.648 384.045C337.586 388.68 336.986 389.97 340.255 390.229C345.702 390.659 348.132 391.267 348.193 389.676Z" fill="#7E6391"/>
<path d="M334.221 357.856C334.617 361.897 335.464 366.272 341.081 367.664C341.32 367.726 345.729 367.446 345.729 367.446L343.88 356.737C343.914 354.628 342.787 353.508 341.45 353.358L336.706 353.031C334.965 352.833 333.962 355.174 334.221 357.856Z" fill="#7E6391"/>
<path d="M338.938 357.938C339.272 361.781 340.242 366.101 345.094 367.432C345.299 367.487 345.518 367.487 345.729 367.446C348.616 367.685 353.23 365.869 353.264 363.856L353.729 355.658C353.592 355.317 341.45 353.727 341.45 353.727C339.948 353.543 338.713 355.392 338.938 357.938Z" fill="#634874"/>
<path d="M321.997 328.384C321.676 331.728 318.639 334.267 315.213 334.056C311.786 333.844 309.274 330.957 309.602 327.606C309.93 324.261 312.974 321.736 316.393 321.947C319.806 322.166 322.318 325.046 321.997 328.384Z" fill="#1D2436"/>
<path d="M320.12 326.616C319.676 331.264 315.458 334.799 310.694 334.506C305.923 334.213 302.435 330.192 302.893 325.537C303.35 320.896 307.575 317.381 312.325 317.681C317.076 317.982 320.564 321.981 320.12 326.616Z" fill="#F6BE4A"/>
<path d="M316.496 325.926C316.216 328.854 313.554 331.073 310.558 330.888C307.561 330.704 305.357 328.172 305.65 325.244C305.937 322.322 308.599 320.104 311.588 320.295C314.578 320.486 316.776 323.005 316.496 325.926Z" fill="#1D2436"/>
<path d="M330.454 314.432C334.808 317.442 335.894 321.893 334.761 329.728C334.665 330.37 335.184 330.943 335.948 331.059L351.879 333.687C352.841 333.837 355.305 334.526 355.408 333.707C355.831 330.397 356.377 320.944 349.456 317.415C346.186 315.75 338.289 313.47 331.846 312.269C330.263 311.975 329.232 313.586 330.454 314.432Z" fill="#BB83C3"/>
<path d="M331.942 311.655C331.942 311.655 343.47 316.35 338.685 332.274" stroke="#634874" stroke-width="2" stroke-miterlimit="10" stroke-linecap="round" stroke-linejoin="round"/>
<path d="M340.201 313.47C340.201 313.47 349.749 319.77 345.156 333.025" stroke="#634874" stroke-width="2" stroke-miterlimit="10" stroke-linecap="round" stroke-linejoin="round"/>
<path d="M346.459 315.313C346.459 315.313 354.998 321.565 351.36 333.714" stroke="#634874" stroke-width="2" stroke-miterlimit="10" stroke-linecap="round" stroke-linejoin="round"/>
<path d="M334.378 334.54L355.305 338.178" stroke="#BB83C3" stroke-width="2" stroke-miterlimit="10" stroke-linecap="round" stroke-linejoin="round"/>
<path d="M373.782 363.992C373.782 363.992 372.103 357.371 371.148 355.556C370.677 354.662 370.786 352.88 369.701 350.259C368.527 347.42 369.1 345.126 367.844 342.874C366.779 340.963 361.858 344.444 362.056 348.041C362.165 350.075 362.411 354.047 362.957 356.033C363.571 358.286 355.156 356.504 355.156 356.504C354.262 356.19 348.48 356.6 347.538 356.702L341.573 356.784C339.095 357.583 338.679 359.385 338.761 361.985C338.802 363.378 345.491 362.593 348.323 363.05C350.385 363.378 354.978 362.606 355.046 362.907C355.046 362.907 339.28 366.852 338.413 368.879C336.706 372.899 337.198 378.162 337.826 378.946C339.689 381.274 339.833 381.451 339.833 381.451C339.833 381.451 339.723 384.448 341.907 385.915C345.204 388.134 355.702 389.976 355.702 389.976C355.702 389.976 368.083 385.799 370.151 383.84C372.219 381.888 374.799 380.291 375.066 374.059C375.318 367.848 373.782 363.992 373.782 363.992Z" fill="#F6874E"/>
<path d="M338.399 368.872C336.726 372.906 337.184 378.155 337.812 378.94C339.675 381.267 339.818 381.445 339.818 381.445C339.818 381.445 339.709 384.441 341.893 385.909C345.19 388.127 355.688 389.97 355.688 389.97L351.92 382.81C351.92 382.81 348.575 366.449 347.593 365.89C346.61 365.33 339.013 367.398 338.399 368.872Z" fill="#CE6D3E"/>
<path d="M310.216 306.611L309.78 284.776L299.692 293.888L288.17 277.056L286.983 296.952L270.315 297.15L283.242 305.894L277.072 313.415L293.658 314.173C295.132 314.235 285.74 310.214 285.74 310.214L286.819 306.256L283.222 300.133L290.784 299.771L292.224 291.854L299.159 298.597L306.264 294.018C306.258 294.011 310.223 306.768 310.216 306.611Z" fill="#F6BE4A"/>
<path d="M299.494 359.945L307.118 366.982C307.247 367.098 307.404 367.173 307.582 367.193C309.247 367.377 319.581 367.234 322.973 366.695C324.454 366.463 328.051 362.784 331.894 359.023C333.095 357.842 333.955 357.153 335.177 355.672C335.853 354.853 336.023 353.781 335.102 353.256C335.102 353.256 333.594 352.416 332.761 353.037C332.399 353.31 332.372 353.208 332.46 353.003C332.645 352.573 332.46 352.075 332.024 351.897C331.177 351.556 329.88 351.256 328.604 351.897C326.734 352.832 326.939 352.573 326.939 352.573C326.939 351.693 325.949 350.648 324.652 350.6C322.918 350.532 321.54 351.542 321.274 351.754C321.239 351.781 318.891 352.307 316.81 353.296C314.339 354.47 310.68 352.935 308.756 352.204C305.213 350.867 299.726 350.723 299.214 359.296C299.214 359.535 299.316 359.781 299.494 359.945Z" fill="#F6874E"/>
<path d="M373.099 256.211C369.687 275.582 363.23 279.172 363.23 279.172C335.082 289.519 311.629 277.848 309.247 260.928C306.169 243.946 304.108 235.039 332.727 229.503C361.162 224.009 376.103 239.202 373.099 256.211Z" fill="#1D2436"/>
<path d="M369.919 252.457C367.011 268.872 342.596 264.135 342.596 264.135C337.662 262.845 320.666 259.419 317.465 250.307C314.735 242.54 311.158 233.796 335.436 229.1C357.544 224.828 372.478 238.028 369.919 252.457Z" fill="#3D4C6D"/>
<path d="M366.69 261.405C366.69 261.405 368.711 256.102 366.834 250.355C366.834 250.355 374.253 252.068 366.69 261.405Z" fill="#1D2436"/>
<path d="M324.345 236.322C324.345 236.322 307.548 240.786 305.671 244.048C303.794 247.318 312.182 283.622 319.076 291.465C325.983 299.328 356.595 286.359 362.097 277.752C366.602 270.715 364.404 268.313 363.291 259.078C362.138 249.454 353.66 245.434 351.988 242.123C349.156 236.479 324.345 236.322 324.345 236.322Z" fill="#CE6D3E"/>
<path d="M359.851 263.978C361.087 270.278 354.903 284.666 342.18 288.55C329.41 292.454 319.083 291.458 313.807 277.923C308.394 264.033 322.154 245.079 334.815 241.297C347.429 237.537 355.537 249.809 359.851 263.978Z" fill="#F6874E"/>
<path d="M323 262.498C323.506 264.709 322.632 265.944 321.478 266.217C320.318 266.49 319.315 265.705 318.816 263.487C318.311 261.276 318.844 259.255 320.004 258.982C321.151 258.716 322.495 260.286 323 262.498Z" fill="#34273A"/>
<path d="M339.348 246.335L336.112 249.618" stroke="#34273A" stroke-miterlimit="10" stroke-linecap="round" stroke-linejoin="round"/>
<path d="M322.011 256.321L317.465 256.614" stroke="#34273A" stroke-miterlimit="10" stroke-linecap="round" stroke-linejoin="round"/>
<path d="M337.375 254.648C337.914 252.928 340.822 249.591 344.494 250.615C344.494 250.615 339.573 255.317 337.887 256.894C337.627 257.133 337.273 254.976 337.375 254.648Z" fill="#34273A"/>
<path d="M365.912 253.754C366.028 259.358 363.407 264.272 360.056 264.709C356.705 265.146 353.899 260.941 353.797 255.331C353.695 249.727 356.322 244.853 359.66 244.423C362.998 243.987 365.796 248.164 365.912 253.754Z" fill="#F6874E"/>
<path d="M341.395 229.25C341.395 229.25 314.462 258.429 305.261 262.006C296.033 265.596 300.661 240.553 314.189 231.674C327.642 222.855 341.395 229.25 341.395 229.25Z" fill="#1D2436"/>
<path d="M343.142 228.725C343.142 228.725 343.47 230.766 337.941 234.445C328.372 240.813 309.964 250.628 305.302 252.437C297.917 255.303 303.616 238.99 314.168 231.482C325.41 223.49 343.142 228.725 343.142 228.725Z" fill="#3D4C6D"/>
<path d="M324.707 236.929C324.707 236.929 317.233 248.136 309.431 251.713C309.425 251.72 327.915 243.604 324.707 236.929Z" fill="#1D2436"/>
<path d="M348.248 236.677C348.248 236.677 350.173 250.451 352.937 253.966L358.384 258.859L354.698 239.339L348.248 236.677Z" fill="#3D4C6D"/>
</svg>
