<svg width="619" height="566" viewBox="0 0 619 566" fill="none" xmlns="http://www.w3.org/2000/svg">
<path d="M357.527 444.078C353.971 444.078 258.03 427.498 210.646 427.498C163.263 427.498 128.912 434.601 128.912 434.601L181.034 458.293C181.034 458.293 108.829 485.405 76.7984 495.009C41.2647 505.669 3.94955 512.189 0.393951 521.066C-3.16165 529.952 17.5732 534.099 53.1068 543.575C88.6404 553.052 96.9344 561.346 151.421 562.529C205.908 563.711 260.395 564.011 300.375 565.785C329.98 567.102 400.464 559.564 412.313 556.016C424.155 552.461 411.422 538.246 404.319 538.246C397.215 538.246 518.922 527.586 548.235 514.262C574.337 502.398 546.461 489.388 504.707 486.723C564.785 490.555 546.169 465.756 357.527 444.078Z" fill="#33A86D"/>
<path d="M561.267 494.418C562.45 489.68 579.629 455.92 567.188 467.171C554.747 478.422 557.712 491.454 557.712 491.454C557.712 491.454 555.938 463.024 549.418 474.275C542.905 485.525 538.167 494.411 538.167 494.411C538.167 494.411 547.644 516.92 560.077 497.375" fill="#33A86D"/>
<path d="M457.982 507.076C457.982 507.076 435.414 516.919 411.423 522.249C387.439 527.578 360.783 540.902 310.144 540.019C259.505 539.136 264.737 519.486 264.737 519.486C264.737 519.486 168.294 538.836 131.877 526.396C95.4525 513.955 199.097 460.95 263.951 446.735C328.805 432.52 328.805 432.52 328.805 432.52L457.982 507.076Z" fill="#288453"/>
<path d="M253.741 443.651C253.741 443.651 259.272 442.543 267.574 444.759C275.875 446.974 274.767 453.614 274.213 455.276C273.659 456.938 266.466 460.254 250.417 459.153C234.368 458.053 233.956 457.065 224.959 457.492C215.168 457.956 219.427 441.997 222.189 437.011C224.959 432.033 253.741 443.651 253.741 443.651Z" fill="#EE5D4F"/>
<path d="M252.587 435.933C252.587 435.933 257.303 434.72 265.605 436.936C273.906 439.152 274.774 449.939 274.22 451.6C273.666 453.262 266.473 456.578 250.424 455.478C234.375 454.377 231.343 455.148 222.436 453.816C217.525 453.082 219.434 438.321 222.204 433.336C224.973 428.35 252.587 435.933 252.587 435.933Z" fill="#121721"/>
<path d="M210.122 291.119C210.122 291.119 231.119 288.162 242.782 286.126C254.444 284.09 273.689 279.165 276.608 288.544C279.528 297.923 277.776 317.198 259.115 320.814C240.454 324.429 197.322 336.069 186.798 330.014C176.273 323.958 166.377 300.379 210.122 291.119Z" fill="#121721"/>
<path d="M270.695 300.125C270.695 300.125 277.462 300.918 277.028 311.734C276.594 322.551 267.738 347.927 268.33 353.825C268.921 359.724 263.015 393.955 261.248 407.526C259.474 421.098 260.657 433.494 257.708 439.392C254.759 445.291 260.657 444.115 247.086 444.115C233.515 444.115 225.251 442.341 222.893 440.575C220.535 438.801 222.301 424.054 222.301 424.054C222.301 424.054 225.251 416.973 225.251 415.79C225.251 414.608 223.477 380.384 225.251 371.529C227.025 362.673 229.974 315.462 240.596 304.84C251.225 294.218 270.695 300.125 270.695 300.125Z" fill="#121721"/>
<path d="M540.24 322.019L544.679 431.045L547.06 502.831L517.118 511.065L463.222 520.796L457.982 511.814C457.982 511.814 426.543 513.311 421.303 513.311C416.064 513.311 387.933 496.588 387.933 496.588L389.116 484.739L357.13 489.874L321.694 468.353L336.5 305.281L427.412 296.598L540.24 322.019Z" fill="#7A462F"/>
<path d="M428.991 290.677L498.486 297.788L540.24 322.019L470.505 343.465L458.731 339.617L430.967 337.267L341.538 320.095L336.553 305.386L428.991 290.677Z" fill="#D77D5B"/>
<path d="M431.626 296.995L481.681 304.069L511.758 319.781L461.523 333.681L453.042 331.189L433.048 327.199L368.628 316.068L365.035 306.531L431.626 296.995Z" fill="#B44C29"/>
<path d="M463.222 520.797L465.909 420.184L470.356 380.706L470.453 343.488L458.656 339.685L451.402 375.077L446.245 433.404L439.261 512.383L457.982 511.814L463.222 520.797Z" fill="#A96443"/>
<path d="M388.816 484.888L356.935 489.873L368.089 393.236L372.924 383.265L381.413 329.474L378.456 421.171L374.115 475.756L388.816 484.888Z" fill="#A96443"/>
<path d="M425.832 509.717L423.414 488.391L425.435 471.511L423.818 445.754L420.585 471.511L416.954 484.843L417.763 504.388L425.832 509.717Z" fill="#A96443"/>
<path d="M431.266 337.566L433.931 384.844L425.637 418.604L414.087 439.93L428.302 383.37L415.966 334.505L431.266 337.566Z" fill="#A96443"/>
<path d="M509.737 508.041L528.69 503.303L513.292 462.731L503.816 454.437L508.554 431.936L497.004 421.269L493.748 379.515L491.974 409.726L492.266 425.416L501.151 433.119L494.931 462.731L501.45 473.391L509.737 508.041Z" fill="#A96443"/>
<path d="M481.606 409.427L477.168 436.966L483.38 459.176L479.832 482.276L478.051 457.402L473.612 433.411L481.606 409.427Z" fill="#A96443"/>
<path d="M515.066 330.066L504.998 333.614V351.384L509.737 384.253L506.78 403.798L509.737 411.5L516.848 383.07L513.292 350.202L515.066 330.066Z" fill="#A96443"/>
<path d="M449.134 509.231C449.134 509.231 441.387 497.306 440.646 503.085C439.905 508.864 441.387 510.309 441.387 510.309C441.387 510.309 431.057 494.769 432.532 501.641C434.006 508.505 434.373 510.309 434.373 510.309C434.373 510.309 431.049 503.085 428.467 504.163C425.884 505.241 428.1 508.864 428.1 508.864C428.1 508.864 409.282 492.965 409.282 496.94C409.282 500.915 409.282 500.914 409.282 500.914C409.282 500.914 403.376 492.246 402.642 495.495C401.901 498.744 404.483 501.641 404.483 501.641C404.483 501.641 391.938 486.101 391.204 489.716C390.463 493.332 393.42 493.691 393.42 493.691C393.42 493.691 384.564 484.656 387.888 491.887C391.212 499.11 401.542 513.206 423.676 513.565C445.811 513.932 449.134 509.231 449.134 509.231Z" fill="#288453"/>
<path d="M358.612 487.111C358.612 487.111 358.515 480.494 356.344 480.202C354.173 479.903 355.453 481.976 355.453 481.976C355.453 481.976 353.185 472.103 351.306 473.779C349.428 475.456 351.007 478.817 351.007 478.817C351.007 478.817 350.116 475.067 349.128 475.359C348.14 475.658 348.237 477.238 348.237 477.238C348.237 477.238 345.67 468.158 343.304 469.243C340.939 470.329 343.799 473.585 343.799 473.585C343.799 473.585 342.414 469.64 340.048 471.017C337.683 472.402 339.652 478.42 339.652 478.42C339.652 478.42 336.687 465.98 333.334 466.182C329.98 466.376 334.816 475.262 334.816 475.262L358.612 487.111Z" fill="#288453"/>
<path d="M585.146 436.81C585.146 436.81 567.278 450.12 563.663 503.858L561.903 502.481C561.903 502.481 562.173 458.893 582.009 435.598L585.146 436.81Z" fill="#7A462F"/>
<path d="M569.269 423.321C570.459 419.137 574.307 418.089 583.664 425.035C593.021 431.982 604.324 441.002 604.668 448.472C605.005 455.935 595.439 451.901 585.393 443.884C575.332 435.867 568.079 427.513 569.269 423.321Z" fill="#F5894E"/>
<path d="M569.958 422.445C571.148 418.261 574.996 417.213 584.352 424.159C593.709 431.106 605.012 440.126 605.357 447.596C605.694 455.059 596.127 451.025 586.082 443.008C576.036 434.991 568.768 426.63 569.958 422.445Z" fill="#F7BC4B"/>
<path d="M583.02 432.042C583.327 430.957 584.323 430.687 586.74 432.484C589.158 434.28 592.078 436.608 592.167 438.54C592.257 440.471 589.787 439.423 587.19 437.357C584.585 435.283 582.713 433.128 583.02 432.042Z" fill="#EE5D4F"/>
<path d="M575.782 448.091C575.782 448.091 580.101 437.821 569.628 436.705C559.149 435.59 552.038 445.808 552.038 445.808C552.038 445.808 564.636 449.648 568.775 449.341C572.907 449.034 575.782 448.091 575.782 448.091Z" fill="#288453"/>
<path d="M575.01 449.97C575.01 449.97 583.828 455.457 582.653 463.758C581.478 472.052 579.711 472.269 579.711 472.269C579.711 472.269 572.024 458.091 575.01 449.97Z" fill="#288453"/>
<path d="M514.677 508.431C514.677 508.431 519.416 490.069 512.312 478.818C505.208 467.568 503.427 499.546 506.391 505.467C506.391 505.467 499.287 480.001 490.993 487.696C482.699 495.399 493.359 509.015 493.359 509.015C493.359 509.015 486.846 495.983 482.699 502.502C478.552 509.015 482.108 522.047 495.14 516.126C508.157 510.212 514.677 508.431 514.677 508.431Z" fill="#33A86D"/>
<path d="M519.213 509.225C519.213 509.225 522.769 476.648 528.099 485.533C533.428 494.419 522.178 514.555 519.213 509.225Z" fill="#33A86D"/>
<path d="M478.942 500.34C478.942 500.34 469.465 504.487 471.838 495.601C474.203 486.716 485.454 495.601 478.942 500.34Z" fill="#33A86D"/>
<path d="M545.473 479.215C550.997 479.41 552.075 506.073 543.047 506.073C534.02 506.073 539.941 479.021 545.473 479.215Z" fill="#33A86D"/>
<path d="M533.728 505.766C533.728 505.766 544.978 485.039 534.319 490.96C523.66 496.881 524.251 515.834 533.728 505.766Z" fill="#33A86D"/>
<path d="M553.565 466.977C553.565 466.977 549.418 477.636 543.497 472.898C537.576 468.16 543.497 459.274 548.235 461.647C552.973 464.013 553.565 466.977 553.565 466.977Z" fill="#288453"/>
<path d="M549.417 445.059C549.417 445.059 542.314 452.163 538.167 445.059C534.02 437.956 540.532 435.583 545.869 437.955C551.199 440.321 549.417 445.059 549.417 445.059Z" fill="#288453"/>
<path d="M534.02 462.83C529.282 458.092 534.611 451.579 540.532 453.945C546.461 456.318 538.758 467.568 534.02 462.83Z" fill="#288453"/>
<path d="M535.202 462.83C535.202 462.83 536.385 468.751 531.647 466.977C526.916 465.195 529.281 459.865 535.202 462.83Z" fill="#288453"/>
<path d="M541.917 473.885C541.722 480.795 535.794 479.807 535.203 474.282C534.611 468.75 542.119 466.976 541.917 473.885Z" fill="#288453"/>
<path d="M554.552 404.884C553.37 409.031 545.472 411.793 547.643 403.305C549.814 394.816 555.735 400.745 554.552 404.884Z" fill="#288453"/>
<path d="M541.52 393.828C547.441 393.828 551.191 402.713 539.349 400.543C527.507 398.372 535.599 393.828 541.52 393.828Z" fill="#288453"/>
<path d="M539.155 360.667C543.698 359.283 553.175 365.211 545.667 366.791C538.167 368.362 534.611 362.045 539.155 360.667Z" fill="#288453"/>
<path d="M547.838 371.327C551.588 370.93 556.918 377.248 547.838 377.053C538.758 376.859 544.088 371.724 547.838 371.327Z" fill="#288453"/>
<path d="M548.235 381.791C551.199 385.347 548.429 394.232 543.099 388.109C537.77 381.986 545.278 378.236 548.235 381.791Z" fill="#288453"/>
<path d="M597.983 472.112C597.983 472.112 591.074 492.053 566.791 495.998L567.383 493.236C567.383 493.236 589.098 487.315 595.416 471.326L597.983 472.112Z" fill="#7A462F"/>
<path d="M596.512 476.263C588.722 471.765 583.817 465.675 585.558 462.661C587.298 459.646 595.025 460.849 602.815 465.347C610.605 469.845 615.51 475.935 613.769 478.949C612.029 481.964 604.303 480.761 596.512 476.263Z" fill="#F5894E"/>
<path d="M596.714 474.686C588.923 470.188 584.019 464.098 585.759 461.084C587.5 458.069 595.226 459.272 603.016 463.77C610.807 468.268 615.711 474.358 613.971 477.372C612.23 480.387 604.504 479.184 596.714 474.686Z" fill="#F7BC4B"/>
<path d="M598.739 471.18C595.953 469.571 594.2 467.394 594.822 466.317C595.444 465.239 598.206 465.669 600.992 467.277C603.777 468.885 605.531 471.063 604.908 472.14C604.286 473.218 601.524 472.788 598.739 471.18Z" fill="#EE5D4F"/>
<path d="M591.074 480.794C591.074 480.794 598.777 480.008 599.563 487.307C600.349 494.612 594.63 495.6 594.63 495.6C594.63 495.6 579.232 487.307 591.074 480.794Z" fill="#288453"/>
<path d="M582.982 485.338C582.982 485.338 581.8 480.203 577.653 481.783C573.506 483.362 574.891 485.727 574.891 485.727C574.891 485.727 580.018 489.478 582.982 485.338Z" fill="#288453"/>
<path d="M560.87 495.593C560.87 495.593 565.496 481.386 570.542 481.386C575.587 481.386 573.064 500.638 573.064 500.638C573.064 500.638 575.654 500.459 585.745 501.724C595.835 502.989 595.566 508.843 593.672 510.736C591.778 512.63 598.088 508.214 613.224 510.108C628.367 512.001 611.33 518.94 589.884 518.312C568.438 517.683 586.523 511.163 586.523 511.163C586.523 511.163 556.394 510.295 549.223 505.482C545.929 503.258 555.907 498.176 560.87 495.593Z" fill="#33A86D"/>
<path d="M543.736 424.19C543.736 424.19 534.911 416.914 532.059 423.935C529.207 430.957 538.706 435.822 541.685 431.443C544.664 427.064 543.736 424.19 543.736 424.19Z" fill="#33A86D"/>
<path d="M546.962 452.74C546.962 452.74 537.291 450.008 537.141 458.234C536.992 466.461 543.833 465.346 547.329 460.675C550.832 456.011 546.962 452.74 546.962 452.74Z" fill="#33A86D"/>
<path d="M528.705 410.993C526.886 417.438 534.716 420.522 538.728 415.567C542.741 410.612 530.524 404.548 528.705 410.993Z" fill="#33A86D"/>
<path d="M530.621 445.359C530.621 445.359 528.765 439.61 525.494 443.473C522.23 447.343 526.901 450.838 530.621 445.359Z" fill="#33A86D"/>
<path d="M533.159 431.249C529.611 425.313 524.925 429.07 527.111 434.183C529.297 439.296 536.7 437.185 533.159 431.249Z" fill="#33A86D"/>
<path d="M369.609 449.063C369.609 449.063 360.783 441.787 357.931 448.809C355.079 455.83 364.578 460.696 367.558 456.317C370.537 451.938 369.609 449.063 369.609 449.063Z" fill="#33A86D"/>
<path d="M372.842 477.613C372.842 477.613 363.171 474.881 363.021 483.107C362.872 491.334 369.713 490.219 373.209 485.548C376.705 480.884 372.842 477.613 372.842 477.613Z" fill="#33A86D"/>
<path d="M354.578 435.866C352.759 442.311 360.588 445.396 364.601 440.44C368.613 435.485 356.397 429.421 354.578 435.866Z" fill="#33A86D"/>
<path d="M356.501 470.232C356.501 470.232 354.645 464.483 351.374 468.345C348.11 472.215 352.774 475.711 356.501 470.232Z" fill="#33A86D"/>
<path d="M359.031 456.122C355.483 450.186 350.797 453.944 352.983 459.056C355.161 464.169 362.58 462.058 359.031 456.122Z" fill="#33A86D"/>
<path d="M398.989 262.45C398.989 275.482 387.933 285.348 376.091 290.88" stroke="#34283A" stroke-width="8" stroke-miterlimit="10"/>
<path d="M365.738 278.334L394.326 265.609L365.027 294.151L400.329 282.578L373.149 299.166L411.625 284.51" stroke="#4B3355" stroke-width="5" stroke-miterlimit="10"/>
<path d="M285.629 320.927C285.33 328.488 284.476 331.609 291.587 335.816C298.691 340.015 307.561 337.942 311.394 331.182C315.227 324.423 312.577 315.538 305.473 311.338C298.362 307.131 285.928 313.359 285.629 320.927Z" fill="#34283A"/>
<path d="M289.948 463.249C289.948 463.249 293.915 466.976 289.177 468.765C284.776 470.427 276.205 476.999 264.729 481.393C255.425 484.957 254.624 485.473 252.798 483.819C251.061 482.247 253.075 477.344 259.999 472.561C268.098 466.961 273.562 461.662 276.467 461.235C279.536 460.778 289.948 463.249 289.948 463.249Z" fill="#34283A"/>
<path d="M386.152 283.574C389.505 286.538 389.116 285.153 394.446 289.892C402.605 297.145 363.254 314.175 351.411 320.096C339.569 326.017 325.744 329.176 318.243 327.596C310.743 326.017 310.743 314.175 296.925 314.564C283.106 314.953 315.676 286.927 331.47 280.61C347.265 274.292 374.504 265.609 377.274 265.609C380.036 265.609 382.798 280.61 386.152 283.574Z" fill="#34283A"/>
<path d="M303.452 453.113C303.452 453.113 290.232 456.249 288.174 456.07C286.123 455.897 282.193 449.31 282.193 449.31C282.193 449.31 279.738 385.646 277.193 369.35C274.752 353.743 276.062 330.703 276.294 328.704C276.527 326.713 282.792 323.973 292.253 321.6C301.446 319.295 301.633 336.923 305.802 336.549C309.979 336.175 311.776 335.164 313.632 340.486C315.518 345.891 310.743 356.558 308.744 382.547C306.461 412.399 303.452 453.113 303.452 453.113Z" fill="#4B3355"/>
<path d="M346.762 239.02C346.762 239.02 340.535 235.202 343.753 222.514C346.98 209.826 351.179 203.666 351.179 203.666" stroke="#4B3355" stroke-width="3" stroke-miterlimit="10"/>
<path d="M360.992 211.758C360.992 211.758 356.508 224.476 355.745 227.777C354.974 231.07 352.683 244.731 352.683 244.731" stroke="#34283A" stroke-width="3" stroke-miterlimit="10"/>
<path d="M357.781 205.388C357.781 205.388 342.631 222.148 359.533 241.879" stroke="#665070" stroke-width="5" stroke-miterlimit="10"/>
<path d="M354.091 215.703C354.091 215.703 362.033 218.083 362.505 227.11C362.976 236.13 353.035 241.745 349.577 239.948" stroke="#34283A" stroke-width="3" stroke-miterlimit="10"/>
<path d="M349.532 238.159C349.532 238.159 336.328 218.532 358.911 209.527" stroke="#4B3355" stroke-width="3" stroke-miterlimit="10"/>
<path d="M362.692 236.041C362.692 236.041 356.359 230.644 349.285 233.204C342.211 235.764 342.481 241.618 342.481 241.618" stroke="#34283A" stroke-width="3" stroke-miterlimit="10"/>
<path d="M358.582 239.169C352.765 239.169 348.05 233.167 348.05 225.763C348.05 218.359 352.765 212.356 358.582 212.356C364.399 212.356 369.114 218.359 369.114 225.763C369.114 233.167 364.399 239.169 358.582 239.169Z" fill="#34283A"/>
<path d="M361.314 239.717C356.101 239.717 351.875 233.714 351.875 226.31C351.875 218.906 356.101 212.904 361.314 212.904C366.527 212.904 370.753 218.906 370.753 226.31C370.753 233.714 366.527 239.717 361.314 239.717Z" fill="#34283A"/>
<path d="M361.479 230.135C360.387 230.135 359.503 228.338 359.503 226.122C359.503 223.906 360.387 222.11 361.479 222.11C362.57 222.11 363.455 223.906 363.455 226.122C363.455 228.338 362.57 230.135 361.479 230.135Z" fill="#856792"/>
<path d="M317.33 286.575C321.058 286.896 312.891 302.152 308.931 304.63C304.964 307.107 300.899 305.116 304.455 299.48C308.003 293.836 313.609 286.253 317.33 286.575Z" fill="#665070"/>
<path d="M288.571 309.653C289.768 311.629 292.291 310.004 296.7 306.322C301.109 302.631 313.722 286.829 310.518 284.367C307.314 281.904 295.51 297.571 293.631 299.6C291.759 301.621 287.38 307.669 288.571 309.653Z" fill="#665070"/>
<path d="M296.557 273.954C295.435 270.87 285.202 280.249 283.233 282.495C281.265 284.741 278.39 290.445 279.505 293.214C280.613 295.984 284.176 290.564 290.097 284.449C296.026 278.341 297.68 277.038 296.557 273.954Z" fill="#665070"/>
<path d="M299.866 280.07C301.895 284.307 285.756 299.36 282.26 300.311C278.765 301.261 276.377 297.309 281.938 292.151C287.5 286.994 297.845 275.833 299.866 280.07Z" fill="#665070"/>
<path d="M303.773 287.637C303.773 287.637 294.559 299.666 287.537 305.947C282.612 310.356 281.205 302.406 289.506 293.109C297.8 283.82 305.6 282.165 303.773 287.637Z" fill="#665070"/>
<path d="M295.285 294.704C295.285 294.704 299.484 291.321 301.947 293.162C304.41 295.004 298.676 298.904 304.514 298.799C310.353 298.687 327.151 285.145 341.178 275.803C355.206 266.462 374.459 255.78 371.794 253.527C369.129 251.274 363.081 252 362.564 246.363C362.048 240.726 367.782 235.801 363.163 231.197C358.545 226.594 344.711 228.143 332.937 234.82C321.162 241.497 288.81 271.05 285.741 277.203C282.672 283.356 285.239 288.993 287.605 292.167C289.97 295.341 293.339 295.423 295.285 294.704Z" fill="#493253"/>
<path d="M363.942 216.541C363.942 216.541 361.846 214.318 356.584 213.764C351.321 213.203 349.27 213.652 348.207 204.886C347.145 196.121 348.836 167.676 352.609 154.097C356.382 140.519 364.211 126.379 370.237 126.019C376.263 125.66 372.094 139.86 374.497 145.444C376.899 151.028 382.97 144.014 382.678 159.292C382.386 174.57 381.061 215.374 377.064 224.596C374.856 229.686 372.049 231.056 369.264 229.094C366.472 227.133 369.391 218.458 363.942 216.541Z" fill="#4B3355"/>
<path d="M464.135 272.316C464.135 272.316 438.864 303.905 417.942 310.222L464.135 272.316Z" fill="#665070"/>
<path d="M417.942 291.665L409.252 316.142L442.023 281.005L420.457 319.997L462.556 274.291L456.238 293.641" stroke="#34283A" stroke-width="5" stroke-miterlimit="10"/>
<path d="M462.159 270.736C462.159 270.736 471.239 270.736 472.819 286.927C474.398 303.119 456.628 322.858 456.628 322.858" stroke="#34283A" stroke-width="8" stroke-miterlimit="10"/>
<path d="M384.685 378.866C374.428 377.9 366.823 369.592 367.697 360.311C368.571 351.03 377.595 344.289 387.852 345.255C398.109 346.222 405.715 354.529 404.841 363.811C403.966 373.092 394.942 379.833 384.685 378.866Z" fill="#34283A"/>
<path d="M385.365 502.705C385.365 502.705 388.33 506.852 384.774 509.217C381.218 511.582 373.523 521.059 361.082 529.944C348.642 538.83 347.459 540.012 344.502 538.238C341.538 536.464 344.502 527.579 354.57 518.102C364.638 508.626 370.559 500.923 373.523 500.332C376.48 499.748 385.365 502.705 385.365 502.705Z" fill="#493253"/>
<path d="M401.429 306.831C401.429 306.831 405.584 300.753 410.599 297.766C415.682 294.727 418.369 296.838 424.26 299.368C430.286 301.958 442.375 299.735 453.221 293.036C464.405 286.127 466.261 280.183 478.747 286.935C491.809 294.001 479.413 316.054 468.567 328.944C457.975 341.527 423.377 367.629 411.475 365.997C400.052 364.432 401.25 362.119 392.986 354.424C385.006 346.991 380.47 346.834 376.637 348.091C372.85 349.327 367.393 344.094 368.546 340.277C369.691 336.444 401.429 306.831 401.429 306.831Z" fill="#493253"/>
<path d="M372.333 497.374C372.333 497.374 385.433 501.521 387.484 501.521C389.535 501.521 393.629 495.376 393.629 495.376C393.629 495.376 398.817 438.561 402.23 419.443C405.644 400.325 407.463 377.472 407.275 374.777C407.088 372.082 395.92 363.414 386.361 357.268C376.802 351.123 375.335 364.2 370.559 363.519C365.783 362.838 363.725 361.43 361.674 368.257C359.623 375.084 365.027 401.852 367.415 433.096C369.968 466.579 372.333 497.374 372.333 497.374Z" fill="#493253"/>
<path d="M386.256 494.418C388.307 494.418 391.294 491.753 391.294 491.753C391.294 491.753 395.284 439.796 398.697 420.679C402.111 401.561 404.117 385.377 403.93 382.675C403.742 379.972 396.908 377.764 387.349 371.619C377.79 365.473 377.663 398.027 380.043 429.264C382.588 462.747 384.205 494.418 386.256 494.418Z" fill="#665070"/>
<path d="M378.472 160.161C371.485 160.161 365.821 151.869 365.821 141.642C365.821 131.414 371.485 123.122 378.472 123.122C385.458 123.122 391.122 131.414 391.122 141.642C391.122 151.869 385.458 160.161 378.472 160.161Z" fill="#34283A"/>
<path d="M386.032 160.916C379.773 160.916 374.699 152.625 374.699 142.397C374.699 132.169 379.773 123.878 386.032 123.878C392.291 123.878 397.365 132.169 397.365 142.397C397.365 152.625 392.291 160.916 386.032 160.916Z" fill="#BB83C3"/>
<path d="M386.227 147.69C384.916 147.69 383.854 145.207 383.854 142.143C383.854 139.08 384.916 136.597 386.227 136.597C387.537 136.597 388.599 139.08 388.599 142.143C388.599 145.207 387.537 147.69 386.227 147.69Z" fill="#FFACFF"/>
<path d="M504.011 149.127C504.011 149.127 490.979 164.128 501.645 174.002" stroke="#34283A" stroke-width="3" stroke-miterlimit="10"/>
<path d="M499.872 155.498C499.872 155.498 486.839 170.499 497.506 180.372" stroke="#665070" stroke-width="3" stroke-miterlimit="10"/>
<path d="M500.261 155.198C500.261 155.198 500.852 166.598 502.184 179.78" stroke="#665070" stroke-width="3" stroke-miterlimit="10"/>
<path d="M508.764 168.853C502.65 168.853 497.693 160.562 497.693 150.334C497.693 140.106 502.65 131.815 508.764 131.815C514.878 131.815 519.835 140.106 519.835 150.334C519.835 160.562 514.878 168.853 508.764 168.853Z" fill="#34283A"/>
<path d="M515.374 169.609C509.896 169.609 505.456 161.318 505.456 151.09C505.456 140.862 509.896 132.571 515.374 132.571C520.852 132.571 525.292 140.862 525.292 151.09C525.292 161.318 520.852 169.609 515.374 169.609Z" fill="#BB83C3"/>
<path d="M515.553 156.375C514.404 156.375 513.472 153.892 513.472 150.828C513.472 147.765 514.404 145.282 515.553 145.282C516.703 145.282 517.634 147.765 517.634 150.828C517.634 153.892 516.703 156.375 515.553 156.375Z" fill="#FFACFF"/>
<path d="M441.731 121.094C441.731 121.094 446.866 132.644 449.629 126.327C452.391 120.009 449.629 87.1401 449.629 87.1401L440.549 89.1163C442.121 95.0373 441.731 121.094 441.731 121.094Z" fill="#4B3355"/>
<path d="M464.922 97.6053C464.922 97.6053 472.422 116.162 465.318 123.662C458.215 131.163 454.262 116.948 454.262 116.948" stroke="#34283A" stroke-miterlimit="10"/>
<path d="M466.501 95.2325C466.501 95.2325 469.263 100.757 467.684 106.289C466.104 111.82 456.231 115.369 456.231 115.369" stroke="#34283A" stroke-miterlimit="10"/>
<path d="M469.66 96.0262C469.66 96.0262 475.581 105.9 470.057 111.821C464.532 117.742 456.635 113.4 456.635 113.4" stroke="#34283A" stroke-miterlimit="10"/>
<path d="M444 93.4581C444 93.4581 445.183 115.967 446.762 118.729C448.341 121.491 455.445 120.705 455.445 120.705L457.025 90.696L444 93.4581Z" fill="#34283A"/>
<path d="M440.773 230.502L445.481 275.28" stroke="#34283A" stroke-width="8" stroke-miterlimit="10"/>
<path d="M412.366 227.306C412.366 227.306 419.462 262.196 422.217 272.668" stroke="#4B3355" stroke-width="3" stroke-miterlimit="10"/>
<path d="M417.943 227.014L422.651 271.792" stroke="#665070" stroke-width="5" stroke-miterlimit="10"/>
<path d="M424.455 227.014L429.163 271.792" stroke="#665070" stroke-width="5" stroke-miterlimit="10"/>
<path d="M446.589 229.918L447.151 274.697" stroke="#665070" stroke-width="5" stroke-miterlimit="10"/>
<path d="M435.563 227.882L440.279 272.66" stroke="#665070" stroke-width="5" stroke-miterlimit="10"/>
<path d="M428.961 229.051L433.67 273.829" stroke="#34283A" stroke-width="8" stroke-miterlimit="10"/>
<path d="M414.784 234.417C414.784 234.417 400.172 255.347 413.204 256.529C426.237 257.712 432.554 236.79 432.554 236.79" stroke="#4B3355" stroke-width="3" stroke-miterlimit="10"/>
<path d="M420.308 235.981C420.308 235.981 420.308 258.715 428.602 254.403C436.896 250.092 432.943 234.02 432.943 234.02" stroke="#34283A" stroke-width="3" stroke-miterlimit="10"/>
<path d="M453.873 121.094C453.873 121.094 459.008 132.644 461.77 126.327C464.532 120.009 461.77 87.1401 461.77 87.1401L452.69 89.1163C454.262 95.0373 453.873 121.094 453.873 121.094Z" fill="#665070"/>
<path d="M449.711 254.59C452.885 258.348 470.573 257.876 474.009 254.358C477.961 250.308 480.349 244.417 483.089 233.039C488.224 211.721 487.43 186.053 489.407 172.631C489.407 172.631 499.669 166.314 503.225 161.972C506.78 157.631 509.146 148.551 509.543 138.281C509.939 128.018 506.78 126.438 498.883 124.859C496.66 124.417 491.615 123.437 484.796 122.306C467.422 119.425 438.543 115.547 415.57 116.962C383.584 118.938 383.584 119.724 380.822 133.542C378.06 147.36 377.266 150.916 379.243 153.678C381.219 156.44 383.981 159.599 383.981 159.599C383.981 159.599 374.108 236.198 394.244 248.437C394.244 248.437 397.006 251.993 403.72 246.072C410.435 240.151 413.983 239.754 421.88 240.151C429.777 240.547 440.437 242.127 446.754 250.81C447.847 252.292 448.828 253.542 449.711 254.59Z" fill="#856792"/>
<path d="M441.627 240.929C441.627 240.929 413.197 232.044 400.763 241.521C388.322 250.997 387.14 236.191 385.957 216.646C384.774 197.102 411.423 189.399 422.082 179.331C432.749 169.263 448.738 236.782 441.627 240.929Z" fill="#665070"/>
<path d="M401.968 257.45C401.968 257.45 414.252 262.361 421.887 262.45C430.024 262.548 443.857 266.021 451.5 262.054C459.599 257.854 464.914 256.904 468.2 260.691C471.561 264.569 469.667 271.134 466.471 277.668C463.671 283.387 444.486 292.31 438.191 294.196C432.187 295.993 411.789 291.988 400.045 286.419C389.438 281.389 386.601 276.815 385.208 268.506C383.831 260.31 385.134 250.736 389.123 250.204C393.27 249.65 396.601 251.724 397.53 252.659C398.458 253.603 401.968 257.45 401.968 257.45Z" fill="#856792"/>
<path d="M391.474 257.54C393.405 260.677 392.956 263.82 396.901 271.283C400.995 279.023 421.738 289.466 430.93 288.013C440.848 286.449 430.106 297.909 404.588 286.98C383.824 278.088 385.755 267.316 385.755 262.144C385.755 256.971 389.58 254.456 391.474 257.54Z" fill="#665070"/>
<path d="M384.183 130.174C384.183 130.174 383.592 122.082 396.347 120.825C405.038 119.972 412.77 119.642 417.995 119.537C418.848 119.522 419.005 120.75 418.167 120.945C409.409 122.988 394.857 127.023 391.586 131.941C389.093 135.676 386.601 141.373 384.789 145.954C384.265 147.286 382.282 146.867 382.334 145.437L384.183 130.174Z" fill="#665070"/>
<path d="M438.078 143.602L434.919 178.35L391.878 175.782V141.626L438.078 143.602Z" fill="#4B3355"/>
<path d="M433.916 144.583L447.929 135.039L450.512 135.9L442.397 188.082L439.725 186.989L430.967 178.35L433.916 144.583Z" fill="#665070"/>
<path d="M434.905 147.031L446.896 138.864L449.104 139.598L442.158 184.256L439.875 183.328L432.374 175.925L434.905 147.031Z" fill="#4B3355"/>
<path d="M436.656 149.277L446.799 142.368L448.67 142.989L442.794 180.753L440.863 179.967L434.523 173.71L436.656 149.277Z" fill="#34283A"/>
<path d="M453.177 136.103L447.929 135.04L440.144 187.281L445.062 188.277L453.177 136.103Z" fill="#BB83C3"/>
<path d="M424.852 153.865L425.144 148.932L420.009 148.633V143.011" stroke="#34283A" stroke-width="2" stroke-miterlimit="10"/>
<path d="M428.302 161.47L430.87 161.567L429.979 170.55L431.267 170.842" stroke="#34283A" stroke-width="2" stroke-miterlimit="10"/>
<path d="M420.405 168.379L420.211 172.526L416.655 172.324L416.46 177.16" stroke="#34283A" stroke-width="2" stroke-miterlimit="10"/>
<path d="M413.399 158.012L406.684 157.817" stroke="#34283A" stroke-width="2" stroke-miterlimit="10"/>
<path d="M415.06 168.574L425.286 168.881C426.955 168.933 428.415 167.616 428.557 165.939L428.901 161.867L429.365 156.462C429.515 154.711 428.25 153.229 426.536 153.161L416.004 152.757C414.267 152.69 412.777 154.082 412.68 155.849L412.171 165.415C412.081 167.114 413.376 168.522 415.06 168.574Z" fill="#34283A"/>
<path d="M414.926 166.501L424.32 166.793C425.847 166.837 427.194 165.632 427.322 164.083L428.04 155.347C428.175 153.73 427.007 152.361 425.428 152.301L415.749 151.919C414.155 151.859 412.785 153.132 412.703 154.763L412.261 163.589C412.179 165.153 413.369 166.456 414.926 166.501Z" fill="#BB83C3"/>
<path d="M417.965 162.384L421.85 162.511C422.486 162.533 423.04 162.032 423.085 161.38L423.347 157.787C423.392 157.129 422.913 156.582 422.269 156.552L418.332 156.41C417.688 156.388 417.126 156.904 417.089 157.563L416.872 161.171C416.842 161.822 417.328 162.369 417.965 162.384Z" fill="#9E54C7"/>
<path d="M406.392 150.908L405.599 170.251" stroke="#34283A" stroke-width="7" stroke-miterlimit="10"/>
<path d="M398.495 150.908L397.702 170.251" stroke="#34283A" stroke-width="7" stroke-miterlimit="10"/>
<path d="M447.929 135.039L446.469 136.102L439.261 186.54L440.444 186.839L447.929 135.039Z" fill="#665070"/>
<path d="M308.766 256.738C308.766 256.738 313.033 262.338 321.424 258.453C329.935 254.523 351.815 223.248 360.371 213.861C369.271 204.1 377.034 194.399 370.634 184.788C364.758 175.97 359.585 187.602 354.368 191.308C349.218 194.968 305.914 237.838 304.312 244.881C302.77 251.693 308.766 256.738 308.766 256.738Z" fill="#F5894E"/>
<path d="M308.766 256.739C308.766 256.739 313.033 262.338 321.424 258.453C329.935 254.523 344.524 231.954 353.088 222.567L344.202 223.458L329.83 214.955C317.419 227.65 305.173 241.109 304.32 244.889C302.77 251.694 308.766 256.739 308.766 256.739Z" fill="#CC6D3D"/>
<path d="M274.61 187.43C274.61 187.43 326.334 237.972 329.097 243.893C331.859 249.814 328.7 255.735 321.993 258.108C315.278 260.474 314.492 264.426 295.936 245.869C277.379 227.313 233.948 196.518 236.314 187.827C238.679 179.136 248.949 165.318 274.61 187.43Z" fill="#F5894E"/>
<path d="M362.565 198.584C362.565 198.584 374.115 199.766 378.554 196.51C382.992 193.254 385.365 189.698 386.847 185.551C388.33 181.404 383.883 158.903 377.079 160.378C370.267 161.86 368.194 163.342 364.937 171.628C361.674 179.93 355.753 198.284 362.565 198.584Z" fill="#F5894E"/>
<path d="M369.077 179.593C369.077 179.593 369.077 190.627 372.879 190.627C376.682 190.627 383.531 189.863 386.96 186.06C390.388 182.258 382.012 167.796 377.827 168.934C373.643 170.079 369.077 179.593 369.077 179.593Z" fill="#CC6D3D"/>
<path d="M385.732 181.854C385.29 182.67 382.768 186.592 383.434 187.483C384.429 188.815 386.765 190.372 390.321 185.634C393.876 180.895 394.692 176.636 390.545 177.49C388.03 177.999 386.181 181.038 385.732 181.854Z" fill="#F5894E"/>
<path d="M384.714 177.429C384.714 177.429 379.467 182.542 381.054 184.129C383.501 186.577 384.572 184.818 386.922 182.819C390.65 179.645 391.616 177.018 391.069 175.363C390.515 173.702 388.861 173.425 384.714 177.429Z" fill="#CC6D3D"/>
<path d="M384.182 176.816C384.182 176.816 378.553 182.295 380.26 183.994C382.887 186.622 384.033 184.735 386.555 182.587C390.552 179.181 391.593 176.367 390.994 174.593C390.395 172.818 388.621 172.527 384.182 176.816Z" fill="#F5894E"/>
<path d="M389.063 168.38C390.246 170.745 389.804 172.227 387.139 175.191C384.474 178.156 382.551 181.112 380.769 180.521C378.988 179.93 377.805 178.448 380.769 173.417C383.733 168.387 387.88 166.007 389.063 168.38Z" fill="#CC6D3D"/>
<path d="M388.921 168.08C390.104 170.445 389.662 171.927 386.997 174.892C384.332 177.856 382.409 180.813 380.627 180.221C378.853 179.63 377.663 178.148 380.627 173.117C383.591 168.08 387.731 165.714 388.921 168.08Z" fill="#F5894E"/>
<path d="M369.967 163.342C369.967 163.342 374.653 158.124 378.553 156.829C382.109 155.647 388.322 154.165 391.877 153.865C395.433 153.566 396.616 158.012 394.542 158.304C392.469 158.603 385.365 163.042 382.7 163.342C380.035 163.641 376.188 169.263 373.223 167.781C370.259 166.306 369.967 163.342 369.967 163.342Z" fill="#F5894E"/>
<path d="M372.782 167.93C372.782 167.93 376.488 163.192 380.627 161.56C384.078 160.205 388.472 158.596 389.954 159.636C391.436 160.677 386.99 163.783 384.325 165.265C381.66 166.747 372.782 167.93 372.782 167.93Z" fill="#CC6D3D"/>
<path d="M403.405 156.29L390.298 156.664L390.104 166.949L402.934 166.845L403.405 156.29Z" fill="#FFACFF"/>
<path d="M369.518 183.852C369.518 183.852 376.907 182.834 379.961 176.082C382.281 170.955 383.344 170.199 386.847 168.529C388.591 167.699 393.764 165.872 391.885 162.459C389.901 158.858 380.402 163.432 377.363 164.734C371.667 167.167 357.085 183.276 369.518 183.852Z" fill="#CC6D3D"/>
<path d="M369.376 184.668C369.376 184.668 376.615 182.699 379.744 175.783C382.117 170.536 382.409 170.154 387.641 167.788C391.144 166.201 393.659 165.123 391.885 161.568C390.006 157.803 380.635 162.601 377.521 163.933C371.689 166.433 356.644 184.069 369.376 184.668Z" fill="#F5894E"/>
<path d="M509.737 291.568C509.737 291.568 516.841 289.202 517.732 270.84C518.622 252.478 516.549 242.411 516.549 242.411" stroke="#4B3355" stroke-width="3" stroke-miterlimit="10"/>
<path d="M504.707 248.922C504.707 248.922 505.006 267.876 504.707 272.614C504.407 277.352 502.341 296.597 502.341 296.597" stroke="#34283A" stroke-width="3" stroke-miterlimit="10"/>
<path d="M509.737 241.819C509.737 241.819 518.915 270.84 496.705 289.793" stroke="#665070" stroke-width="5" stroke-miterlimit="10"/>
<path d="M510.037 257.217C510.037 257.217 501.743 256.917 498.486 268.767C495.23 280.609 502.925 292.458 506.78 291.568" stroke="#34283A" stroke-width="3" stroke-miterlimit="10"/>
<path d="M507.372 289.194C507.372 289.194 526.025 268.759 507.372 246.849" stroke="#4B3355" stroke-width="3" stroke-miterlimit="10"/>
<path d="M495.522 280.609C495.522 280.609 503.225 276.17 509.146 282.682C515.067 289.195 512.993 296.897 512.993 296.897" stroke="#34283A" stroke-width="3" stroke-miterlimit="10"/>
<path d="M427.771 317.759C428.183 313.942 411.692 320.252 408.159 323.74C404.626 327.228 407.455 330.342 414.387 327.917C421.319 325.492 427.359 321.584 427.771 317.759Z" fill="#34283A"/>
<path d="M400.883 340.493C399.072 338.973 407.336 335.477 412.845 332.341C417.883 329.482 430.271 322.296 432.195 325.814C434.119 329.332 417.321 337.371 414.866 338.764C412.411 340.156 402.694 342.012 400.883 340.493Z" fill="#34283A"/>
<path d="M437.33 343.15C440.691 344.565 429.463 354.251 426.813 356.078C424.163 357.904 417.568 360.359 414.559 358.982C411.542 357.605 417.86 354.416 425.128 348.877C432.397 343.322 433.969 341.735 437.33 343.15Z" fill="#34283A"/>
<path d="M433.737 337.746C431.768 336.398 427.741 337.476 423.422 340.59C416.423 345.635 409.057 350.119 408.114 351.901C406.355 355.224 410.225 358.451 417.029 353.907C423.841 349.378 437.989 340.665 433.737 337.746Z" fill="#34283A"/>
<path d="M429.216 332.177C429.216 332.177 414.222 338.472 405.876 344.251C400.022 348.308 405.591 351.422 417.523 344.969C429.455 338.524 435.616 331.458 429.216 332.177Z" fill="#34283A"/>
<path d="M513.023 254.837C513.023 254.837 516.077 252.442 523.054 252.442C530.03 252.442 532.65 253.243 535.27 242.86C537.89 232.485 539.634 198.157 536.58 181.389C533.526 164.622 525.239 146.664 517.387 145.466C509.535 144.269 513.023 161.83 509.101 168.222C505.178 174.607 498.194 165.43 496.45 183.792C494.706 202.154 490.754 251.259 494.706 262.824C496.884 269.209 500.38 271.208 504.302 269.209C508.225 267.21 505.612 256.431 513.023 254.837Z" fill="#4B3355"/>
<path d="M504.303 173.41C508.39 172.564 507.245 175.259 511.174 169.27C515.104 163.282 518.697 170.221 519.573 183.792C520.449 197.363 520.449 240.472 516.085 243.669C511.721 246.865 506.054 252.449 505.179 256.843C504.303 261.237 503 266.02 499.505 264.426C496.016 262.831 495.141 258.437 495.141 246.064C495.141 233.69 497.723 186.704 498.629 183.395C499.939 178.597 500.216 174.256 504.303 173.41Z" fill="#34283A"/>
<path d="M421.678 328.771C423.078 326.675 427.097 327.296 426.394 324.055C425.69 320.821 421.753 321.877 424.47 316.195C427.187 310.514 445.676 303.822 461.111 294.233C476.539 284.644 495.103 269.598 496.121 273.221C497.139 276.844 494.721 282.997 500.021 286.021C505.321 289.045 512.23 286.014 514.685 292.601C517.14 299.188 509.438 312.063 497.626 320.634C485.813 329.205 447.316 347.559 439.912 347.821C432.509 348.083 426.394 342.858 424.335 339.123C422.277 335.388 420.278 330.867 421.678 328.771Z" fill="#856792"/>
<path d="M520.598 287.325C512.202 287.325 505.395 278.661 505.395 267.975C505.395 257.288 512.202 248.625 520.598 248.625C528.995 248.625 535.802 257.288 535.802 267.975C535.802 278.661 528.995 287.325 520.598 287.325Z" fill="#34283A"/>
<path d="M524.544 288.118C517.019 288.118 510.92 279.455 510.92 268.768C510.92 258.081 517.019 249.418 524.544 249.418C532.068 249.418 538.167 258.081 538.167 268.768C538.167 279.455 532.068 288.118 524.544 288.118Z" fill="#4B3355"/>
<path d="M524.783 274.293C523.208 274.293 521.931 271.699 521.931 268.499C521.931 265.299 523.208 262.705 524.783 262.705C526.358 262.705 527.635 265.299 527.635 268.499C527.635 271.699 526.358 274.293 524.783 274.293Z" fill="#856792"/>
<path d="M431.626 327.895C431.626 327.895 439.313 342.215 440.361 343.959C441.409 345.703 434.074 347.103 430.234 343.263C426.393 339.423 421.498 334.527 422.898 331.383C424.298 328.239 431.626 327.895 431.626 327.895Z" fill="#665070"/>
<path d="M481.562 51.6747C481.562 51.6747 485.469 63.4868 478.568 70.3884C473.328 75.6283 465.91 71.5412 465.91 71.5412" stroke="#34283A" stroke-miterlimit="10"/>
<path d="M480.065 53.1707C480.065 53.1707 485.304 71.8844 480.065 77.1243C474.825 82.3641 460.602 80.1185 460.602 80.1185" stroke="#34283A" stroke-miterlimit="10"/>
<path d="M488.673 49.0542C488.673 49.0542 492.416 61.7795 482.684 64.7737C472.953 67.7679 466.216 53.5455 466.216 53.5455" stroke="#554B5A" stroke-miterlimit="10"/>
<path d="M481.187 49.0545C481.187 49.0545 489.421 55.7914 490.17 68.5168C490.918 81.2421 474.45 87.9791 474.45 87.9791" stroke="#34283A" stroke-miterlimit="10"/>
<path d="M406.332 81.2418C406.332 81.2418 405.584 92.4701 407.829 96.2128C410.075 99.9556 412.381 103.242 423.549 104.417C437.771 105.914 446.754 105.914 454.239 105.165C459.659 104.627 480.439 101.453 480.439 94.7157C480.439 87.9788 482.684 82.7389 478.942 80.4933C477.901 79.8645 472.062 82.5593 463.971 82.7389C443.026 83.203 406.332 81.2418 406.332 81.2418Z" fill="#4B3355"/>
<path d="M467.713 83.487C466.965 84.2355 463.379 101.482 468.574 100.487C473.612 99.5209 479.016 98.8697 479.308 94.3409C479.975 84.1232 481.749 83.457 475.947 81.9824C469.54 80.3655 468.462 82.7384 467.713 83.487Z" fill="#665070"/>
<path d="M495.41 40.8194C495.41 40.8194 494.661 21.3572 494.661 16.1173C494.661 10.8775 484.181 6.38617 469.959 2.64342C455.737 -1.09932 448.251 -1.09932 425.795 4.14052C403.338 9.38037 402.59 17.6144 402.59 22.8543C402.59 28.0941 400.344 47.5564 401.841 65.5216C403.338 83.4868 403.084 83.1424 411.228 86.945C416.535 89.4227 425.039 91.4289 434.126 91.6834C446.507 92.0277 463.971 84.2802 463.971 84.2802C463.971 84.2802 468.574 82.3565 472.205 73.0146C478.201 57.5645 481.187 53.5523 487.924 52.0552C494.661 50.5581 494.661 49.0535 495.41 40.8194Z" fill="#665070"/>
<path d="M472.204 89.528C468.897 89.528 466.216 85.3388 466.216 80.1711C466.216 75.0035 468.897 70.8143 472.204 70.8143C475.512 70.8143 478.193 75.0035 478.193 80.1711C478.193 85.3388 475.512 89.528 472.204 89.528Z" fill="#34283A"/>
<path d="M473.702 88.3604C470.808 88.3604 468.462 84.694 468.462 80.1712C468.462 75.6485 470.808 71.9821 473.702 71.9821C476.596 71.9821 478.942 75.6485 478.942 80.1712C478.942 84.694 476.596 88.3604 473.702 88.3604Z" fill="#BB83C3"/>
<path d="M489.421 13.8716C489.421 13.8716 475.244 13.8267 468.462 20.6085C461.725 27.3455 464.719 30.3397 464.719 44.5621C464.719 58.7845 464.719 77.4983 466.965 76.0012C469.211 74.5041 472.953 61.7787 479.69 55.0418C486.427 48.3049 490.17 50.5505 491.667 48.3049C493.164 46.0592 493.164 16.8658 489.421 13.8716Z" fill="#856792"/>
<path d="M450.729 66.2702C448.377 66.2702 446.47 62.7513 446.47 58.4104C446.47 54.0696 448.377 50.5507 450.729 50.5507C453.081 50.5507 454.988 54.0696 454.988 58.4104C454.988 62.7513 453.081 66.2702 450.729 66.2702Z" fill="#34283A"/>
<path d="M415.547 64.7728C413.195 64.7728 411.288 61.2539 411.288 56.9131C411.288 52.5722 413.195 49.0533 415.547 49.0533C417.899 49.0533 419.806 52.5722 419.806 56.9131C419.806 61.2539 417.899 64.7728 415.547 64.7728Z" fill="#34283A"/>
<path d="M462.474 18.3631C459.105 20.1596 423.549 13.1232 408.578 16.866C408.578 16.866 406.332 11.6261 413.818 9.38046C421.303 7.13481 438.52 0.397871 451.994 1.14642C465.468 1.89497 490.791 10.129 486.427 10.129C482.685 10.129 473.702 12.3747 462.474 18.3631Z" fill="#856792"/>
<path d="M101.673 481.385C101.673 481.385 93.3788 462.432 90.422 471.317C87.4577 480.203 93.3863 488.497 93.3863 488.497C93.3863 488.497 83.3183 473.69 80.354 479.611C77.3898 485.532 89.8307 492.052 89.8307 492.052C89.8307 492.052 71.4687 487.905 81.5367 493.826C91.6047 499.747 103.447 496.192 103.447 496.192L101.673 481.385Z" fill="#288453"/>
<path d="M219.532 343.091C219.532 343.091 220.52 456.833 220.52 459.079C220.52 461.324 242.632 494.612 242.632 494.612L245.222 517.959L197.554 535.453L167.343 531.411L134.841 544.765L92.7874 518.304L96.343 450.193L101.508 330.957L141.922 340.688L219.532 343.091Z" fill="#7A462F"/>
<path d="M216.777 336.945L219.532 343.69L200.309 351.916L167.373 350.419L165.127 356.408L145.665 355.659L111.741 348.72L101.508 330.957L156.16 329.176L216.777 336.945Z" fill="#D77D5B"/>
<path d="M187.749 338.959L189.328 342.829L178.302 347.545L159.416 346.684L158.128 350.12L146.968 349.693L127.52 345.711L121.652 335.523L152.986 334.505L187.749 338.959Z" fill="#B44C29"/>
<path d="M200.309 351.917L167.373 350.42L165.045 356.124L166.033 382.48L162.874 449.999L166.355 455.127L167.373 531.336L197.622 535.483L195.152 458.278L194.463 436.57L199.388 414.465L200.309 351.917Z" fill="#A96443"/>
<path d="M111.741 348.72L101.508 330.957L92.7874 518.304L104.038 525.407L111.741 348.72Z" fill="#A96443"/>
<path d="M185.772 413.867C185.772 413.867 180.443 457.103 182.808 450.583C185.181 444.078 185.772 413.867 185.772 413.867Z" fill="#7A462F"/>
<path d="M178.668 358.197C178.668 358.197 179.26 373.594 178.668 381.297C178.077 389 178.077 407.354 178.077 407.354L175.712 381.888L178.668 358.197Z" fill="#7A462F"/>
<path d="M193.078 433.411L191.304 457.102L183.601 468.353L184.784 489.679L191.304 501.521L187.157 486.124V467.17L193.669 457.694L193.078 433.411Z" fill="#7A462F"/>
<path d="M107.594 354.05L105.228 370.039L105.819 396.695L102.855 417.422L102.264 396.695V371.821L107.594 354.05Z" fill="#7A462F"/>
<path d="M117.07 531.134L125.364 512.78L122.991 489.088L127.138 454.737L117.662 489.679L121.809 513.371L113.515 529.36L117.07 531.134Z" fill="#A96443"/>
<path d="M112.923 478.428L118.852 453.547L117.661 423.343L124.773 405.58L120.034 406.171L112.923 425.124L115.887 451.773L112.923 478.428Z" fill="#A96443"/>
<path d="M208.97 349.768L212.743 350.09L214.794 361.505L211.32 383.325L214.232 411.501L207.757 382.996L211.275 360.929L208.97 349.768Z" fill="#A96443"/>
<path d="M155.972 366.049L157.484 392.683L151.257 407.601L150.239 446.443L147.192 408.612L153.704 390.684L155.142 363.751" fill="#A96443"/>
<path d="M175.899 532.123L170.771 531.726L173.339 499.748L169.192 464.806L175.113 479.612L176.887 499.748L175.899 532.123Z" fill="#7A462F"/>
<path d="M208.281 532.324L206.499 507.443L216.567 484.35L213.019 458.285L220.123 483.16L209.464 508.633L213.019 530.543L208.281 532.324Z" fill="#A96443"/>
<path d="M245.888 520.475C245.888 520.475 253.591 512.772 250.627 508.034C247.662 503.296 244.114 513.364 244.114 513.364C244.114 513.364 239.967 501.521 238.193 505.661C236.419 509.808 239.967 518.693 239.967 518.693C239.967 518.693 232.265 504.478 229.899 511.589C227.534 518.693 231.673 522.84 231.673 522.84C231.673 522.84 219.232 514.546 219.831 521.066C220.423 527.578 221.313 526.695 221.313 526.695L245.888 520.475Z" fill="#288453"/>
<path d="M211.829 533.208C211.829 533.208 220.714 524.322 215.385 519.584C210.055 514.846 211.829 522.548 211.829 522.548C211.829 522.548 209.464 505.369 205.317 510.107C201.17 514.846 207.682 523.14 207.682 523.14C207.682 523.14 198.797 514.846 198.797 519.584C198.797 524.322 206.499 529.061 206.499 529.061C206.499 529.061 192.284 523.731 195.84 529.061C199.396 534.39 211.829 533.208 211.829 533.208Z" fill="#33A86D"/>
<path d="M179.552 522.054C179.649 523.439 175.405 532.713 169.484 527.975C163.563 523.237 169.484 514.352 174.222 516.724C178.96 519.09 179.454 520.669 179.552 522.054Z" fill="#33A86D"/>
<path d="M174.027 500.144C173.339 501.327 166.924 507.248 162.777 500.144C158.63 493.04 165.142 490.667 170.479 493.04C175.802 495.406 174.716 498.954 174.027 500.144Z" fill="#33A86D"/>
<path d="M160.007 517.907C155.269 513.169 160.599 506.656 166.52 509.022C172.448 511.395 164.745 522.645 160.007 517.907Z" fill="#33A86D"/>
<path d="M161.197 517.908C161.197 517.908 162.38 523.829 157.642 522.054C152.903 520.28 155.269 514.951 161.197 517.908Z" fill="#288453"/>
<path d="M167.904 528.963C167.71 535.872 161.781 534.884 161.19 529.36C160.606 523.828 168.106 522.054 167.904 528.963Z" fill="#33A86D"/>
<path d="M164.85 481.587C164.656 483.855 162.088 490.967 156.167 486.228C150.246 481.49 156.953 475.472 159.723 474.88C162.492 474.289 165.045 479.312 164.85 481.587Z" fill="#33A86D"/>
<path d="M162.08 458.39C162.08 458.39 154.977 465.494 150.83 458.39C146.683 451.286 153.195 448.913 158.532 451.286C163.862 453.651 162.08 458.39 162.08 458.39Z" fill="#33A86D"/>
<path d="M146.683 476.153C141.945 471.414 147.274 464.902 153.195 467.267C159.124 469.64 151.421 480.891 146.683 476.153Z" fill="#33A86D"/>
<path d="M147.866 476.153C147.866 476.153 149.048 482.074 144.31 480.3C139.579 478.526 141.944 473.196 147.866 476.153Z" fill="#33A86D"/>
<path d="M160.501 496.881C160.306 503.79 154.378 502.802 153.787 497.277C153.203 491.753 160.703 489.971 160.501 496.881Z" fill="#288453"/>
<path d="M223.679 441.803C222.496 445.95 214.599 448.712 216.77 440.223C218.941 431.735 224.862 437.656 223.679 441.803Z" fill="#288453"/>
<path d="M210.647 430.746C216.568 430.746 220.318 439.632 208.476 437.461C196.634 435.29 204.726 430.746 210.647 430.746Z" fill="#288453"/>
<path d="M208.281 397.586C212.825 396.201 222.302 402.13 214.794 403.709C207.293 405.281 203.738 398.963 208.281 397.586Z" fill="#288453"/>
<path d="M216.964 408.246C220.715 407.849 226.044 414.167 216.964 413.972C207.885 413.77 213.214 408.635 216.964 408.246Z" fill="#288453"/>
<path d="M217.361 418.71C220.325 422.265 217.556 431.151 212.226 425.028C206.896 418.904 214.397 415.154 217.361 418.71Z" fill="#288453"/>
<path d="M164.454 537.055C164.454 537.055 150.83 534.69 146.092 536.464C141.353 538.238 141.353 538.238 141.353 538.238C141.353 538.238 135.432 531.725 132.468 532.908C129.504 534.091 134.833 538.238 134.833 538.238C134.833 538.238 118.844 525.797 120.027 529.352C121.21 532.908 127.73 538.238 127.73 538.238C127.73 538.238 107.002 517.907 104.038 525.408C101.074 532.908 103.447 532.908 103.447 532.908C103.447 532.908 102.264 514.546 96.3431 516.919C90.422 519.284 96.3431 522.84 96.3431 522.84C96.3431 522.84 70.8774 538.829 107.594 545.94C144.318 553.052 164.454 537.055 164.454 537.055Z" fill="#33A86D"/>
<path d="M88.5358 526.463C88.5358 526.463 104.63 505.242 98.7011 505.242C92.7726 505.242 84.299 528.14 88.5358 526.463Z" fill="#288453"/>
<path d="M86.8439 525.857C86.8439 525.857 89.389 500.443 80.0696 506.372C70.7501 512.3 85.1447 533.484 86.8439 525.857Z" fill="#288453"/>
<path d="M58.0395 518.798C58.0395 518.798 51.2651 498.467 49.5659 508.633C47.8742 518.798 58.0395 518.798 58.0395 518.798Z" fill="#288453"/>
<path d="M60.5771 519.359C60.5771 519.359 67.3515 506.649 59.7312 504.111C52.111 501.574 58.8854 521.904 60.5771 519.359Z" fill="#288453"/>
<path d="M97.0092 537.437C97.0092 537.437 102.092 517.952 107.174 524.726C112.257 531.501 103.784 540.82 97.0092 537.437Z" fill="#288453"/>
<path d="M94.4642 536.591C94.4642 536.591 103.784 523.035 97.8551 518.798C91.9266 514.561 94.4642 536.591 94.4642 536.591Z" fill="#288453"/>
<path d="M315.069 504.148C315.069 504.148 321.619 502.838 331.44 505.458C341.261 508.078 339.951 515.938 339.3 517.899C338.649 519.86 330.13 523.79 311.14 522.48C292.149 521.17 291.662 520.01 281.018 520.519C269.43 521.066 274.468 502.18 277.747 496.289C281.018 490.398 315.069 504.148 315.069 504.148Z" fill="#EE5D4F"/>
<path d="M313.699 495.009C313.699 495.009 319.276 493.572 329.097 496.192C338.918 498.811 339.951 511.574 339.292 513.543C338.641 515.504 330.122 519.434 311.132 518.124C292.141 516.814 288.555 517.735 278.008 516.163C272.2 515.295 274.46 497.823 277.731 491.932C281.017 486.041 313.699 495.009 313.699 495.009Z" fill="#121721"/>
<path d="M173.811 284.023C173.811 284.023 162.575 313.92 166.452 328.382C170.33 342.844 178.1 345.898 192.854 348.181C198.124 348.997 214.502 348.817 233.455 347.238C253.239 345.591 266.998 324.624 256.518 300.154C240.207 262.09 178.467 275.654 173.811 284.023Z" fill="#1D2538"/>
<path d="M260.545 300.476C260.545 300.476 287.493 302.722 302.464 303.47C317.435 304.219 342.137 303.47 345.88 316.195C349.622 328.921 347.377 352.874 323.423 352.126C299.47 351.377 222.092 353.189 208.573 342.499C195.062 331.818 204.404 299.727 260.545 300.476Z" fill="#1D2538"/>
<path d="M337.646 319.19C337.646 319.19 346.231 320.193 345.685 333.914C345.131 347.635 333.903 379.822 334.651 387.308C335.4 394.793 327.914 438.209 325.669 455.426C323.423 472.642 322.577 483.968 318.834 491.453C315.092 498.939 323.363 500.204 306.147 500.204C288.93 500.204 280.007 499.59 277.013 497.345C274.019 495.099 276.264 476.385 276.264 476.385C276.264 476.385 280.007 467.403 280.007 465.905C280.007 464.408 277.762 420.993 280.007 409.764C282.253 398.536 288.975 351.535 302.449 338.061C315.923 324.587 337.646 319.19 337.646 319.19Z" fill="#1D2538"/>
<path d="M324.958 345.164C324.958 345.164 346.239 320.193 345.685 333.914C345.131 347.635 333.903 379.822 334.651 387.308C335.4 394.793 327.914 438.209 325.669 455.426C323.423 472.642 322.577 483.968 318.834 491.453C315.092 498.939 323.363 500.204 306.147 500.204C288.93 500.204 280.007 499.59 277.013 497.344C274.019 495.099 296.528 492.344 296.528 492.344C296.528 492.344 298.302 482.291 298.302 480.794C298.302 479.297 310.862 451.75 313.108 440.522C315.354 429.294 312.217 393.73 309.552 380.997C306.888 368.265 324.958 345.164 324.958 345.164Z" fill="#273252"/>
<path d="M299.417 190.252C309.919 206.765 290.666 256.903 283.076 253.564C276.706 250.757 264.377 203.351 268.981 187.16C269.864 184.061 272.679 180.528 274.962 180.244" stroke="#992C29" stroke-miterlimit="10"/>
<path d="M282.846 263.705C281.303 263.596 280.233 260.96 280.455 257.818C280.676 254.676 282.106 252.216 283.649 252.325C285.191 252.434 286.261 255.07 286.04 258.212C285.818 261.354 284.388 263.813 282.846 263.705Z" fill="#29ABE2"/>
<path d="M302.284 164.24C300.787 164.988 288.062 184.45 288.062 184.45L260.365 170.977L273.091 150.017L302.284 164.24Z" fill="#CC6D3D"/>
<path d="M259.617 298.23C259.617 298.23 264.108 278.019 266.354 274.276C268.6 270.534 283.915 250.256 292.778 236.782C311.491 208.337 306.993 196.113 306.993 196.113C306.993 196.113 294.065 176.456 276.1 168.971C258.135 161.485 243.149 162.743 238.658 164.24C234.166 165.737 220.715 171.927 213.955 182.953C207.645 193.239 186.259 223.375 181.768 245.832C177.277 268.288 173.931 285.647 173.931 285.647C173.931 285.647 198.236 296.733 210.961 298.23C223.687 299.727 259.617 298.23 259.617 298.23Z" fill="#F7BC4B"/>
<path d="M253.883 189.106C253.883 189.106 243.149 162.742 238.658 164.239C234.166 165.737 220.715 171.927 213.955 182.953C207.645 193.238 186.259 223.375 181.768 245.831C177.276 268.288 172.546 284.95 172.546 284.95C172.546 284.95 198.236 296.733 210.961 298.23C216.141 298.836 234.338 275.871 234.338 275.871L227.235 251.588L253.883 189.106Z" fill="#CE9436"/>
<path d="M279.828 206.982C275.554 218.322 277.021 229.685 283.106 232.358C289.192 235.03 301.004 218.936 305.278 207.596C309.553 196.255 304.68 193.964 298.586 191.292C292.501 188.62 284.102 195.641 279.828 206.982Z" fill="#CC6D3D"/>
<path d="M230.783 253.37C230.783 253.37 244.998 217.836 250.328 208.951C250.328 208.951 242.625 238.563 233.747 258.699C230.004 267.18 230.783 253.37 230.783 253.37Z" fill="#CE9436"/>
<path d="M352.497 235.599C366.719 230.359 400.965 211.196 409.948 208.951C418.931 206.705 422.359 209.707 419.125 219.318C415.891 228.929 396.437 240.105 385.957 248.339C375.477 256.573 352.923 266.784 344.689 262.292C336.455 257.801 338.274 240.839 352.497 235.599Z" fill="#F5894E"/>
<path d="M382.207 241.326C397.208 236.588 419.125 219.311 419.125 219.311C415.891 228.923 396.437 240.099 385.957 248.333C375.477 256.567 352.923 266.777 344.689 262.286C336.455 257.794 367.206 246.065 382.207 241.326Z" fill="#CC6D3D"/>
<path d="M413.99 224.543C410.142 222.912 404.708 212.896 408.855 200.455C409.866 197.416 416.348 190.282 418.234 187.378C420.502 183.875 420.996 180.222 424.305 177.16C428.048 173.702 429.979 177.654 429.096 181.801C428.654 183.86 426.034 188.119 425.346 190.881C424.657 193.643 424.851 194.826 424.851 194.826C424.851 194.826 432.06 190.776 434.919 188.014C437.779 185.252 439.56 186.24 440.152 182.587C440.893 177.999 443.857 175.034 446.814 175.334C449.778 175.633 449.778 176.816 448.146 184.563C448.146 184.563 452.151 186.51 451.111 189.601C450.078 192.663 448.446 194.587 448.446 194.587C448.446 194.587 451.178 194.983 450.22 197.551C449.898 198.404 446.964 202.094 446.223 202.88C446.223 202.88 446.994 202.671 447.705 204.46C448.416 206.249 439.531 215.553 436.896 217.836C433.931 220.396 417.838 226.175 413.99 224.543Z" fill="#F5894E"/>
<path d="M342.87 261.657C335.168 257.488 313.512 245.833 300.787 233.856C288.062 221.879 276.564 213.264 283.301 202.035C290.038 190.807 294.454 188.112 303.437 193.352C307 195.426 316.851 208.076 325.152 215.068C337.803 225.72 350.558 235.473 354.57 239.156C363.448 247.3 357.085 269.36 342.87 261.657Z" fill="#F5894E"/>
<path d="M342.87 261.657C335.168 257.488 313.512 245.833 300.787 233.856C288.062 221.879 276.564 213.264 283.301 202.035C290.038 190.807 294.454 188.112 303.437 193.352C307 195.426 316.851 208.076 325.152 215.068C337.803 225.72 349.57 235.473 353.582 239.156C362.467 247.3 357.085 269.36 342.87 261.657Z" fill="#CC6D3D"/>
<path d="M347.661 246.655C339.959 242.486 336.695 242.052 323.97 230.075C311.244 218.098 294.454 188.119 303.437 193.359C307 195.432 316.851 208.083 325.152 215.074C337.803 225.726 349.57 235.48 353.582 239.162C362.467 247.299 361.869 254.35 347.661 246.655Z" fill="#F5894E"/>
<path d="M438.37 195.919L445.01 188.86L448.146 184.563C448.221 184.294 448.91 185.574 445.556 190.065C444.815 191.053 438.37 195.919 438.37 195.919Z" fill="#CC6D3D"/>
<path d="M448.588 194.49C448.588 194.49 443.505 201.84 442.023 203.023C442.023 203.023 447.997 197.177 448.88 194.879L448.588 194.49Z" fill="#CC6D3D"/>
<path d="M288.81 105.853C288.81 105.853 321.649 98.1656 326.14 119.125C330.631 140.084 327.36 162.369 325.114 168.357C322.869 174.345 313.138 172.848 300.412 170.603C287.687 168.357 279.453 164.614 278.704 150.392C277.956 136.169 276.084 105.853 288.81 105.853Z" fill="#CC6D3D"/>
<path d="M298.601 120.525C298.601 120.525 322.644 114.895 325.931 130.241C329.217 145.586 326.821 161.904 325.182 166.291C323.535 170.677 316.409 169.577 307.097 167.938C297.785 166.298 291.752 163.551 291.205 153.139C290.659 142.719 289.289 120.525 298.601 120.525Z" fill="#F5894E"/>
<path d="M279.827 117.082C279.827 117.082 310.518 128.31 323.243 120.076C335.969 111.842 330.729 107.35 318.003 99.8649C305.278 92.3794 294.05 91.6309 282.822 97.6193C271.593 103.608 270.096 115.584 279.827 117.082Z" fill="#273252"/>
<path d="M316.072 106.092C316.072 106.092 310.518 128.309 323.243 120.075C335.969 111.841 330.729 107.35 318.003 99.8644C308.519 95.0887 309.41 96.4211 316.072 106.092Z" fill="#3E4C6F"/>
<path d="M306.775 117.83L308.272 138.041H302.284C302.284 138.041 291.804 156.754 284.319 160.497C281.324 162.354 272.604 162.054 266.615 158.311C260.627 154.569 259.617 142.532 258.868 129.807C258.119 117.081 253.74 109.865 272.342 102.11C299.29 90.882 306.775 117.83 306.775 117.83Z" fill="#273252"/>
<path d="M304.073 139.777C304.073 139.777 305.428 130.974 295.944 128.264C286.46 125.555 288.496 137.741 290.524 143.161C292.553 148.58 297.68 152.63 302.037 150.609C311.581 146.185 304.073 139.777 304.073 139.777Z" fill="#F5894E"/>
<path d="M321.806 135.204C321.679 137.375 322.644 138.386 323.73 138.445C324.815 138.505 325.609 137.607 325.736 135.436C325.863 133.265 325.092 131.461 324.007 131.394C322.921 131.334 321.933 133.033 321.806 135.204Z" fill="#34283A"/>
<path d="M318.902 128.041C318.902 128.041 321.027 124.216 324.478 125.256" stroke="#34283A" stroke-width="2" stroke-miterlimit="10" stroke-linecap="round" stroke-linejoin="round"/>
</svg>
