<svg width="648" height="574" viewBox="0 0 648 574" fill="none" xmlns="http://www.w3.org/2000/svg">
<path d="M31.1362 520.921L0 536.121L86.2351 565.3L178.173 555.733L179.182 540.9L230.149 512.601L188.445 492.327L31.1362 520.921Z" fill="#866694"/>
<path d="M350.295 525.981L230.901 501.5L200.774 487.186L251.993 469.864L241.449 462.519L391.156 422.971L375.338 417.321L431.832 405.735L519.776 408.472L565.159 417.321L553.297 432.011L535.594 436.343L557.253 441.617L537.479 476.642L457.256 484.554V495.849L350.295 525.981Z" fill="#866694"/>
<path d="M525.427 504.513L488.892 507.15L464.035 499.596L356.579 530.77C356.579 530.77 404.204 540.081 428.634 547.316L485.127 544.17L525.427 504.513Z" fill="#866694"/>
<path d="M472.841 455.74L447.317 455.417L438.877 465.746L465.719 467.017L472.841 455.74Z" fill="#634874"/>
<path d="M460.888 445.311L444.86 445.111L439.562 451.594L456.418 452.394L460.888 445.311Z" fill="#634874"/>
<path d="M524.422 409.6L516.606 410.638L504.586 420.901L560.642 421.562L524.422 409.6Z" fill="#634874"/>
<path d="M399.43 432.406L371.383 439.923L357.488 450.79L416.142 443.578L399.43 432.406Z" fill="#634874"/>
<path d="M316.022 459.315L269.882 470.616L288.056 489.542L361.591 468.355L316.022 459.315Z" fill="#634874"/>
<path d="M446.198 403.959V199.269C446.198 199.269 475.261 193.479 493.027 193.479C510.794 193.479 536.553 199.269 536.553 199.269V403.424L446.198 403.959Z" fill="#BB83C3"/>
<path d="M446.197 403.959V227.038L446.497 198.552L477.694 194.115L477.645 229.551L517.562 203.631L536.553 234.106L539.181 413.115C539.181 413.115 525.812 408.61 491.546 408.61C457.281 408.61 446.197 403.959 446.197 403.959Z" fill="#856792"/>
<path d="M446.497 401.601L446.235 227.146L471.454 281.043L475.261 327.574L492.033 341.229L481.607 408.792L457.072 407.103L446.497 401.601Z" fill="#665070"/>
<path d="M516.718 244.661L514.986 272.126C514.986 272.126 523.54 275.333 525.679 281.215C527.817 287.096 522.471 353.927 522.471 353.927L526.748 374.243L527.716 391.448L529.63 392.122L531.025 375.847L526.213 353.392C526.213 353.392 529.421 292.977 529.421 283.888C529.421 274.799 517.659 268.918 517.659 268.918L516.718 244.661Z" fill="#BB83C3"/>
<path d="M506.148 239.758L497.107 269.313L506.415 279.466L511.157 315.967L513.905 280.594L509.799 269.313L506.148 239.758Z" fill="#BB83C3"/>
<path d="M494.327 345.132L486.954 407.221L493.45 407.242H495.588L497 356.29L494.327 345.132Z" fill="#665070"/>
<path d="M463.419 339.844L460.457 364.379L468.118 378.296L469.722 391.662L470.791 379.365L465.536 365.224L463.419 339.844Z" fill="#856792"/>
<path d="M503.148 359L506.254 338.438L505.1 324.366L499.422 320.586L503.148 359Z" fill="#665070"/>
<path d="M507.837 350.628L512.275 407.739L504.03 408.37L507.837 350.628Z" fill="#665070"/>
<path d="M501.277 202.995L506.356 226.472L520.797 199.942L501.277 202.995Z" fill="#BB83C3"/>
<path d="M536.553 199.269L527.085 216.319L536.553 234.085V199.269Z" fill="#BB83C3"/>
<path d="M460.671 210.079V237.999L472.091 244.981L472.727 274.804L479.068 248.788L464.264 231.551L466.803 199.402L460.671 210.079Z" fill="#BB83C3"/>
<path d="M488.798 295.003L493.877 327.152L480.34 325.462L476.956 284.85L488.798 295.003Z" fill="#665070"/>
<path d="M531.244 390.165C531.244 390.165 530.362 381.707 536.216 381.696C542.071 381.686 539.355 389.716 539.355 389.716C539.355 389.716 548.492 389.294 548.118 391.855C547.743 394.416 544.247 397.896 544.247 397.896C544.247 397.896 554.084 395.485 553.288 398.896C552.491 402.307 541.723 403.9 541.723 403.9C541.723 403.9 572.877 406.461 553.518 407.049C534.158 407.637 543.14 407.83 535.035 407.98C526.929 408.129 524.486 406.552 522.663 403.296C520.84 400.04 529.517 401.286 529.517 401.286C529.517 401.286 519.231 392.357 522.567 387.871C525.903 383.386 531.244 390.165 531.244 390.165Z" fill="#33A86D"/>
<path d="M451.149 405.408C451.149 405.408 444.808 386.797 439.728 386.797C434.649 386.797 440.996 396.527 440.996 396.527C440.996 396.527 435.922 391.026 432.537 393.988C429.153 396.95 442.268 403.296 442.268 403.296C442.268 403.296 421.117 403.719 428.308 405.836C435.499 407.953 451.149 405.408 451.149 405.408Z" fill="#33A86D"/>
<path d="M444.808 406.68C444.808 406.68 448.192 391.876 454.533 388.914C460.874 385.952 454.955 398.639 454.955 398.639C454.955 398.639 470.187 397.795 462.152 403.718C454.116 409.642 450.304 407.525 444.808 406.68Z" fill="#33A86D"/>
<path d="M461.702 414.326C459.431 414.383 457.169 414.646 454.944 415.112L456.238 417.972L447.657 417.748C443.535 420.303 444.957 423.303 458.553 423.019C481.415 422.538 476.138 413.968 461.702 414.326Z" fill="#33A86D"/>
<path d="M478.844 410.134C466.488 410.637 470.033 416.079 482.372 415.427C496.749 414.652 491.199 409.626 478.844 410.134Z" fill="#288453"/>
<path d="M490.344 406.039C477.988 406.541 481.533 411.984 493.878 411.332C508.249 410.578 502.699 405.531 490.344 406.039Z" fill="#33A86D"/>
<path d="M514.456 409.84C502.101 410.343 505.645 415.786 517.985 415.133C532.362 414.385 526.812 409.338 514.456 409.84Z" fill="#33A86D"/>
<path d="M535.329 407.525C535.329 407.525 527.309 407.947 529.833 402.451C532.356 396.955 534.907 405.408 534.907 405.408C534.907 405.408 537.446 398.639 538.713 398.639C539.98 398.639 539.141 403.296 539.141 403.296C539.141 403.296 543.37 402.451 543.37 405.435C543.37 408.418 535.329 407.525 535.329 407.525Z" fill="#288453"/>
<path d="M449.459 367.763C451.79 368.87 455.404 375.366 457.072 367.341C458.708 359.481 449.459 361.417 449.459 367.763Z" fill="#33A86D"/>
<path d="M449.459 351.687C441.846 350.842 441.439 358.033 445.23 358.878C449.021 359.722 457.072 352.531 449.459 351.687Z" fill="#288453"/>
<path d="M472.293 372.725C467.893 374.923 469.781 380.889 474.801 377.435C479.821 373.982 476.672 370.528 472.293 372.725Z" fill="#33A86D"/>
<path d="M454.533 349.997C449.459 347.858 448.192 355.915 453.266 357.188C458.339 358.46 459.612 352.098 454.533 349.997Z" fill="#33A86D"/>
<path d="M442.69 345.533C437.616 348.708 442.69 349.767 448.192 347.388C453.693 345.009 447.764 342.357 442.69 345.533Z" fill="#33A86D"/>
<path d="M475.528 400.649C475.614 400.365 475.628 400.063 475.571 399.771C475.513 399.48 475.386 399.206 475.199 398.975C475.012 398.744 474.771 398.562 474.498 398.445C474.225 398.327 473.927 398.278 473.63 398.302C470.294 398.511 466.381 403.718 469.765 405.408C473.149 407.097 475.154 401.708 475.528 400.649Z" fill="#33A86D"/>
<path d="M471.032 387.219C465.958 385.952 462.152 392.721 470.61 394.833C479.068 396.944 476.138 388.492 471.032 387.219Z" fill="#33A86D"/>
<path d="M473.999 382.99C471.037 385.53 475.689 390.181 479.923 386.374C484.158 382.568 476.956 380.434 473.999 382.99Z" fill="#33A86D"/>
<path d="M450.475 105.625L449.405 181.01" stroke="#F7BC4B" stroke-miterlimit="10"/>
<path d="M450.207 37.1899L449.138 90.0507" stroke="#FEED7F" stroke-miterlimit="10"/>
<path d="M532.008 128.882V189.832" stroke="#F7BC4B" stroke-miterlimit="10"/>
<path d="M517.413 178.246V142.206L513.756 149.06V185.229L517.413 178.246Z" fill="#FEED7F"/>
<path d="M529.618 31.0361V72.2843" stroke="#F7BC4B" stroke-miterlimit="10"/>
<path d="M503.672 92.5262V60.9819" stroke="#F7BC4B" stroke-miterlimit="10"/>
<path d="M491.616 50.7112V1.97266" stroke="#F7BC4B" stroke-miterlimit="10"/>
<path d="M470.609 81.8009V17.1084L467.439 24.6951V85.6076L470.609 81.8009Z" fill="#FEED7F"/>
<path d="M474.929 142.713V182.448" stroke="#F7BC4B" stroke-miterlimit="10"/>
<path d="M460.338 75.4546V115.184" stroke="#FEED7F" stroke-miterlimit="10"/>
<path d="M428.361 70.0068L425.56 77.0428L428.361 83.758L430.847 77.0428L428.361 70.0068Z" fill="#FEED7F"/>
<path d="M434.563 141.639L431.761 148.675L434.563 155.39L437.049 148.675L434.563 141.639Z" fill="#F7BC4B"/>
<path d="M489.91 65.147L487.109 72.1776L489.91 78.8928L492.396 72.1776L489.91 65.147Z" fill="#FEED7F"/>
<path d="M558.436 115.907L555.634 122.937L558.436 129.653L560.922 122.937L558.436 115.907Z" fill="#F7BC4B"/>
<path d="M509.671 23.0542L505.298 30.0848L509.671 36.8054L513.547 30.0848L509.671 23.0542Z" fill="#FEED7F"/>
<path d="M540.739 81.3789L536.708 91.4945L540.739 101.156L544.316 91.4945L540.739 81.3789Z" fill="#FEED7F"/>
<path d="M457.682 0L454.078 9.04091L457.682 17.6755L460.879 9.04091L457.682 0Z" fill="#FEED7F"/>
<path opacity="0.39" d="M490.493 174.862C520.162 174.862 544.214 150.811 544.214 121.141C544.214 91.4714 520.162 67.4194 490.493 67.4194C460.823 67.4194 436.771 91.4714 436.771 121.141C436.771 150.811 460.823 174.862 490.493 174.862Z" fill="#FEED7F"/>
<path d="M492.113 103.375L465.108 125.514L465.53 127.626L492.113 145.676C492.113 145.676 492.252 103.375 492.113 103.375Z" fill="#C94039"/>
<path d="M492.113 103.375L480.479 127.204L480.618 128.615L492.113 145.676V103.375Z" fill="#EE5D4F"/>
<path d="M468.07 128.898L483.158 129.037L469.482 129.743L468.07 128.898Z" fill="#EE5D4F"/>
<path d="M492.247 103.375L519.247 125.514L518.824 127.626L492.247 145.676C492.247 145.676 492.103 103.375 492.247 103.375Z" fill="#C94039"/>
<path d="M492.247 103.375L503.881 127.204L503.736 128.615L492.247 145.676V103.375Z" fill="#EE5D4F"/>
<path d="M516.29 128.898L501.202 129.037L514.878 129.743L516.29 128.898Z" fill="#EE5D4F"/>
<path d="M465.108 125.514L492.247 103.375L469.481 129.85L465.536 127.626L465.108 125.514Z" fill="#EE5D4F"/>
<path d="M492.247 103.375L519.246 125.514L518.824 127.626L516.29 128.899L492.247 103.375Z" fill="#EE5D4F"/>
<path d="M558.091 393.425C558.091 393.425 565.869 370.91 582.615 364.498C599.366 358.086 600.561 370.529 600.561 370.529C600.561 370.529 605.944 340.359 620.896 329.958C635.853 319.562 633.458 339.993 628.674 347.019C628.674 347.019 652.004 342.03 647.22 356.72C642.436 371.41 607.487 394.239 581.168 401.308C554.849 408.382 558.091 393.425 558.091 393.425Z" fill="#F4E8D8"/>
<path d="M273.458 304.579C249.127 276.408 250.652 259.317 282.308 260.239C293.775 260.573 312.838 260.143 315.158 277.531C315.893 283.047 315.75 284.16 315.75 284.16C315.75 284.16 323.249 281.482 334.657 287.844C344.402 293.278 343.394 307.437 342.075 311.709C342.075 311.709 367.42 314.139 384.03 316.819C393.517 318.348 353.238 324.23 332.103 324.892C307.761 325.653 289.325 322.952 273.458 304.579Z" fill="#F4E8D8"/>
<path d="M369.941 393.819C369.941 393.819 345.062 390.802 341.639 391.298C338.202 391.794 336.47 390.018 334.732 387.553C332.983 385.083 316.452 380.181 316.452 380.181L303.32 386.835C303.32 386.835 288.369 361.153 277.344 353.692C266.126 346.101 254.297 353.231 254.297 353.231L251.776 358.208C251.776 358.208 258.052 346.559 259.309 335.869C260.57 325.135 249.548 301.788 241.439 291.989C233.215 282.047 206.021 256.923 165.682 266.136C123.71 275.723 100.612 286.453 95.6696 307.337C90.7546 328.117 102.307 369.008 121.31 381.976C121.31 381.976 88.4817 403.708 89.0522 417.078C90.0435 440.219 108.755 453.722 129.677 453.09C150.134 452.473 240.425 429.834 273.341 418.08C305.219 406.697 369.941 393.819 369.941 393.819Z" fill="#F4E8D8"/>
<path d="M274.041 227.595C274.041 227.595 262.055 213.538 253.372 213.129C253.372 213.129 248.412 194.526 207.489 197.006C207.489 197.006 228.986 209.407 238.078 215.609C247.17 221.807 274.041 227.595 274.041 227.595Z" fill="#F4E8D8"/>
<path d="M248.485 137.376C248.485 137.376 249.047 143.565 263.77 154.242C267.255 156.769 276.323 164.2 297.953 172.149C319.583 180.094 344.479 189.119 349.715 192.223C354.951 195.327 340.29 179.318 330.803 177.843C321.311 176.362 316.551 171.873 320.259 167.623C323.967 163.372 322.111 159.016 313.509 153.866C304.907 148.715 284.605 145.297 279.636 147.825C274.671 150.348 256.42 150.048 248.485 137.376Z" fill="#F4E8D8"/>
<path d="M389.078 262.439C389.078 262.439 374.764 252.648 372.884 250.011C371.004 247.374 369.119 239.086 365.353 237.206C361.588 235.321 360.079 235.321 360.079 235.321C360.079 235.321 358.194 228.542 351.04 227.79C343.885 227.038 340.872 234.193 340.872 234.193C340.872 234.193 335.974 232.688 336.354 234.945C336.731 237.206 342.381 240.971 350.668 242.099C358.956 243.227 366.486 249.63 373.641 254.152C380.791 258.674 389.078 262.439 389.078 262.439Z" fill="#F4E8D8"/>
<path d="M594.349 208.108C588.698 209.993 577.403 216.019 576.27 229.576C576.27 229.576 566.102 227.691 560.452 237.864C554.801 248.036 548.775 254.058 548.775 254.058C548.775 254.058 546.514 255.943 560.452 247.655C569.667 242.176 618.073 208.108 627.113 201.329C636.152 194.551 614.684 203.59 604.516 212.63C609.415 202.833 599.999 206.223 594.349 208.108Z" fill="#F4E8D8"/>
<path d="M436.402 295.871C436.402 295.871 440.824 297.527 439.567 298.589C438.311 299.65 437.273 298.841 436.554 299.46C435.64 300.245 434.764 300.521 434.764 300.521C434.764 300.521 432.513 299.912 431.975 298.508C431.432 297.108 431.528 295.019 436.402 295.871Z" fill="#7A4630"/>
<path d="M397.207 277.544C397.621 273.336 400.272 268.923 406.351 275.459C408.117 277.358 412.325 282.561 414.196 284.061C418.008 287.107 419.646 289.135 419.341 291.467C418.927 294.623 417.342 297.732 414.196 297.618C408.512 297.418 396.792 281.752 397.207 277.544Z" fill="#A86243"/>
<path d="M397.207 277.544C397.621 273.336 400.272 268.923 406.351 275.459C408.117 277.358 409.059 287.835 410.935 289.33C414.748 292.377 417.347 297.727 414.2 297.618C408.512 297.418 396.792 281.752 397.207 277.544Z" fill="#7A4630"/>
<path d="M429.195 294.309C429.195 294.309 420.275 288.935 418.466 287.95C414.001 285.522 410.64 297.141 415.2 297.993C419.77 298.846 424.916 300.826 427.458 300.512C430.285 300.169 431.018 295.985 429.195 294.309Z" fill="#A86243"/>
<path d="M419.313 295.861L413.325 291.682C412.496 294.39 412.796 297.508 415.076 297.932C419.646 298.784 424.92 300.826 427.457 300.516C430.285 300.169 419.313 295.861 419.313 295.861Z" fill="#7A4630"/>
<path d="M427.162 294.414L432.075 293.057C435.016 293.59 440.686 297.517 441.904 297.522C443.123 297.527 443.694 299.35 442.575 299.978C441.457 300.607 437.987 297.732 435.854 297.622C433.722 297.513 433.074 300.773 433.174 301.406C433.207 301.621 434.274 300.869 434.726 300.969C435.621 301.168 436.135 302.197 435.664 303.106C435.178 304.039 433.574 304.71 432.803 304.843C432.441 304.905 432.065 304.824 431.765 304.615C430.751 303.91 428.209 302.116 426.538 300.626C424.411 298.722 427.162 294.414 427.162 294.414Z" fill="#A86243"/>
<path d="M425.715 298.684C425.715 298.684 433.574 304.705 432.808 304.838C432.446 304.9 432.07 304.819 431.77 304.61C430.756 303.905 428.214 302.111 426.544 300.621C424.411 298.722 425.715 298.684 425.715 298.684Z" fill="#7A4630"/>
<path d="M362.325 437.81C362.254 437.833 362.187 437.862 362.12 437.895C361.102 438.405 352.814 442.489 351.824 443.612C351.015 444.531 351.339 448.006 351.534 449.577C351.596 450.062 351.919 450.472 352.386 450.643C354.276 451.343 359.264 453.213 364.22 452.861C370.451 452.418 370.355 450.129 375.068 448.096C378.157 446.763 380.042 445.902 380.975 445.464C381.423 445.254 381.632 444.826 381.675 444.35L382.122 439.085C382.18 438.428 381.823 437.833 381.161 437.686C378.095 437.01 369.489 435.491 362.325 437.81Z" fill="#29ACE4"/>
<path d="M365.776 435.9C365.776 435.9 352.79 441.97 351.752 443.074C350.71 444.178 351.51 448.125 351.51 448.125C351.51 448.125 358.079 450.771 364.271 450.414C370.484 450.057 370.541 448.182 375.225 446.33C378.857 444.892 380.813 444.059 381.513 443.755C381.698 443.674 381.822 443.507 381.841 443.321L382.255 438.666C382.293 438.242 381.984 437.852 381.522 437.747C378.804 437.143 373.235 433.668 365.776 435.9Z" fill="#13161F"/>
<path d="M357.574 440.089C357.574 440.089 362.301 438.595 366.79 440.751" stroke="#29ACE4" stroke-width="2" stroke-miterlimit="10" stroke-linecap="round" stroke-linejoin="round"/>
<path d="M361.04 438.214C361.04 438.214 365.771 436.719 370.27 438.871" stroke="#29ACE4" stroke-width="2" stroke-miterlimit="10" stroke-linecap="round" stroke-linejoin="round"/>
<path d="M414.187 428.631C419.727 430.616 427.829 432.606 428.162 435.029C428.496 437.438 428.71 439.984 428.467 440.879C428.286 441.56 427.977 441.96 427.425 442.169C426.025 442.707 423.221 444.011 417.623 444.416C415.21 444.592 409.974 443.217 406.837 440.846C404.352 438.97 401.382 436.79 400.268 435.976C399.977 435.767 399.792 435.448 399.749 435.1L399.425 432.401C399.359 431.849 399.663 431.311 400.187 431.073C402.634 429.945 409.688 427.022 414.187 428.631Z" fill="#29ACE4"/>
<path d="M413.944 426.299C418.775 427.951 427.944 431.664 428.258 434.063C428.543 436.234 428.662 437.424 428.572 438.252C428.529 438.657 427.387 438.828 426.825 439.023C425.402 439.513 422.55 440.694 416.867 441.084C414.415 441.251 409.65 440.542 406.475 438.428C403.843 436.676 400.663 434.629 399.673 433.992C399.478 433.863 399.345 433.673 399.311 433.463L398.987 431.369C398.849 430.469 399.126 426.599 400.125 426.304C403.771 425.223 409.665 424.833 413.944 426.299Z" fill="#13161F"/>
<path d="M413.249 432.568C413.249 432.568 417.9 428.674 423.012 430.293" stroke="#29ACE4" stroke-width="2" stroke-miterlimit="10" stroke-linecap="round" stroke-linejoin="round"/>
<path d="M410.15 430.607C410.15 430.607 414.981 427.104 420.079 428.713" stroke="#29ACE4" stroke-width="2" stroke-miterlimit="10" stroke-linecap="round" stroke-linejoin="round"/>
<path d="M410.431 333.138C413.416 343.386 416.824 364.388 418.899 377.893C420.032 385.242 415.677 422.129 416.086 426.189C416.138 426.722 415.696 427.184 415.134 427.179C413.844 427.17 412.302 427.298 407.87 427.822C403.457 428.341 402.263 429.693 399.978 429.907C397.698 430.121 398.264 427.118 398.264 427.118C398.264 427.118 397.655 425.585 398.721 419.363C399.035 417.526 398.059 390.831 397.631 384.024C396.898 372.399 389.196 355.844 388.634 346.623C387.297 324.584 406.551 319.824 410.431 333.138Z" fill="#FEED7F"/>
<path d="M368.57 338.427C368.57 338.427 367.27 363.322 366.275 374.628C365.557 382.81 365.024 435.762 365.024 435.762C365.024 435.762 368.208 435.51 374.782 435.853L380.085 437.081C380.085 437.081 381.717 438.461 382.289 438.161C382.86 437.862 384.445 436.448 384.721 432.935C385.592 421.815 388.539 383.862 388.424 382.12C388.325 380.549 389.943 358.619 391.638 345.429C392.375 339.683 388.353 328.492 380.346 328.606C374.025 328.692 369.017 332.719 368.57 338.427Z" fill="#FEED7F"/>
<path d="M403.776 347.081C404.528 342.182 410.431 333.138 410.431 333.138C406.551 319.824 385.697 343.691 385.697 343.691C385.697 343.691 396.903 372.4 397.636 384.024C398.064 390.826 399.04 417.526 398.726 419.364C397.659 425.59 398.269 427.118 398.269 427.118C398.269 427.118 397.702 430.122 399.982 429.907C400.03 429.903 400.082 429.831 400.14 429.712C405.219 423.538 404.904 408.848 404.904 408.848C404.267 410.491 403.272 412.576 402.42 414.284C404.152 398.985 406.033 377.964 406.033 377.964C406.033 377.964 403.024 351.979 403.776 347.081Z" fill="#F6BE4A"/>
<path d="M368.57 338.427C368.57 338.427 367.27 363.322 366.275 374.628C365.557 382.81 365.024 435.762 365.024 435.762C365.024 435.762 368.208 435.51 374.782 435.853L380.085 437.081C380.085 437.081 381.717 438.461 382.289 438.161C382.86 437.862 378.638 431.573 378.914 428.06C379.785 416.941 381.66 392.14 381.551 390.398C381.451 388.827 390.4 356.125 390.4 356.125C390.4 356.125 388.353 328.492 380.346 328.606C374.025 328.692 369.017 332.719 368.57 338.427Z" fill="#F6BE4A"/>
<path d="M381.179 414.498C381.179 414.498 379.675 409.981 375.153 403.198C375.153 403.198 374.777 420.901 378.918 429.94C383.06 438.98 381.179 414.498 381.179 414.498Z" fill="#F6BE4A"/>
<path d="M388.225 341.173C376.329 341.283 366.856 344.182 368.984 334.538C371.098 324.951 392.214 323.618 404.771 325.955C416.486 328.135 400.211 341.064 388.225 341.173Z" fill="#F6BE4A"/>
<path d="M387.768 343.691C375.872 343.801 366.856 344.177 368.979 334.533C371.093 324.946 392.209 323.613 404.766 325.95C416.486 328.135 399.754 343.582 387.768 343.691Z" fill="#F6BE4A"/>
<path d="M390.433 331.915C391.104 328.825 388.615 330.787 386.701 331.834C385.287 332.61 384.169 333.19 385.43 334.047C387.458 335.428 390 333.928 390.433 331.915Z" stroke="#FEED7F" stroke-width="3" stroke-miterlimit="10"/>
<path d="M390.809 331.534C390.809 331.534 393.403 334.385 395.822 334.733C398.244 335.085 397.949 331.696 396.345 331.091C394.746 330.487 391.785 330.525 390.809 331.534Z" stroke="#FEED7F" stroke-width="3" stroke-miterlimit="10"/>
<path d="M390.952 331.286C390.952 331.286 394.212 334.314 394.203 338.588" stroke="#FEED7F" stroke-width="3" stroke-miterlimit="10"/>
<path d="M390.195 337.493C390.195 337.493 390.695 332.786 390.952 331.286" stroke="#FEED7F" stroke-width="3" stroke-miterlimit="10"/>
<path d="M371.74 272.227C371.74 272.227 370.431 274.259 370.012 280.886C369.826 283.837 368.436 293.214 368.684 302.639C368.741 304.753 368.531 315.002 368.05 318.795C366.922 327.706 365.875 329.963 367.836 332.352C369.797 334.742 381.703 328.592 391.38 329.011C405.127 329.601 408.312 332.31 410.559 331.938C412.805 331.567 410.987 317.248 410.592 312.855C410.197 308.461 409.421 296.708 408.131 288.768C406.441 278.339 403.971 275.54 403.695 274.55C403.085 272.379 399.963 270.746 395.245 270.066C388.343 269.071 376.766 271.503 371.74 272.227Z" fill="#29ACE4"/>
<path opacity="0.5" d="M371.74 272.227C371.74 272.227 370.431 274.259 370.012 280.886C369.826 283.837 368.436 293.214 368.684 302.639C368.741 304.753 368.531 315.002 368.05 318.795C366.922 327.706 365.875 329.963 367.836 332.352C369.797 334.742 381.703 328.592 391.38 329.011C405.127 329.601 408.312 332.31 410.559 331.938C412.805 331.567 388.724 322.856 388.329 318.457C387.934 314.064 384.187 301.511 386.444 292.848C388.705 284.184 399.963 270.751 395.24 270.066C388.343 269.071 376.766 271.503 371.74 272.227Z" fill="#29ACE4"/>
<path d="M371.383 286.883C371.383 286.883 390.828 281.1 407.632 285.993L408.417 290.411C408.417 290.411 390.604 283.242 370.95 291.153L371.383 286.883Z" fill="#3D4C6D"/>
<path d="M370.326 292.143C370.326 292.143 391.628 286.255 408.431 291.148L408.998 295.566C408.998 295.566 389.781 288.845 370.126 296.756L370.326 292.143Z" fill="#3D4C6D"/>
<path d="M379.013 271.032C378.566 271.08 378.628 271.736 378.628 271.736C380.946 273.783 386.487 276.525 391.18 276.53C395.812 276.539 399.706 276.254 400.615 273.283C401.005 272.003 398.387 270.718 398.387 270.718C398.387 270.718 395.203 269.675 390.961 269.537C386.815 269.399 379.327 270.999 379.013 271.032Z" fill="#7A4630"/>
<path d="M387.544 272.36C383.816 272.236 383.75 271.922 383.717 270.113L383.983 261.664C383.959 260.231 385.421 259.046 387.739 259.122L391.742 259.194C393.994 259.265 395.141 260.507 395.388 261.897C395.388 261.897 396.25 268.105 396.083 270.042C395.917 272.003 391.276 272.484 387.544 272.36Z" fill="#7A4630"/>
<path d="M387.543 272.36C383.816 272.236 395.141 260.507 395.393 261.897C395.393 261.897 396.255 268.104 396.088 270.042C395.917 272.003 391.275 272.484 387.543 272.36Z" fill="#A96344"/>
<path d="M368.331 284.137C368.331 284.137 368.64 297.741 370.378 296.08C376.709 290.025 374.415 278.134 373.815 275.097C373.215 272.06 372.092 271.56 370.173 272.874C367.227 274.892 368.331 284.137 368.331 284.137Z" fill="#7A4630"/>
<g opacity="0.5">
<path opacity="0.5" d="M370.131 296.237C370.136 299.26 370.117 302.283 370.074 305.305C370.06 308.328 369.988 311.356 369.826 314.378C369.655 317.401 369.388 320.414 369.017 323.418L368.708 325.665C368.65 326.041 368.612 326.412 368.546 326.793C368.479 327.169 368.398 327.54 368.317 327.911C368.151 328.649 367.97 329.382 367.841 330.125C367.779 330.496 367.727 330.867 367.713 331.244C367.698 331.615 367.703 332 367.832 332.357C367.546 331.643 367.637 330.848 367.713 330.106C367.803 329.354 367.946 328.606 368.079 327.864C368.151 327.493 368.217 327.121 368.27 326.755C368.322 326.388 368.351 326.007 368.393 325.631L368.631 323.38C368.955 320.381 369.179 317.368 369.355 314.354C369.55 311.341 369.626 308.323 369.741 305.305C369.855 302.278 369.979 299.255 370.131 296.237Z" fill="#29ACE4"/>
</g>
<path d="M403.023 327.873C403.023 327.873 393.931 325.488 388.491 322.518C388.491 322.518 396.75 323.76 400.424 322.713C404.099 321.661 407.598 327.697 403.023 327.873Z" fill="#29ACE4"/>
<path d="M372.768 273.717C372.135 269.909 363.59 275.15 361.61 277.863C358.53 282.08 359.725 283.77 357.554 286.269C353.737 290.668 344.683 304.239 349.705 307.076C354.855 309.984 359.416 304.367 363.091 299.76C365.794 296.366 370.017 292.462 372.378 287.545C373.382 285.465 373.577 278.596 372.768 273.717Z" fill="#7A4630"/>
<path d="M361.406 295.671C357.588 300.069 344.688 304.239 349.71 307.071C354.861 309.98 359.421 304.363 363.096 299.755C365.799 296.361 370.022 292.457 372.383 287.54C373.382 285.465 363.572 293.171 361.406 295.671Z" fill="#A86243"/>
<path d="M345.592 306.628C348.701 299.897 348.624 299.341 352.709 300.045C359.53 301.221 359.016 305.562 357.445 310.217C355.941 314.687 354.922 315.278 353.323 319.395C351.752 323.441 350.21 330.229 350.21 330.229C350.21 330.229 349.976 332.424 346.72 331.771C343.402 331.105 343.145 329.944 342.969 327.359C342.707 323.565 344.393 309.223 345.592 306.628Z" fill="#7A4630"/>
<path d="M350.857 320.528C350.857 320.528 350.714 302.658 354.099 300.921C357.759 299.045 359.796 304.648 357.445 310.218C355.598 314.587 354.922 315.278 353.323 319.395C351.752 323.441 350.21 330.229 350.21 330.229L350.857 320.528Z" fill="#A86243"/>
<path d="M402.785 250.202C402.366 260.841 400.139 264.173 393.065 264.278C387.71 264.358 383.383 257.947 383.397 250.164C383.411 242.381 387.767 236.078 393.117 236.088C398.472 236.097 403.161 240.624 402.785 250.202Z" fill="#273150"/>
<path d="M399.777 248.07C399.758 240.906 399.015 236.807 391.299 236.231C387.272 235.931 383.302 236.307 380.96 237.55C378.842 238.673 377.561 240.425 376.8 245.123C376.228 248.665 375.419 254.786 376.547 260.713C377.271 264.511 382.012 265.944 386.196 266.239C397.002 267.001 398.673 264.049 399.372 258.823C400.315 251.744 399.782 251.007 399.777 248.07Z" fill="#7A4630"/>
<path d="M399.444 240.496C397.749 235.978 394.027 237.359 394.612 240.372C395.74 246.208 396.431 253.491 394.736 259.141C392.87 265.358 387.581 264.791 387.581 264.791C387.581 264.791 388.895 265.234 391.347 265.358C397.673 265.677 398.768 262.245 399.382 256.947C399.906 252.434 400.486 243.275 399.444 240.496Z" fill="#A96344"/>
<path d="M379.303 237.383C378.656 237.773 378.403 238.158 377.942 240.653C377.846 241.176 378.817 239.149 379.689 238.358C380.56 237.568 380.36 238.63 384.92 238.53C389.485 238.425 395.959 237.659 395.959 237.659L396.582 243.966L398.929 249.45L400.357 246.427C400.581 241.057 399.619 237.93 396.097 236.735C389.647 234.55 381.678 235.95 379.303 237.383Z" fill="#273150"/>
<path d="M390.719 246.075C390.633 247.141 390.128 247.227 389.591 247.184C389.053 247.141 388.672 246.989 388.743 245.922C388.815 244.846 389.324 243.994 389.876 244.037C390.424 244.08 390.804 244.999 390.719 246.075Z" fill="#102342"/>
<path d="M388.8 240.705C388.8 240.705 391.013 240.591 391.908 241.671" stroke="#273150" stroke-miterlimit="10" stroke-linecap="round" stroke-linejoin="round"/>
<path d="M383.083 246.327C383.045 247.331 382.607 247.369 382.098 247.326C381.588 247.288 381.203 247.184 381.227 246.179C381.255 245.165 381.693 244.366 382.212 244.408C382.731 244.451 383.121 245.313 383.083 246.327Z" fill="#102342"/>
<path d="M383.259 241.029C383.259 241.029 381.698 240.358 380.156 241.591" stroke="#273150" stroke-miterlimit="10" stroke-linecap="round" stroke-linejoin="round"/>
<path d="M403.252 252.358C402.538 255.233 400.496 257.251 398.668 256.952C398.668 256.952 398.739 250.425 398.716 249.183C398.701 248.402 399.154 245.994 401.1 246.313C403.038 246.632 403.99 249.383 403.252 252.358Z" fill="#A96344"/>
<path d="M402.219 254.409C402.114 255.104 401.457 255.614 400.743 255.552C400.034 255.495 399.529 254.885 399.624 254.195C399.72 253.496 400.376 252.972 401.1 253.034C401.819 253.091 402.323 253.71 402.219 254.409Z" fill="#E2D6C9"/>
<path d="M510.152 345.062C510.152 345.062 509.561 345.767 509.08 345.886C508.6 346.005 505.372 346.271 504.711 345.781C504.049 345.291 504.03 343.015 505.786 342.482C507.548 341.949 512.227 344.225 512.227 344.225L512.065 345.786L510.152 345.062Z" fill="#F4E8D8"/>
<path d="M549.418 332.11C549.418 332.11 541.611 339.122 535.389 341.135L535.413 342.382C534.761 344.101 540.773 343.077 545.443 339.298C549.056 336.375 550.969 333.7 551.069 332.681C551.165 331.667 549.418 332.11 549.418 332.11Z" fill="#F4E8D8"/>
<path d="M550.513 331.796C550.513 331.796 549.289 334.133 543.649 338.412C539.003 341.944 526.669 344.21 513.883 344.862C511.394 344.991 505.401 344.981 505.239 343.61C504.073 333.738 512.065 327.702 523.903 325.722C548.804 321.566 550.513 331.796 550.513 331.796Z" fill="#C93F37"/>
<path d="M493.233 354.882C493.233 354.882 493.347 357.767 493.609 358.543C493.871 359.319 495.19 360.642 495.47 360.909C495.751 361.17 496.561 360.575 496.561 360.575L493.233 354.882Z" fill="#F6874E"/>
<path d="M499.231 350.489C499.231 350.489 501.606 354.454 500.745 355.758C500.435 356.115 500.097 355.539 499.559 354.949C499.007 354.34 498.265 353.706 498.265 353.706C497.96 354.52 497.389 356.686 496.965 358.995C496.789 359.961 497.998 360.494 497.108 361.399C496.556 361.961 493.885 357.791 493.885 357.791C493.885 357.791 491.943 352.931 494.928 350.398C497.898 347.875 499.231 350.489 499.231 350.489Z" fill="#CE6D3E"/>
<path d="M498.122 325.617C498.122 325.617 496.956 326.093 496.17 328.535C495.38 330.996 491.957 345.443 493.19 348.261C493.842 349.76 496.984 349.622 499.612 349.137C502.182 348.661 500.826 345.224 501.402 342.149C501.973 339.097 504.386 330.791 503.863 328.254C503.344 325.726 498.122 325.617 498.122 325.617Z" fill="#C93F37"/>
<path d="M498.498 326.712C498.498 326.712 499.093 336.256 498.307 338.702C497.517 341.163 494.918 344.914 495.951 346.895C496.708 348.342 496.979 349.622 499.607 349.137C502.177 348.661 500.821 345.224 501.397 342.149C501.968 339.098 504.381 330.791 503.858 328.254C503.344 325.726 498.498 326.712 498.498 326.712Z" fill="#972B28"/>
<path d="M494.98 345.514C495.233 345.576 495.356 346.642 498.369 347.333C498.369 347.333 496.423 348.085 494.98 347.333C493.538 346.58 494.728 345.452 494.98 345.514Z" fill="#C93F37"/>
<path d="M494.176 348.913C494.176 348.913 493.828 349.956 494.566 350.108C495.137 350.227 497.789 349.575 499.464 350.022C499.826 350.118 500.14 349.761 500.183 349.437L500.25 348.975C500.283 348.751 500.083 348.547 499.821 348.532C498.517 348.475 495.013 348.375 494.176 348.913Z" fill="#F4E8D8"/>
<path d="M497.96 354.387L498.065 357.972C498.065 358.038 498.079 358.105 498.103 358.167L498.688 359.595C498.793 359.847 498.688 360.166 498.441 360.347C498.155 360.552 497.789 360.49 497.641 360.209L496.151 357.391C496.065 357.224 496.07 357.015 496.175 356.829L496.956 355.42C497.26 354.892 497.946 353.816 497.96 354.387Z" fill="#CE6D3E"/>
<path d="M504.552 309.232C504.552 309.232 500.097 317.034 499.369 320.171C498.631 323.337 496.798 323.97 497.274 326.083C497.512 327.145 499.302 327.021 500.663 327.588C502.924 328.53 503.405 329.839 504.638 328.663C507.085 326.321 508.994 318.843 509.736 315.087C510.474 311.355 508.346 304.848 504.552 309.232Z" fill="#1D2436"/>
<path d="M504.552 309.232C504.552 309.232 500.097 317.034 499.369 320.171C498.631 323.337 496.798 323.97 497.274 326.083C497.388 326.597 497.874 326.835 498.493 327.007C498.493 327.007 498.464 325.674 499.311 323.227C500.159 320.78 502.167 319.681 503.767 316.763C505.6 313.426 508.346 304.848 504.552 309.232Z" fill="#273150"/>
<path d="M504.334 315.382C504.334 315.382 502.953 319.148 503.077 321.785C503.077 321.785 501.82 320.857 501.82 318.272C501.825 315.82 504.334 315.382 504.334 315.382Z" fill="#273150"/>
<path d="M531.381 411.104C531.381 411.104 529.096 416.717 529.868 419.163C530.639 421.61 537.379 421.348 542.063 420.834C546.742 420.32 548.099 416.402 544.829 411.618C541.559 406.83 531.381 411.104 531.381 411.104Z" fill="#EC6141"/>
<path d="M531.45 409.381C531.45 409.381 529.166 414.994 529.937 417.44C530.708 419.887 537.448 419.625 542.132 419.111C546.811 418.597 548.168 414.679 544.898 409.895C541.623 405.102 531.45 409.381 531.45 409.381Z" fill="#13161F"/>
<path d="M522.018 352.502C522.018 352.502 523.58 362.289 525.193 369.567C526.312 374.613 527.216 388.165 529.192 399.18C530.134 404.44 526.136 403.702 530.196 408.972C531.915 411.204 533.99 407.225 538.731 407.967C543.544 408.72 544.272 410.267 545.581 407.72C547.795 403.417 543.701 401.984 543.053 395.762C542.306 388.613 541.259 376.512 538.788 368.972C537.16 363.998 537.484 355.039 536.703 346.847C536.289 342.472 537.037 339.007 535.094 338.183C529.582 335.846 517.463 330.025 522.018 352.502Z" fill="#48598B"/>
<path d="M522.018 352.502L525.993 361.204C527.112 366.249 529.606 388.294 531.582 399.304C532.524 404.564 528.402 402.698 532.462 407.967C534.181 410.2 533.995 407.225 538.741 407.967C543.553 408.72 544.282 410.267 545.591 407.72C547.804 403.417 543.71 401.984 543.063 395.762C542.316 388.613 541.268 376.512 538.798 368.972C537.17 363.998 537.494 355.039 536.713 346.847C536.299 342.472 537.046 339.007 535.104 338.183C529.582 335.846 517.463 330.025 522.018 352.502Z" fill="#273150"/>
<path d="M501.997 411.833C501.997 411.833 497.527 412.785 497.075 415.584C496.594 418.545 497.156 419.787 498.498 420.211C499.878 420.649 502.078 421.406 505.024 421.21C510.527 420.844 510.246 420.749 514.682 416.407C518.99 412.19 515.596 410.652 515.22 409.938C514.854 409.229 501.997 411.833 501.997 411.833Z" fill="#EC6141"/>
<path d="M505.968 409.1C505.968 409.1 497.391 412.642 496.991 415.189C496.572 417.869 497.79 419.244 505.026 419.082C510.448 418.959 510.162 417.883 514.46 413.989C518.664 410.181 515.646 409.662 515.27 409.01C514.903 408.367 505.968 409.1 505.968 409.1Z" fill="#13161F"/>
<path d="M508.071 341.645C508.071 341.645 505.419 371.553 505.843 375.228C506.252 378.788 505.834 386.895 505.405 388.385C504.982 389.856 504.682 405.217 504.363 406.969C504.049 408.687 503.672 408.52 504.187 409.449C504.696 410.372 507.333 409.263 509.823 409.32C515.411 409.444 515.892 411.591 516.601 410.639C517.315 409.672 516.825 406.831 517.082 405.65C517.344 404.455 517.639 400.68 517.401 399.367C517.163 398.034 518.781 378.693 518.638 375.623C518.486 372.467 520.276 359.1 520.814 355.735C521.366 352.274 523.741 336.904 516.944 335.281C510.132 333.653 508.899 335.338 508.071 341.645Z" fill="#48598B"/>
<path d="M508.071 341.644L507.095 352.859C507.095 352.859 510.989 356.625 511.993 358.51C512.388 359.252 513.416 387.623 513.697 394.73C513.792 397.172 510.989 405.588 510.989 405.588L512.598 405.14C511.112 409.401 509.08 409.305 509.827 409.324C515.416 409.448 515.896 411.595 516.606 410.643C517.32 409.677 516.829 406.835 517.086 405.654C517.348 404.459 517.643 400.685 517.405 399.371C517.167 398.038 518.786 378.697 518.643 375.627C518.491 372.471 520.28 359.105 520.818 355.739C521.37 352.279 526.002 336.57 519.205 334.947C512.383 333.314 508.899 335.337 508.071 341.644Z" fill="#273150"/>
<path d="M508.328 355.173C508.328 355.173 510.275 356.396 511.674 358.005C513.074 359.614 514.487 365.293 514.487 365.293L508.328 355.173Z" fill="#48598B"/>
<path d="M506.595 376.413C506.595 376.413 508.099 377.588 509.608 377.588C511.113 377.588 508.699 379.207 507.442 378.578C506.186 377.95 506.595 376.413 506.595 376.413Z" fill="#273150"/>
<path d="M525.069 298.122C525.069 298.122 509.075 302.635 507.861 306.576C507.133 308.928 506.623 328.768 507.038 337.727C507.318 343.777 507.775 343.701 507.775 343.701C507.775 343.701 513.74 341.168 521.228 340.526C529.563 339.812 535.042 340.521 537.169 340.364C537.507 340.34 539.064 338.627 538.988 338.293C537.802 333.067 529.829 297.166 525.069 298.122Z" fill="#F6BE4A"/>
<path opacity="0.5" d="M512.35 308.78C512.35 308.78 509.075 302.63 507.856 306.576C507.128 308.928 506.619 328.768 507.033 337.727C507.314 343.777 507.771 343.701 507.771 343.701C507.771 343.701 511.912 339.436 519.4 338.793C527.735 338.079 535.037 340.521 537.165 340.364C537.503 340.34 539.059 338.626 538.983 338.293C538.393 335.68 518.081 322.223 518.081 322.223L512.35 308.78Z" fill="#F6BE4A"/>
<path d="M514.763 300.964C514.763 300.964 514.225 301.773 514.349 302.649C514.844 306.167 516.163 315.197 517.491 315.178C518.843 315.159 519.428 314.773 520.532 309.128C520.766 307.923 523.408 298.774 522.208 298.132" stroke="#913636" stroke-miterlimit="10"/>
<path d="M518.08 318.171C518.472 318.13 518.714 317.37 518.62 316.473C518.526 315.576 518.132 314.882 517.74 314.923C517.348 314.964 517.106 315.725 517.2 316.621C517.294 317.518 517.688 318.212 518.08 318.171Z" fill="#29ACE4"/>
<path d="M513.197 295.452L514.549 300.326C514.549 300.326 514.521 303.825 517.477 303.473C520.414 303.12 520.376 301.683 520.537 299.812C520.656 298.441 519.147 293.291 519.147 293.291L513.197 295.452Z" fill="#CE6D3E"/>
<path d="M513.197 295.452L514.549 300.326C514.549 300.326 514.521 303.825 517.477 303.473L516.263 300.507L513.197 295.452Z" fill="#F6874E"/>
<path d="M512.35 308.78C512.35 308.78 512.483 325.069 511.483 328.344C510.484 331.619 513.925 336.703 512.373 337.527C509.941 338.826 504.167 345.238 504.019 344.329C503.534 336.898 506.104 325.022 505.328 319.948C504.553 314.868 505.09 309.675 505.519 308.656C506.752 305.71 510.574 302.811 511.355 303.477C512.131 304.144 512.35 308.78 512.35 308.78Z" fill="#972B28"/>
<path d="M514.035 302.773C513.987 302.364 514.04 301.221 513.678 301.307C512.664 301.54 509.518 302.816 509.589 304.601C509.689 307.057 512.336 320.195 512.336 320.195C512.336 320.195 515.039 311.113 514.035 302.773Z" fill="#F4E8D8"/>
<path d="M506.804 330.924L507.523 332.809C507.523 332.809 505.328 335.732 504.429 335.637L504.633 333.509C504.628 333.514 505.89 332.276 506.804 330.924Z" fill="#F4E8D8"/>
<path d="M523.022 300.388C522.708 302.421 523.593 310.722 524.336 319.034C525.131 327.987 530.415 334.68 532.052 335.699C548.056 327.697 550.874 332.333 550.874 332.333C550.874 332.333 550.65 323.699 547.666 319.905C543.667 314.816 543.329 317.796 539.002 305.577C537.26 300.664 532.738 293.214 529.344 295.028C526.221 296.694 523.336 298.355 523.022 300.388Z" fill="#972B28"/>
<path d="M523.022 300.388C522.708 302.421 523.593 310.722 524.336 319.034C525.131 327.988 530.415 334.68 532.052 335.699C542.372 331.52 536.351 329.511 536.351 329.511L530.829 328.254L534.094 327.373L529.953 324.108C528.206 319.196 523.336 298.356 523.022 300.388Z" fill="#C93F37"/>
<path d="M521.266 298.503C520.395 299.95 521.147 313.122 524.146 316.911C524.146 316.911 526.249 299.146 525.764 297.699C525.278 296.247 522.132 297.056 521.266 298.503Z" fill="#F4E8D8"/>
<path d="M531.676 321.618L531.543 323.622C531.543 323.622 538.121 326.902 540.325 325.621L539.621 323.722C537.112 324.374 531.676 321.618 531.676 321.618Z" fill="#F4E8D8"/>
<path d="M532.414 334.994C531.862 335.242 531.69 336.046 532.133 336.475C532.228 336.565 532.333 336.627 532.452 336.632C532.99 336.651 541.377 332.186 545.719 331.772C548.746 331.481 550.288 331.938 549.96 332.967C549.86 333.286 551.041 332.852 551.083 332.505L551.045 332.576C551.102 332.115 551.069 331.743 550.788 331.396C550.184 330.648 548.342 329.339 545.028 330.149C541.477 331.024 534.77 333.947 532.414 334.994Z" fill="#F4E8D8"/>
<path d="M537.959 305.139C537.959 305.139 539.544 313.521 542.314 316.211C545.085 318.905 547.931 323.856 548.431 329.991" stroke="#C93F37" stroke-width="0.25" stroke-miterlimit="10"/>
<path d="M512.373 337.531L512.916 338.94C512.916 338.94 506.975 343.682 506.138 344.838C505.3 346 503.819 345.686 504.019 344.334C504.224 342.982 511.578 337.498 512.373 337.531Z" fill="#F4E8D8"/>
<path opacity="0.5" d="M525.426 326.554C525.426 326.554 523.55 324.112 521.974 322.851C521.346 322.351 518.709 321.656 518.709 321.656C518.709 321.656 519.904 322.784 521.913 324.355C523.917 325.926 525.426 326.554 525.426 326.554Z" fill="#F6BE4A"/>
<path opacity="0.5" d="M509.232 310.175L506.847 318.21L506.723 337.417C506.723 337.417 504.172 345.243 504.024 344.338C503.539 336.908 506.109 325.031 505.333 319.957C504.557 314.878 505.095 309.684 505.524 308.666C506.757 305.719 510.579 302.82 511.36 303.487C512.131 304.144 509.232 310.175 509.232 310.175Z" fill="#972B28"/>
<path d="M530.952 282.923C529.296 281.904 530.771 280.619 530.89 280.09C531.095 279.176 530.405 279.533 530.576 278.329C530.738 277.215 529.205 268.604 528.282 266.181C527.358 263.758 527.544 260.726 530.633 259.993C535.579 258.817 535.584 259.526 536.641 262.406C538.026 266.181 539.763 271.674 540.52 275.235C541.153 278.224 542.029 282.451 539.83 283.513C537.621 284.57 532.347 283.779 530.952 282.923Z" fill="#C93F37"/>
<path d="M534.694 283.732C533.038 282.713 534.513 281.428 534.632 280.9C534.837 279.986 534.147 280.343 534.318 279.139C534.48 278.025 532.652 265.748 531.724 263.325C530.8 260.902 527.54 260.721 530.629 259.988C535.575 258.813 535.58 259.522 536.636 262.402C538.022 266.177 539.759 271.67 540.516 275.23C541.149 278.22 542.025 282.447 539.826 283.508C537.622 284.57 536.089 284.589 534.694 283.732Z" fill="#972B28"/>
<path d="M538.955 303.582C538.955 303.582 540.706 295.913 540.316 292.671C539.93 289.43 541.696 283.603 541.182 282.261C540.487 280.433 537.536 283.361 535.232 283.127C531.515 282.756 530.486 282.751 530.158 284.774C529.606 288.23 528.706 295.328 528.101 296.699C527.502 298.074 534.704 304.615 536.846 305.162C538.788 305.657 538.955 303.582 538.955 303.582Z" fill="#273150"/>
<path d="M538.955 303.582C538.955 303.582 540.707 295.913 540.316 292.671C539.931 289.43 541.697 283.603 541.183 282.261C540.488 280.433 537.536 283.361 535.232 283.127C533.723 283.204 534.461 291.248 532.957 293.038C531.453 294.828 530.634 294.418 528.106 296.703C527.902 297.289 528.935 298.712 530.439 300.254C532.581 302.454 535.594 304.848 536.851 305.167C538.788 305.657 538.955 303.582 538.955 303.582Z" fill="#1D2436"/>
<path d="M530.5 260.593C530.476 260.588 530.457 260.583 530.438 260.574C530.138 260.469 528.696 260.802 527.796 259.831C527.082 259.06 524.269 257.094 523.954 255.499L523.678 254.1C523.655 253.976 523.678 253.848 523.745 253.738L523.759 253.71C523.945 253.405 524.373 253.376 524.597 253.653L526.206 255.119L527.334 254.881L527.244 252.272L525.735 249.078C525.706 248.997 525.697 248.911 525.711 248.83L525.897 247.526C525.925 247.326 526.068 247.164 526.258 247.107L526.392 247.069C526.468 247.045 526.539 247.007 526.596 246.955L526.744 246.817C526.972 246.603 527.339 246.646 527.515 246.907L527.629 247.079C527.777 247.293 528.058 247.369 528.291 247.245L528.429 247.174C528.51 247.131 528.596 247.112 528.686 247.117L529.153 247.136C529.352 247.145 529.529 247.264 529.605 247.45L530.971 250.696C531.176 251.187 531.904 251.073 531.952 250.544C532.004 249.978 532.056 249.468 532.099 249.297C532.123 249.202 532.142 249.097 532.156 248.988C532.213 248.602 532.666 248.416 532.98 248.654C533.084 248.735 533.156 248.85 533.18 248.983L534.127 254.633C534.132 254.666 534.136 254.695 534.132 254.728C534.122 255.181 534.008 258.841 533.008 259.855C532.037 260.826 530.728 260.636 530.5 260.593Z" fill="#F6874E"/>
<path d="M533.133 260.721C532.571 260.85 530.158 261.392 528.811 261.445C528.611 261.454 528.425 261.34 528.335 261.159L528.22 260.931C528.063 260.616 528.268 260.24 528.616 260.202C529.696 260.079 531.686 259.798 532.367 259.36C532.857 259.046 533.266 258.822 533.552 258.684C533.79 258.565 534.075 258.655 534.213 258.884L534.38 259.169C534.504 259.384 534.461 259.65 534.271 259.812L533.342 260.612C533.285 260.664 533.214 260.702 533.133 260.721Z" fill="#F4E8D8"/>
<path d="M523.584 289.85C521.889 295.758 519.766 296.657 519.766 296.657C510.684 298.947 505.352 294.339 505.167 289.003C504.767 283.624 505.69 281.496 511.921 280.225C520.785 278.421 525.074 284.666 523.584 289.85Z" fill="#1D2436"/>
<path d="M523.327 288.283C521.884 293.286 514.454 291.015 514.454 291.015C512.964 290.454 507.794 288.831 507.099 285.893C506.504 283.39 505.681 280.557 513.378 279.896C520.385 279.291 524.593 283.88 523.327 288.283Z" fill="#3D4C6D"/>
<path d="M512.045 280.838C512.045 280.838 506.68 281.671 505.99 282.623C505.3 283.58 506.714 295.133 508.599 297.794C510.489 300.464 520.423 297.437 522.418 294.947C524.046 292.91 523.446 292.091 523.403 289.182C523.36 286.155 520.856 284.627 520.447 283.542C519.747 281.699 512.045 280.838 512.045 280.838Z" fill="#CE6D3E"/>
<path d="M506.219 287.45C505.529 288.406 506.714 295.133 508.599 297.798C509.86 299.569 516.506 298.522 515.197 295.613C514.682 294.476 513.607 290.082 511.117 288.459C508.113 286.498 506.595 286.931 506.219 287.45Z" fill="#F6874E"/>
<path d="M509.855 288.478C509.941 289.183 509.627 289.535 509.26 289.583C508.894 289.63 508.603 289.354 508.522 288.65C508.442 287.945 508.67 287.336 509.037 287.288C509.408 287.241 509.774 287.774 509.855 288.478Z" fill="#34273A"/>
<path d="M515.925 286.541C516.011 287.245 515.697 287.597 515.33 287.645C514.964 287.693 514.673 287.416 514.592 286.712C514.507 286.007 514.74 285.398 515.107 285.351C515.478 285.308 515.844 285.836 515.925 286.541Z" fill="#34273A"/>
<path d="M515.154 284.075C515.154 284.075 514.364 283.794 513.726 284.27" stroke="#34273A" stroke-miterlimit="10" stroke-linecap="round" stroke-linejoin="round"/>
<path d="M509.17 285.836C508.432 286.022 507.98 286.617 507.98 286.617" stroke="#34273A" stroke-miterlimit="10" stroke-linecap="round" stroke-linejoin="round"/>
<path d="M524.384 287.617C524.236 289.364 523.26 290.801 522.204 290.83C521.147 290.858 520.414 289.459 520.566 287.712C520.719 285.97 521.694 284.537 522.746 284.513C523.798 284.489 524.531 285.879 524.384 287.617Z" fill="#CE6D3E"/>
<path d="M515.339 280.062C515.339 280.062 514.73 282.009 510.279 284.18C508.042 285.27 506.509 286.936 505.3 287.264C502.315 288.078 504.543 281.376 509.037 279.063C513.507 276.763 515.339 280.062 515.339 280.062Z" fill="#1D2436"/>
<path d="M515.611 280.476C515.611 280.476 515.544 281.1 513.706 282.061C510.527 283.727 507.109 284.813 505.6 285.222C503.21 285.87 505.514 280.99 509.042 279.005C512.793 276.887 515.611 280.476 515.611 280.476Z" fill="#3D4C6D"/>
<path d="M512.135 281.038C512.135 281.038 509.446 284.275 506.904 285.132C506.904 285.132 512.911 283.218 512.135 281.038Z" fill="#1D2436"/>
<path d="M519.495 281.871C519.495 281.871 519.642 286.212 520.385 287.398L521.918 289.097L521.413 282.914L519.495 281.871Z" fill="#3D4C6D"/>
<path d="M299.081 238.572C299.081 238.572 294.502 232.246 287.961 232.465C281.421 232.684 277.931 236.825 283.382 239.005C288.832 241.19 296.901 242.062 299.081 238.572Z" fill="#273150"/>
<path d="M290.575 240.1C290.575 240.1 279.455 239.01 280.326 243.152C281.197 247.293 288.613 245.77 290.137 244.68C291.665 243.59 290.575 240.1 290.575 240.1Z" fill="#273150"/>
<path d="M295.373 234.432C299.952 233.123 312.471 229.891 318.269 240.758C324.067 251.625 319.359 256.895 319.359 256.895C319.359 256.895 324.59 262.126 321.758 270.633C318.926 279.139 303.341 277.411 303.341 277.411C303.341 277.411 283.329 293.796 273.347 272.813C270.068 265.92 278.798 261.036 278.798 261.036C278.798 261.036 271.438 260.322 272.909 253.187C274.437 245.77 285.557 243.809 285.557 243.809C289.703 239.882 290.793 235.741 295.373 234.432Z" fill="#273150"/>
<path d="M240.402 363.574C240.388 366.107 249.975 366.959 252.522 370.305C256.197 375.132 253.164 375.418 285.71 376.87C312.038 378.045 333.797 368.615 333.725 367.016C333.24 361.751 299.866 348.094 280.05 348.675C266.255 349.08 251.479 355.606 244.363 360.085C241.24 362.046 240.412 361.937 240.402 363.574Z" fill="#EC5E4D"/>
<path d="M310.495 340.592C306.287 343.448 304.821 350.393 306.487 357.905C308.153 365.412 308.087 383.367 310.219 386.656C312.347 389.946 318.764 391.05 323.362 388.589C328.774 385.69 328.917 379.159 328.965 372.742C329.012 366.326 329.831 355.563 328.479 347.237C327.123 338.912 314.703 337.736 310.495 340.592Z" fill="#273150"/>
<path d="M311.319 383.101C309.667 385.652 309.196 391.355 308.61 395.458C307.82 400.98 308.044 405.007 309.248 412.142C310.471 419.392 328.003 408.296 328.593 402.508C329.184 396.719 328.727 387.623 328.355 382.61C327.984 377.598 315.727 376.294 311.319 383.101Z" fill="#273150"/>
<path d="M320.083 392.906C319.292 398.428 320.03 401.165 321.235 408.301C322.458 415.55 328.003 408.301 328.589 402.517C329.179 396.729 328.822 391.026 328.446 386.014C328.075 381.001 320.668 388.798 320.083 392.906Z" fill="#48598B"/>
<path d="M308.182 400.675C307.301 406.397 309.348 418.997 313.765 435.776C316.45 445.992 315.403 453.751 320.149 453.47C324.895 453.189 325.728 453.203 325.966 447.52C326.209 441.76 328.417 406.225 328.774 400.232C328.774 400.232 322.205 399.894 316.598 399.99C311.747 400.075 308.182 400.675 308.182 400.675Z" fill="#F6874E"/>
<path d="M308.182 400.675C307.301 406.397 309.348 418.997 313.765 435.777C316.45 445.992 315.403 453.751 320.149 453.47C324.895 453.189 325.728 453.203 325.966 447.52C326.056 445.373 323.362 441.541 321.815 426.661C320.691 415.855 319.963 400.009 319.963 400.009C314.051 399.733 308.182 400.675 308.182 400.675Z" fill="#CE6D3E"/>
<path d="M316.336 447.596C315.693 449.076 315.27 451.552 313.637 455.593C312.237 459.058 319.382 460.391 321.972 462.852C319.797 461.705 340.608 466.994 344.94 466.537C354.731 465.504 334.643 455.455 340.203 458.516C340.203 458.516 328.565 452.608 326.908 447.886C325.252 443.164 316.979 446.116 316.336 447.596Z" fill="#CE6D3E"/>
<path d="M314.113 452.68C314.422 452.109 314.975 451.604 315.065 452.161C315.155 452.718 316.046 454.841 317.283 455.46C318.521 456.083 332.659 462.914 337.657 461.424C340.708 460.52 338.771 458.449 336.5 456.774C334.996 455.664 332.378 453.651 332.378 453.651C332.378 453.651 338.385 457.492 341.298 458.987C344.212 460.482 350.305 465.718 350.866 467.822C351.428 469.926 330.912 469.755 327.741 468.465C324.571 467.175 320.12 464.847 318.126 463.662C316.55 462.729 314.627 462.962 314.037 462.333C312.694 460.92 313.185 454.394 314.113 452.68Z" fill="#992C29"/>
<path d="M277.108 367.268C277.108 367.268 278.05 344.9 279.469 338.422C280.892 331.943 304.95 329.111 305.764 340.669C306.578 352.226 302.546 369.268 300.294 376.979C298.048 384.691 296.972 389.413 285.49 387.927C273.69 386.395 276.47 381.915 277.108 367.268Z" fill="#273150"/>
<path d="M289.579 373.485C283.562 372.785 276.527 374.67 276.013 381.725C275.651 386.694 271.943 390.393 268.896 400.18C265.85 409.967 290.788 415.588 292.645 403.241C294.496 390.893 301.422 374.865 289.579 373.485Z" fill="#273150"/>
<path d="M291.279 388.199C291.279 388.199 287.951 397.481 284.9 407.268C281.849 417.055 290.784 415.589 292.64 403.241C293.326 398.681 294.701 393.621 295.568 388.98C297.053 381.054 291.279 388.199 291.279 388.199Z" fill="#48598B"/>
<path d="M292.64 403.241C290.783 415.589 277.874 448.743 276.727 454.922C275.575 461.105 271.757 465.023 271.757 465.023C271.757 465.023 265.74 468.012 265.507 454.16C265.331 443.579 265.845 409.962 268.896 400.175C268.896 400.175 275.903 398.281 281.296 399.533C286.685 400.794 292.64 403.241 292.64 403.241Z" fill="#F6874E"/>
<path d="M278.331 434.391C276.255 443.374 275.618 448.867 274.466 455.051C273.314 461.234 271.757 465.028 271.757 465.028C271.757 465.028 265.74 468.017 265.507 454.165C265.331 443.583 265.845 409.967 268.896 400.18C268.896 400.18 275.903 398.286 281.296 399.538C282.72 399.866 286.837 401.213 286.837 401.213C286.837 401.213 284.386 408.173 278.331 434.391Z" fill="#CE6D3E"/>
<path d="M272.709 452.256C267.473 452.118 265.602 458.406 265.602 458.406C265.602 458.406 262.023 464.318 262.542 466.418C262.87 467.689 264.26 470.911 264.26 470.911C264.26 470.911 266.221 480.96 266.593 482.288C267.154 484.273 286.666 488.143 288.023 488.605C289.384 489.071 287.118 477.671 287.118 477.671C287.118 477.671 279.816 467.422 278.069 462.924C276.346 458.511 275.313 452.323 272.709 452.256Z" fill="#CE6D3E"/>
<path d="M265.717 458.244C265.778 458.144 265.664 458.025 265.559 458.087C264.907 458.463 264.017 459.239 263.836 459.753C262.894 462.457 262.113 464.999 262.413 466.579C262.527 467.194 263.175 468.755 263.879 471.735C264.66 475.014 264.384 480.979 266.293 483.426C268.201 485.872 284.01 490.828 287.466 490.071C290.922 489.314 288.642 479.137 288.313 477.133C287.966 475.019 280.083 465.666 276.698 458.687C276.698 458.687 276.722 459.463 277.284 461.215C278.598 465.318 282.748 473.51 277.95 474.343C273.357 475.143 266.478 468.836 266.107 465.685C265.74 462.576 265.16 460.101 265.226 459.458C265.269 459.058 265.526 458.568 265.717 458.244Z" fill="#992C29"/>
<path d="M324.305 294.214C324.305 294.214 327.299 301.097 330.274 306.148C332.94 310.67 344.559 324.346 345.83 326.331C348.515 330.525 345.002 332.105 341.308 331.01C339.337 330.425 327.256 317.03 323.376 311.922C320.149 307.671 316.945 301.216 315.898 299.379C313.575 295.309 318.731 287.45 324.305 294.214Z" fill="#F6874E"/>
<path d="M324.305 294.214C324.305 294.214 324.928 306.747 327.88 311.769C330.522 316.268 339.58 325.479 340.846 327.464C343.522 331.653 345.369 332.381 341.675 331.286C339.704 330.7 327.261 317.025 323.377 311.917C320.149 307.666 316.946 301.211 315.898 299.374C313.347 294.909 319.021 287.807 324.305 294.214Z" fill="#CE6D3E"/>
<path d="M325.281 295.713C325.281 295.713 317.25 281.88 312.162 281.4C307.154 280.924 307.168 285.465 308.93 290.111C311.495 296.889 318.393 305.762 318.393 305.762C318.393 305.762 320.521 298.16 325.281 295.713Z" fill="#EC5E4D"/>
<path d="M347.463 320.233L343.993 321.337C343.841 321.385 343.703 321.466 343.584 321.566L340.166 324.555C339.566 325.079 339.157 325.779 338.99 326.559L339.133 330.458C339.095 330.639 339.1 330.824 339.147 331L339.747 334.842C339.885 335.347 341.299 335.784 341.818 335.784C341.818 335.784 342.965 336.946 343.793 337.103C344.626 337.26 345.74 336.665 345.959 336.489C346.178 336.318 345.269 334.966 345.269 334.966C345.269 334.966 346.368 336.617 346.711 336.698C347.054 336.779 349.976 336.736 349.724 336.156L349.534 333.799C349.367 333.419 348.715 333.423 348.967 333.095L350.986 329.73C351.462 329.111 353.399 328.754 353.837 329.401L354.323 330.12C354.851 331.215 354.484 331.324 354.865 331.324L357.045 330.306C357.678 330.306 356.812 326.678 356.812 326.678L354.994 324.355C354.994 324.355 354.094 323.337 353.708 323.141L348.32 320.295C348.058 320.166 347.749 320.143 347.463 320.233Z" fill="#7A4630"/>
<path d="M353.714 327.054C355.76 327.64 356.046 329.049 355.751 329.634C355.461 330.22 355.656 332.457 355.656 332.457L355.218 333.961C355.218 333.961 352.19 336.66 351.733 336.784C351.276 336.913 349.629 335.794 349.629 335.794C349.629 335.794 347.792 334.39 347.701 334.004C347.611 333.619 348.72 332.514 348.72 332.514C348.72 332.514 348.363 332.181 348.282 331.824C348.201 331.467 348.263 331.048 348.558 330.886C348.944 330.672 349.52 330.577 349.52 330.577C349.52 330.577 349.363 330.31 349.244 330.172C349.125 330.034 348.849 328.868 349.61 328.849C349.61 328.849 351.219 328.663 351.662 328.72C352.105 328.777 353.314 329.035 352.147 328.587C351.067 328.173 350.591 328.149 350.558 327.516C350.477 326.197 351.667 326.469 353.714 327.054Z" fill="#CE6D3E"/>
<path d="M307.249 280.343C307.249 280.343 309.472 280.866 311.543 282.19C315.265 284.565 319.678 286.921 319.783 292.472C319.868 296.894 319.045 303.477 318.464 309.984C318.183 313.131 316.336 316.02 313.19 317.329C303.608 321.318 296.896 322.922 291.721 319.59C289.798 318.353 289.76 319.628 287.39 312.183C285.633 306.662 284.372 304.41 282.62 299.379C277.317 284.16 288.875 281.733 295.301 280.99C300.847 280.348 307.249 280.343 307.249 280.343Z" fill="#F6BE4A"/>
<path opacity="0.5" d="M314.523 309.861C314.523 309.861 296.901 322.922 291.726 319.59C289.803 318.353 289.765 319.628 287.395 312.183C285.638 306.662 284.377 304.41 282.625 299.379C277.322 284.16 288.385 310.979 293.14 303.234C296.282 298.112 301.394 295.799 306.04 295.114C311.41 294.319 317.441 297.379 317.779 299.131C318.712 303.986 314.523 309.861 314.523 309.861Z" fill="#F6BE4A"/>
<path d="M318.279 303.015C318.279 303.015 316.018 299.06 311.31 298.498C311.31 298.498 314.889 297.179 318.279 300.383V303.015Z" fill="#F6BE4A"/>
<path d="M304.974 286.322C303.217 286.821 296.896 284.741 296.944 282.694L297.205 271.608C297.253 269.561 298.952 267.938 301.004 267.985L302.146 268.014C304.193 268.062 305.817 269.761 305.769 271.813L307.606 282.432C307.559 284.475 306.73 285.817 304.974 286.322Z" fill="#F6874E"/>
<path d="M302.277 278.724C300.953 278.805 296.979 279.719 297.026 277.672L297.288 266.586C297.336 264.539 299.035 262.916 301.087 262.963L302.229 262.992C304.276 263.04 306.151 271.218 306.104 273.269C306.104 273.264 303.595 278.643 302.277 278.724Z" fill="#CE6D3E"/>
<path d="M278.117 356.329L269.735 364.174C268.854 364.912 267.578 364.393 267.726 363.341C268.245 359.737 269.892 353.625 278.117 356.329Z" fill="#EC5E4D"/>
<path d="M315.308 312.697C316.798 315.33 330.06 336.227 333.725 367.016C333.725 367.016 311.186 356.248 295.982 357.276C269.363 359.08 271.11 360.989 270.501 362.96C270.096 364.269 268.711 364.983 267.402 364.578C267.064 364.474 266.683 364.345 266.264 364.193C260.324 362.027 250.013 358.785 240.616 362.436C240.616 362.436 263.546 346.847 280.264 326.74C294.64 309.446 313.818 310.065 315.308 312.697Z" fill="#F6BE4A"/>
<path opacity="0.5" d="M317.755 340.275C313.89 347.235 305.026 356.669 295.982 357.283C269.363 359.088 271.11 360.996 270.501 362.967C270.096 364.276 268.711 364.99 267.402 364.586C267.064 364.481 266.683 364.352 266.264 364.2C260.324 362.034 250.013 358.792 240.617 362.443C240.617 362.443 263.546 346.854 280.264 326.747C291.031 313.795 304.488 310.891 311.195 311.353C313.442 311.505 321.62 333.316 317.755 340.275Z" fill="#F6BE4A"/>
<path opacity="0.5" d="M269.768 361.794C269.768 361.794 271.677 344.143 277.612 338.588C277.612 338.588 275.299 342.81 275.394 345.985L278.265 343.943C278.265 343.943 275.366 348.518 273.414 353.13C271.705 357.176 271.01 361.299 269.768 361.794Z" fill="#F6BE4A"/>
<path opacity="0.5" d="M319.687 338.726C319.687 338.726 320.458 342.977 314.661 348.004C308.863 353.03 308.863 353.03 308.863 353.03C308.863 353.03 316.593 351.483 318.14 348.78C319.687 346.071 319.687 338.726 319.687 338.726Z" fill="#F6BE4A"/>
<path d="M273.419 292.51C273.419 292.51 261.509 303.211 259.662 305.981C257.801 308.775 258.091 309.042 259.9 311.674C261.699 314.297 267.054 316.225 270.344 313.297C273.59 310.403 283.382 301.492 284.781 299.85C286.171 298.212 286.114 294.223 284.224 292.3C282.325 290.372 277.07 289.935 273.419 292.51Z" fill="#F6874E"/>
<path d="M273.419 292.51C273.419 292.51 257.091 306.676 259.267 307.166C261.442 307.662 262.608 305.71 264.741 303.934C269.41 300.05 274.828 294.109 274.828 294.109C274.828 294.109 277.07 289.935 273.419 292.51Z" fill="#CE6D3E"/>
<path d="M282.154 303.354C282.154 303.354 294.844 291.496 291.717 286.498C288.727 281.723 284.353 282.913 279.25 286.469C274.037 290.106 271.629 293.719 271.629 293.719C271.629 293.719 277.027 295.828 282.154 303.354Z" fill="#EC5E4D"/>
<path d="M284.386 286.798C286.166 286.203 291.717 286.498 291.717 286.498C288.727 281.723 284.353 282.913 279.25 286.469C274.037 290.106 271.629 293.719 271.629 293.719C271.629 293.719 272.167 294.033 273.6 294.919C273.961 295.147 282.606 287.393 284.386 286.798Z" fill="#C93F37"/>
<path d="M237.322 332.843C237.322 332.843 246.857 329.044 251.16 325.96C254.954 323.241 261.79 320.538 265.798 317.058C271.672 311.96 267.902 308.38 265.041 306C262.627 303.991 258.848 306.295 254.878 309.204C250.922 312.103 234.528 322.742 231.244 326.693C227.978 330.615 231.306 337.565 237.322 332.843Z" fill="#F4864D"/>
<path d="M243.382 319.762C246.957 316.768 263.294 305.244 263.294 305.244C261.908 304.353 258.848 306.296 254.878 309.209C251.546 311.651 239.364 319.6 233.657 324.403C232.591 325.293 238.436 322.399 243.382 319.762Z" fill="#CE6D3E"/>
<path d="M238.498 328.754C238.122 326.507 235.294 322.351 230.587 322.727C225.879 323.104 217.406 323.67 214.768 325.55C212.131 327.435 213.45 328.563 214.578 328.94C215.706 329.316 220.228 328.563 222.299 328.563C224.37 328.563 223.051 332.705 219.662 335.532C216.273 338.355 214.012 345.138 212.693 348.528C211.375 351.917 212.127 352.669 213.445 352.483C214.764 352.293 217.401 346.647 218.905 344.386C220.409 342.125 216.082 350.598 216.082 352.298C216.082 353.992 218.343 353.802 218.343 353.802L222.485 346.081C222.485 346.081 221.009 350.57 221.576 350.946C222.142 351.322 224.398 350.755 224.398 350.755L226.44 346.266L228.325 342.125C228.325 342.125 228.701 347.961 229.454 347.961C230.206 347.961 231.9 345.324 231.9 345.324C231.9 345.324 232.752 341.216 233.971 339.298C235.294 337.227 239.064 332.143 238.498 328.754Z" fill="#F4864D"/>
<path d="M316.227 253.01C319.426 268.385 313.152 273.626 302.304 273.288C294.154 273.036 287.476 267.871 286.938 257.67C286.4 247.465 290.698 239.096 298.748 237.749C309.377 235.969 314.147 243.023 316.227 253.01Z" fill="#F6874E"/>
<path d="M315.08 255.752C315.832 269.404 306.583 272.246 301.523 272.136C294.435 271.979 287.676 267.795 287.209 258.765C286.743 249.735 291.688 241.31 298.695 240.124C315.018 237.359 314.785 250.387 315.08 255.752Z" fill="#CE6D3E"/>
<path d="M287.437 265.251C289.276 264.966 290.367 262.149 289.874 258.959C289.38 255.769 287.489 253.413 285.649 253.698C283.81 253.982 282.719 256.799 283.213 259.989C283.706 263.18 285.598 265.535 287.437 265.251Z" fill="#CE6D3E"/>
<path d="M286.938 253.443L287.299 254.995C287.299 254.995 287.204 246.446 296.62 243.133C305.002 240.182 313.19 243.323 313.19 243.323C313.19 243.323 306.673 233.865 295.277 238.763C285.748 242.862 286.938 253.443 286.938 253.443Z" fill="#F6BE4A"/>
<path d="M312.266 242.514C312.266 242.514 313.823 245.937 315.87 247.779C317.417 249.169 318.807 249.721 318.807 249.721L318.64 248.907L319.716 248.459C319.716 248.459 316.465 247.212 313.08 242.281L312.266 242.514Z" fill="#EE5D4F"/>
<path d="M312.119 242.124C312.119 242.124 312.409 245.875 313.699 248.302C314.675 250.135 315.793 251.135 315.793 251.135L315.917 250.316L317.083 250.263C317.083 250.263 314.456 247.979 312.961 242.185L312.119 242.124Z" fill="#EE5D4F"/>
<path d="M313.104 244.328C313.999 244.409 316.032 240.067 314.028 239.425C312.138 238.82 309.905 238.482 309.877 240.02C309.848 241.562 312.209 244.247 313.104 244.328Z" fill="#EE5D4F"/>
<path d="M314.532 241.933C314.532 241.933 314.742 239.896 314.123 239.777C313.504 239.658 313.823 240.638 313.633 241.967C313.452 243.295 314.423 242.785 314.532 241.933Z" fill="#F7BC4B"/>
<path d="M312.647 243.19C312.647 243.19 312.762 242.257 314.304 241.738C315.846 241.219 316.97 241.015 317.664 241.753C318.359 242.49 318.036 244.842 317.255 245.861C316.47 246.879 313.79 245.227 313.171 244.599C312.552 243.976 312.647 243.19 312.647 243.19Z" fill="#EE5D4F"/>
<path d="M317.622 243.709C317.622 243.709 317.408 245.603 316.513 245.684C315.185 245.803 316.875 242.557 317.089 242.028C317.303 241.5 318.188 242.462 317.622 243.709Z" fill="#F7BC4B"/>
<path d="M296.135 255.686C296.135 257.119 295.511 257.257 294.749 257.257C293.983 257.257 293.364 257.114 293.364 255.686C293.364 254.258 293.988 253.096 294.749 253.096C295.516 253.096 296.135 254.253 296.135 255.686Z" fill="#273150"/>
<path d="M308.901 254.576C308.901 256.009 308.277 256.147 307.511 256.147C306.745 256.147 306.126 256.004 306.126 254.576C306.126 253.148 306.749 251.987 307.511 251.987C308.282 251.982 308.901 253.144 308.901 254.576Z" fill="#273150"/>
<path d="M305.836 246.384C307.721 245.913 309.225 247.703 309.225 247.703" stroke="#273150" stroke-miterlimit="10" stroke-linecap="round" stroke-linejoin="round"/>
<path d="M296.044 247.293C294.445 247.012 293.078 248.888 293.078 248.888" stroke="#273150" stroke-miterlimit="10" stroke-linecap="round" stroke-linejoin="round"/>
<path d="M181.326 438.128C181.326 438.128 184.301 448.853 186.476 451.447L189.351 446.182C189.351 446.187 186.405 440.518 181.326 438.128Z" fill="#992C29"/>
<path d="M182.558 442.712C182.558 442.712 180.288 451.299 180.888 454.446L185.434 453.346C185.438 453.341 185.538 447.801 182.558 442.712Z" fill="#992C29"/>
<path d="M69.0716 474.625C69.0716 474.625 65.8204 498.516 66.463 504.152C67.1056 509.788 62.8929 515.957 60.351 519.461C57.79 522.983 62.6739 530.371 62.6739 530.371C62.6739 530.371 69.3191 532.884 76.0357 531.099C81.905 529.538 80.7768 526.058 77.2924 524.125C73.7746 522.174 85.1752 508.55 85.1752 508.55C85.1752 508.55 91.7871 482.679 92.5011 478.842C93.2199 475.005 73.5509 462.201 69.0716 474.625Z" fill="#1D2538"/>
<path d="M175.066 443.403C169.239 444.178 147.514 449.367 144.172 438.2C140.812 426.966 134.719 410.729 134.519 403.546C134.519 403.546 131.801 398.262 129.535 391.917C127.259 385.543 128.549 384.61 132.001 386.576C135.423 388.523 141.645 395.382 141.645 395.382C141.645 395.382 150.646 389.913 162.551 389.784C174.095 389.66 172.043 389.227 175.932 394.882L178.655 399.957C178.655 399.957 187.842 397.31 193.407 397.1C198.89 396.896 201.561 398.852 202.427 405.488C203.294 412.114 202.96 415.441 201.351 418.988C199.733 422.553 194.463 429.07 188.837 433.768C188.837 433.773 180.797 442.641 175.066 443.403Z" fill="#1D2538"/>
<path d="M200.8 399.999C202.675 402.898 198.339 405.674 196.439 402.76C194.53 399.833 188.747 398.352 192.265 397.353C194.687 396.667 198.915 397.086 200.8 399.999Z" fill="#121721"/>
<path d="M157.015 393.159C157.015 393.159 156.349 384.781 156.701 378.564C157.039 372.633 160.157 373.842 162.942 378.883C165.841 384.134 169.701 394.106 170.377 396.091C171.053 398.071 159.7 400.147 157.015 393.159Z" fill="#1D2538"/>
<path d="M160.5 380.016C159.795 373.995 160.809 375.865 163.589 380.897C166.483 386.133 168.925 391.626 169.596 393.616C170.272 395.596 161.128 385.367 160.5 380.016Z" fill="#273150"/>
<path d="M159.457 514.386C158.81 512.059 154.669 511.673 154.54 511.092C152.393 501.239 152.374 491.395 152.155 489.081C151.703 484.331 154.992 475.415 154.083 465.185C153.207 455.327 136.128 463.453 136.894 475.167C137.337 481.931 140.245 504.837 141.093 511.064C141.212 511.944 141.521 512.782 141.997 513.544L147.8 519.779C148.823 521.722 150.056 520.227 154.416 519.275C158.715 518.337 160.333 517.542 159.457 514.386Z" fill="#273150"/>
<path d="M192.545 516.499C191.479 511.411 184.196 512.177 184.196 512.177C183.701 511.539 182.149 510.387 181.93 509.716C180.288 504.623 179.436 492.575 178.936 490.29C177.898 485.535 177.594 470.883 175.456 459.892C173.309 448.848 158.615 459.739 159.638 470.788C160.367 478.656 170.587 509.255 171.605 512.196C171.605 512.196 180.926 521.712 184.924 520.998C188.88 520.298 193.207 519.636 192.545 516.499Z" fill="#273150"/>
<path d="M156.539 433.321C156.539 433.321 147.786 429.741 125.632 437.167C110.433 442.26 99.6603 441.603 82.2762 445.169C70.9375 447.496 64.9349 480.751 69.3666 487.624C72.7749 493.027 83.7138 489.062 96.9232 488.3C129.573 486.42 137.604 489.981 140.798 489.243C156.687 485.578 167.973 480.851 173.305 476.162C175.228 474.467 176.342 469.488 177.908 464.281C180.174 456.74 183.925 448.158 179.541 440.78C176.561 435.772 165.189 433.658 156.539 433.321Z" fill="#1D2538"/>
<path d="M167.083 443.917L158.667 457.216C158.667 457.216 149.328 469.345 150.065 469.379L157.377 484.583C157.377 484.583 167.964 480.851 173.29 476.157C175.213 474.463 176.327 469.483 177.893 464.276C180.159 456.736 183.91 448.153 179.526 440.775L167.083 443.917Z" fill="#273150"/>
<path d="M140.698 428.218C140.698 428.218 140.274 429.96 140.236 433.183C140.236 433.183 146.924 439.595 166.027 443.831C175.723 445.978 183.311 445.078 183.311 445.078L183.001 439.157C182.992 439.161 161.752 440.299 140.698 428.218Z" fill="#992C29"/>
<path d="M92.3915 455.684C91.5347 453.513 85.4559 442.503 84.8609 437.491C84.2659 432.473 83.3901 420.625 90.1495 416.617C90.1495 416.617 82.6713 414.251 75.1788 427.87C67.5197 441.794 79.739 460.225 80.772 461.753C85.3512 468.536 94.8287 461.872 92.3915 455.684Z" fill="#273150"/>
<path d="M92.3916 455.684C91.5348 453.513 84.7944 453.147 82.2715 445.164C79.7486 437.186 80.1913 420.34 90.1448 416.617C90.1448 416.617 82.6666 414.251 75.1741 427.87C67.515 441.794 79.7344 460.225 80.7673 461.753C85.3514 468.536 94.8288 461.872 92.3916 455.684Z" fill="#1D2538"/>
<path d="M96.7567 476.519C96.7567 476.519 103.15 508.241 105.458 513.444C107.757 518.618 101.726 524.44 100.127 528.148C98.5179 531.88 104.963 540.962 104.963 540.962C104.963 540.962 116.14 540.253 117.83 540.034C119.51 539.82 123.913 534.255 119.791 533.074C115.621 531.88 122.619 513.634 122.619 513.634C122.619 513.634 122.842 480.517 122.485 476.705C122.124 472.906 97.742 463.728 96.7567 476.519Z" fill="#1D2538"/>
<path d="M283.542 525.395C283.542 525.395 266.952 522.996 250.354 522.996C233.756 522.996 227.832 535.006 234.947 535.006C234.947 535.006 185.169 543.417 210.058 548.222C234.947 553.02 311.988 547.015 283.542 525.395Z" fill="#33A86D"/>
<path d="M274.636 525.454C274.636 525.454 273.11 516.247 276.161 516.247C279.212 516.247 278.706 522.064 278.706 522.064C278.706 522.064 284.823 513.338 284.823 516.735C284.823 520.125 281.765 523.034 281.765 523.034C281.765 523.034 276.169 528.852 274.636 525.454Z" fill="#288453"/>
<path d="M262.243 532.714C262.243 532.714 255.448 526.582 259.154 525.05C262.86 523.517 262.552 528.115 262.552 528.115C262.552 528.115 263.169 517.386 266.257 518.918C269.346 520.451 267.184 525.356 267.184 525.356C267.184 525.356 269.346 519.838 269.963 523.517C270.581 527.196 266.566 533.94 262.243 532.714Z" fill="#288453"/>
<path d="M369.746 565.565C375.318 560.931 355.639 558.028 331.293 556.384C300.392 554.294 306.72 561.711 306.72 561.711C306.72 561.711 289.997 558.996 281.47 563.209C276.263 565.779 284.199 568.682 308.094 572.741C331.988 576.801 339.489 569.744 339.489 569.744C339.489 569.744 364.175 570.198 369.746 565.565Z" fill="#33A86D"/>
<path d="M347.415 555.286C347.415 555.286 345.297 541.01 352.361 543.15C359.424 545.289 355.897 550.999 355.897 550.999C355.897 550.999 364.378 548.86 360.842 556.71C357.306 564.559 353.778 564.559 353.778 564.559C353.778 564.559 343.888 570.269 340.351 557.426C336.815 544.582 347.415 555.286 347.415 555.286Z" fill="#288453"/>
<path d="M316.204 555.406C316.204 555.406 311.883 546.17 316.204 544.753C320.525 543.337 320.525 550.436 320.525 550.436C320.525 550.436 325.57 541.2 327.016 548.307C328.453 555.406 325.57 564.633 316.204 555.406Z" fill="#288453"/>
</svg>
