<svg width="258" height="184" viewBox="0 0 258 184" fill="none" xmlns="http://www.w3.org/2000/svg">
<path d="M73.9168 83.8561C73.9168 83.8561 28.5063 121.338 17.3324 127.825C6.15854 134.312 -3.93118 119.175 1.83567 106.199C7.60253 93.2238 15.171 92.1443 15.171 92.1443C15.171 92.1443 -0.687895 65.4737 20.578 44.57C41.8438 23.6662 64.5468 20.0631 68.1523 30.515C68.1523 30.515 83.9838 9.98704 115.367 2.04281C143.839 -5.16576 143.119 7.80966 127.26 23.6685C127.26 23.6685 138.072 18.2615 143.119 20.0654C148.162 21.867 73.9168 83.8561 73.9168 83.8561Z" fill="#F4E8D8"/>
<path d="M206.548 81.3348C206.548 81.3348 114.643 126.745 107.436 131.433C100.228 136.118 98.0663 137.2 98.4262 140.443C98.7861 143.686 112.481 136.84 112.481 136.84C112.481 136.84 102.389 148.011 129.782 142.966C157.172 137.922 190.691 129.271 222.047 109.809C253.402 90.3472 260.611 86.7441 256.646 79.5355C252.681 72.327 240.427 73.7687 233.581 77.012C226.734 80.2553 244.752 69.0837 237.546 68.0018C230.335 66.9177 206.548 81.3348 206.548 81.3348Z" fill="#F4E8D8"/>
<path d="M151.585 46.5538C151.585 46.5538 151.585 38.4456 136.448 35.2001C121.311 31.9545 121.311 38.9854 122.393 44.9322C123.475 50.879 132.125 54.6643 133.747 54.6643C135.368 54.6643 151.585 46.5538 151.585 46.5538Z" fill="#48598B"/>
<path d="M131.943 88.1815C131.943 88.1815 127.618 98.2735 134.826 104.4C142.035 110.527 154.648 113.05 166.182 104.4C177.716 95.7499 149.603 67.6399 131.943 88.1815Z" fill="#273150"/>
<path d="M140.231 49.0773C140.231 49.0773 153.79 33.0499 170.145 36.8239C188.887 41.149 195.554 51.7808 198.797 67.9995C198.797 67.9995 209.069 63.1346 212.312 78.2715C215.556 93.4083 196.094 100.437 184.742 99.8972C173.391 99.3551 140.231 49.0773 140.231 49.0773Z" fill="#48598B"/>
<path d="M136.628 51.4211C136.628 51.4211 150.186 35.3937 166.542 39.1676C185.284 43.4928 191.95 54.1246 195.194 70.3433C195.194 70.3433 205.466 65.4784 208.709 80.6152C211.952 95.7521 192.49 102.781 181.136 102.241C169.785 101.697 136.628 51.4211 136.628 51.4211Z" fill="#273150"/>
<path d="M127.078 70.883C127.078 70.883 118.97 76.29 115.724 68.1795C112.478 60.069 124.914 53.0426 129.779 53.5824C134.646 54.1245 133.025 63.8543 127.078 70.883Z" fill="#273150"/>
<path d="M149.783 48.1776C149.783 48.1776 149.783 40.0694 134.646 36.8238C119.509 33.5783 119.509 40.6092 120.591 46.556C121.673 52.5028 130.323 56.2881 131.945 56.2881C133.564 56.2858 149.783 48.1776 149.783 48.1776Z" fill="#273150"/>
<path d="M146.72 112.33C146.72 112.33 136.088 123.322 130.142 130.351C124.669 136.817 112.301 142.424 110.5 151.075C108.698 159.725 127.618 162.428 133.385 156.661C139.152 150.895 158.254 127.829 161.137 121.703C164.019 115.574 156.45 102.958 146.72 112.33Z" fill="#CE6D3E"/>
<path d="M166.182 108.725C166.182 108.725 160.415 104.4 156.812 104.76C153.209 105.12 142.757 116.473 142.757 116.473C142.757 116.473 146.902 116.653 149.606 119.177C152.309 121.701 155.732 129.449 155.732 129.449C155.732 129.449 170.147 113.05 166.182 108.725Z" fill="#C93F37"/>
<path d="M154.289 157.021C154.289 157.021 142.575 148.432 132.185 145.968C123.159 143.829 118.79 143.445 114.105 145.968C109.42 148.492 105.815 155.88 109.96 157.502C114.103 159.123 154.289 157.021 154.289 157.021Z" fill="#F6874E"/>
<path d="M208.709 163.148C208.709 163.148 210.151 140.083 207.99 125.666C205.828 111.249 202.583 100.437 195.736 96.1118C188.888 91.7867 176.274 98.6354 166.904 102.598C159.263 105.83 156.092 120.979 151.045 129.629C146.729 137.029 143.477 144.046 154.289 157.019C165.1 169.992 202.583 186.573 208.709 163.148Z" fill="#D09435"/>
<path d="M208.71 163.148C208.71 163.148 210.152 140.083 207.99 125.666C205.829 111.249 202.583 100.437 195.737 96.1119C188.888 91.7867 196.819 124.944 189.97 138.641C185.524 147.533 181.679 157.021 191.771 164.59C205.282 174.723 202.583 186.573 208.71 163.148Z" fill="#F6BE4A"/>
<path d="M150.684 93.9482C163.233 108.62 166.543 114.492 166.543 114.492C166.543 114.492 179.518 114.132 179.156 105.482C178.794 96.8317 174.209 95.4127 168.704 87.4617C162.217 78.0917 146.493 89.0491 150.684 93.9482Z" fill="#F6874E"/>
<path d="M150.683 93.9483C156.81 101.697 166 101.157 166 101.157C166 101.157 182.758 104.129 168.703 87.4618C161.358 78.7477 146.492 89.0492 150.683 93.9483Z" fill="#CE6D3E"/>
<path d="M141.224 47.5467C141.224 47.5467 128.513 46.4285 125.456 66.018C121.491 91.4268 127.618 101.159 152.487 98.4554C177.356 95.7519 177.895 79.7132 176.274 68.3616C174.652 57.0056 155.819 43.7614 141.224 47.5467Z" fill="#F6874E"/>
<path d="M141.224 47.5469C141.224 47.5469 128.513 46.4286 125.456 66.0182C121.491 91.427 127.618 101.159 152.487 98.4556C152.487 98.4556 141.133 86.2022 139.511 74.8484C137.89 63.4946 158.254 47.2166 141.224 47.5469Z" fill="#CE6D3E"/>
<path d="M127.798 57.9531C127.798 57.9531 132.774 47.2142 148.161 49.7993C159.424 51.692 171.498 63.1346 171.498 63.1346L176.274 58.9894C176.274 58.9894 165.817 42.8253 144.196 45.3831C132.394 46.7792 129.105 53.6279 127.798 57.9531Z" fill="#F6BE4A"/>
<path d="M127.798 57.9532C127.798 57.9532 132.774 47.2144 148.161 49.7995L144.196 45.3855C132.394 46.7794 129.105 53.6281 127.798 57.9532Z" fill="#D09435"/>
<path d="M180.599 70.8831C174.652 70.8831 170.147 77.3696 168.706 84.9381C167.423 91.6752 166.002 100.075 186.006 99.5351C206.008 98.9953 191.951 70.8831 180.599 70.8831Z" fill="#273150"/>
<path d="M171.587 78.4513C175.22 78.4513 178.165 74.2756 178.165 69.1246C178.165 63.9736 175.22 59.7979 171.587 59.7979C167.954 59.7979 165.009 63.9736 165.009 69.1246C165.009 74.2756 167.954 78.4513 171.587 78.4513Z" fill="#F6874E"/>
<path d="M146.474 66.0374C147.68 65.733 148.244 63.843 147.732 61.8159C147.22 59.7889 145.828 58.3924 144.622 58.6969C143.415 59.0013 142.852 60.8913 143.364 62.9183C143.875 64.9454 145.268 66.3418 146.474 66.0374Z" fill="#263052"/>
<path d="M133.151 69.6946C133.273 67.9844 132.546 66.5396 131.528 66.4674C130.511 66.3953 129.588 67.7232 129.466 69.4334C129.345 71.1436 130.072 72.5885 131.089 72.6606C132.107 72.7327 133.03 71.4048 133.151 69.6946Z" fill="#263052"/>
<path d="M128.458 65.8359L132.603 66.1366" stroke="#273150" stroke-width="2" stroke-miterlimit="10"/>
<path d="M138.671 59.1694C138.671 59.1694 139.812 56.4659 141.855 56.3452" stroke="#273150" stroke-width="2" stroke-miterlimit="10"/>
<path d="M165.781 55.3865C165.781 55.3865 172.09 63.0529 178.56 66.3372C183.453 68.822 187.372 69.2798 187.372 69.2798L186.393 67.3211L188.83 65.4421C188.83 65.4421 179.686 64.4855 167.687 54.2363L165.781 55.3865Z" fill="#C93F37"/>
<path d="M165.141 54.4913C165.141 54.4913 168.443 63.8545 173.397 69.1567C177.144 73.1653 180.67 74.9395 180.67 74.9395L180.421 72.7644L183.353 71.8352C183.353 71.8352 175.089 67.8039 167.325 54.0654L165.141 54.4913Z" fill="#C93F37"/>
<path d="M169.152 59.4382C171.484 59.0282 173.703 46.5789 168.15 46.317C162.923 46.0687 156.997 46.7361 157.981 50.6763C158.967 54.6165 166.822 59.8482 169.152 59.4382Z" fill="#C93F37"/>
<path d="M171.165 52.3572C171.165 52.3572 170.307 47.0185 168.651 47.137C166.993 47.2554 168.475 49.5353 168.904 53.0519C169.332 56.5685 171.466 54.6097 171.165 52.3572Z" fill="#F7BC4B"/>
<path d="M167.216 56.8576C167.216 56.8576 166.865 54.4001 170.446 52.0223C174.026 49.6445 176.75 48.3485 179.027 49.7606C181.305 51.1728 182.093 57.3837 180.793 60.5154C179.492 63.6448 171.525 61.267 169.519 60.0895C167.512 58.912 167.216 56.8576 167.216 56.8576Z" fill="#C93F37"/>
<path d="M180.248 54.7781C180.248 54.7781 180.998 59.7592 178.77 60.5746C175.461 61.784 177.547 52.3502 177.741 50.8584C177.934 49.3665 180.845 51.2091 180.248 54.7781Z" fill="#F7BC4B"/>
<path d="M108.967 109.267C108.967 109.267 111.128 101.428 110.048 97.3738C108.967 93.3197 108.427 91.9668 104.641 89.8053C100.856 87.6439 96.8019 87.9127 97.344 83.5875C97.8838 79.2624 98.9656 81.4261 104.102 82.2369C109.238 83.0477 109.156 86.2181 113.563 87.9127C117.077 89.2633 121.671 91.427 124.106 97.1027C126.538 102.778 133.296 107.375 127.349 111.429C121.4 115.483 109.506 113.59 108.967 109.267Z" fill="#F6874E"/>
<path d="M168.343 104.04C168.343 104.04 160.052 121.701 157.531 128.909C155.008 136.118 158.251 140.081 164.018 143.326C169.785 146.57 176.631 147.831 182.398 136.298C188.165 124.764 193.21 117.016 191.048 111.249C188.887 105.482 175.551 93.9483 168.343 104.04Z" fill="#F6874E"/>
<path d="M168.343 104.04C168.343 104.04 160.052 121.701 157.531 128.909C155.008 136.118 158.251 140.081 164.018 143.326C169.785 146.57 169.785 141.885 175.551 130.351C181.318 118.817 193.212 117.016 191.048 111.249C188.884 105.482 175.551 93.9483 168.343 104.04Z" fill="#CE6D3E"/>
<path d="M167.983 105.122C167.983 105.122 174.832 88.9034 176.993 85.6601C179.155 82.4168 183.842 80.2531 188.887 82.0569C193.932 83.8585 196.455 96.1119 196.455 100.799C196.455 105.484 189.607 119.542 189.247 122.425C188.887 125.308 188.165 111.973 180.956 107.648C173.748 103.323 167.983 105.122 167.983 105.122Z" fill="#C93F37"/>
<path d="M176.994 85.6601C179.155 82.4168 183.842 80.2531 188.887 82.0569C193.932 83.8585 196.456 96.1119 196.456 100.799C196.456 105.484 189.607 119.542 189.247 122.425C188.887 125.308 191.408 95.7544 188.527 91.7891C184.432 86.1566 176.994 85.6601 176.994 85.6601Z" fill="#EE5D4F"/>
<path d="M178.214 131.679C178.214 131.679 174.265 117.059 160.77 117.633C147.275 118.207 153.199 139.992 166.694 141.712C180.189 143.431 178.214 131.679 178.214 131.679Z" fill="#CE6D3E"/>
<path d="M178.435 134.314C178.435 134.314 174.11 116.895 159.333 117.615C144.556 118.334 136.268 111.968 130.139 109.805C125.417 108.138 117.254 115.212 124.463 120.616C131.672 126.023 151.042 144.764 165.819 146.927C180.596 149.091 178.435 134.314 178.435 134.314Z" fill="#F6874E"/>
<path d="M113.563 105.753C113.563 105.753 104.644 102.239 103.562 101.428C102.48 100.617 101.94 96.8315 98.4257 96.8315C94.9114 96.8315 97.8859 100.617 98.1547 102.778C98.4257 104.94 101.018 106.978 102.931 109.627C104.101 111.249 105.363 114.223 108.969 115.754C115.027 118.327 121.673 120.619 126.538 118.997C131.403 117.375 121.942 103.86 113.563 105.753Z" fill="#F6874E"/>
<path d="M118.607 96.7109C118.607 96.7109 119.509 107.643 121.131 108.454C122.753 109.265 126.807 109.805 126.807 109.805C126.807 109.805 121.671 113.048 119.238 109.805C116.806 106.564 118.607 96.7109 118.607 96.7109Z" fill="#CE6D3E"/>
<path d="M112.606 91.0057C112.046 90.3338 110.028 89.548 107.896 90.557C105.766 91.566 105.766 91.7915 105.878 93.921C105.99 96.0506 105.878 100.424 106.55 101.098C107.222 101.77 109.354 102.555 110.586 101.098C111.818 99.64 112.38 97.0618 112.38 94.93C112.383 92.7982 113.166 91.6776 112.606 91.0057Z" fill="#F6874E"/>
<path d="M115.093 89.6847C114.492 88.9649 112.33 88.1222 110.048 89.2041C107.766 90.2859 107.766 90.5251 107.887 92.8072C108.008 95.0894 107.887 99.7744 108.607 100.496C109.326 101.216 111.611 102.059 112.932 100.496C114.253 98.934 114.854 96.1712 114.854 93.8891C114.854 91.607 115.694 90.4044 115.093 89.6847Z" fill="#CE6D3E"/>
<path d="M115.815 89.6847C115.214 88.9649 113.052 88.1222 110.77 89.2041C108.488 90.2859 108.488 90.5251 108.608 92.8072C108.729 95.0894 108.608 99.7744 109.328 100.496C110.048 101.216 112.332 102.059 113.653 100.496C114.974 98.934 115.576 96.1712 115.576 93.8891C115.576 91.607 116.414 90.4044 115.815 89.6847Z" fill="#F6874E"/>
<path d="M114.132 90.345C112.239 90.8848 110.346 96.8316 110.346 98.4533C110.346 100.075 111.909 101.788 115.241 101.876C118.307 101.958 116.983 97.0708 116.983 97.0708C116.983 97.0708 116.024 89.803 114.132 90.345Z" fill="#CE6D3E"/>
<path d="M130.321 110.347C130.321 110.347 129.961 101.697 129.15 99.5352C128.339 97.3738 125.096 95.2101 121.311 93.0486C117.525 90.8872 116.986 89.8053 115.093 90.3451C113.2 90.8849 111.308 96.8317 111.308 98.4533C111.308 100.075 112.027 100.797 115.362 100.886C118.427 100.968 117.945 97.0708 117.945 97.0708C117.945 97.0708 119.145 98.4534 119.416 102.776C119.687 107.099 120.68 113.59 130.321 110.347Z" fill="#F6874E"/>
<path d="M46.7065 146.358L60.9415 145.848L82.2962 145.756L87.4321 144.586L58.0581 142.964L46.7065 146.358Z" fill="#634874"/>
<path d="M51.6918 81.9657L66.4688 83.6761L92.9572 73.0443L93.1554 71.7621L80.164 68.2705L51.6918 81.9657Z" fill="#634874"/>
<path d="M28.5037 49.3938L36.3955 45.014L36.6233 45.0094L46.5445 39.4498H46.7722L56.616 33.79L92.4766 46.9158V59.1692L56.9781 47.9658L28.5037 62.4581V49.3938Z" fill="#29ACE4"/>
<path d="M56.9781 47.845L28.5037 62.4581V49.3938L36.3978 45.0094H36.6233L46.5445 39.4498H46.7722L56.6159 33.79" fill="#48598B"/>
<path d="M28.5037 62.4582L69.2315 69.3502L92.4766 59.1694L56.9781 47.8452L46.7882 53.0723L46.5513 53.0654L36.6278 58.2492L36.3932 58.247L28.5037 62.4582Z" fill="#634874"/>
<path d="M38.2358 119.714L58.347 122.363L91.0349 114.804L78.7359 110.996L38.2358 119.714Z" fill="#634874"/>
<path d="M59.1394 85.2088L46.1048 78.8703L55.5363 72.4133L93.0186 82.7468L59.1394 85.2088Z" fill="#634874"/>
<path d="M28.1439 95.3009V107.734L58.9004 110.167L90.3152 103.138L83.0179 95.9318L92.2968 93.7681L72.115 81.0637L56.796 82.8653L28.1439 95.3009Z" fill="#634874"/>
<path d="M28.5037 63.1345L56.6159 48.4463L69.8761 52.6348L69.9512 60.5517L82.2138 56.5295L93.1394 59.98V72.2334L56.9781 62.5036L28.5037 76.1987V63.1345Z" fill="#29ACE4"/>
<path d="M56.9781 62.5036L28.5037 76.1987V63.1345L56.6159 48.4463" fill="#48598B"/>
<path d="M69.9602 60.5518L82.2068 56.5569V69.3501L69.9511 71.8441L69.9602 60.5518Z" fill="#48598B"/>
<path d="M28.5037 76.1988L41.2399 76.7682L69.9672 65.9952L56.9781 62.5037L28.5037 76.1988Z" fill="#634874"/>
<path d="M46.1048 68.6304V78.8704L56.9165 74.3358V63.4033L46.1048 68.6304Z" fill="#48598B"/>
<path d="M93.0188 72.475V82.7469L56.9167 74.3972V63.4033L93.0188 72.475Z" fill="#29ACE4"/>
<path d="M28.1439 86.6506V95.8703L56.796 85.0586V74.7571L28.1439 86.6506Z" fill="#48598B"/>
<path d="M56.7958 74.7571V85.0586L68.6005 87.9124V77.6405L56.7958 74.7571Z" fill="#29ACE4"/>
<path d="M80.7949 80.4624L80.5239 91.0942L92.2967 93.7681V83.2274L80.7949 80.4624Z" fill="#29ACE4"/>
<path d="M28.1735 96.6515V107.734L38.4455 103.138V92.5974L28.1735 96.6515Z" fill="#48598B"/>
<path d="M46.2849 90.0739V100.346L56.796 96.6516V85.8398L46.2849 90.0739Z" fill="#48598B"/>
<path d="M56.7958 85.8398L90.3151 94.2191V103.138L56.7958 96.6516V85.8398Z" fill="#29ACE4"/>
<path d="M48.5693 121.446V111.205L78.6221 101.523V112.859L48.5693 121.446Z" fill="#48598B"/>
<path d="M78.5833 101.528V112.836L91.0349 114.82V103.985L78.5833 101.528Z" fill="#29ACE4"/>
<path d="M26.8979 126.766L60.8249 132.259L80.6217 126.816L48.7104 119.332L26.8979 126.766Z" fill="#634874"/>
<path d="M36.3817 110.966L36.1403 124.329L57.4244 127.579L57.6522 114.169L36.3817 110.966Z" fill="#29ACE4"/>
<path d="M36.9695 123.919L46.1209 121.514L62.8953 123.195L51.127 125.625L36.9695 123.919Z" fill="#634874"/>
<path d="M27.1234 114.285L26.8979 126.766L36.2702 124.374L36.5116 110.955L27.1234 114.285Z" fill="#48598B"/>
<path d="M37.2519 111.028L36.9695 123.919L46.1231 121.564L46.3053 108.137L37.2519 111.028Z" fill="#48598B"/>
<path d="M46.2779 108.151L46.0729 121.657L80.69 126.816L80.8768 115.444L46.2779 108.151Z" fill="#29ACE4"/>
<path d="M92.5973 137.017L77.5197 141.251L54.2017 139.871L81.6945 135.425L92.5973 137.017Z" fill="#634874"/>
<path d="M81.6948 124.418L92.5976 125.923V137.017L81.6948 135.425V124.418Z" fill="#29ACE4"/>
<path d="M81.7402 124.434V135.425L63.7654 138.94V128.788L81.7402 124.434Z" fill="#48598B"/>
<path d="M69.7853 134.084L42.2014 139.842L28.8661 138.91L53.6577 131.574L69.7853 134.084Z" fill="#634874"/>
<path d="M57.5776 121.143V132.187L28.8663 138.91V128.547L57.5776 121.143Z" fill="#48598B"/>
<path d="M57.5774 121.143V132.187L69.7397 134.152V123.142L57.5774 121.143Z" fill="#29ACE4"/>
<path d="M90.9168 147.469L67.0089 152.396L50.6103 147.861L80.7041 141.764L90.9168 147.469Z" fill="#634874"/>
<path d="M46.7065 135.785V146.358L58.1104 143.716V132.754L46.7065 135.785Z" fill="#48598B"/>
<path d="M90.9167 138.038V147.469L56.4978 144.255V133.293L90.9167 138.038Z" fill="#29ACE4"/>
<path d="M30.0071 148.822V159.513H57.5773L71.1244 156.989L71.0629 146.658L57.878 145.128L30.0071 148.822Z" fill="#48598B"/>
<path d="M54.4548 150.562V160.335H79.6518L92.0328 158.028L91.9781 148.585L79.9274 147.187L54.4548 150.562Z" fill="#48598B"/>
<path d="M80.1735 147.159V158.276L92.0875 158.067V148.23L80.1735 147.159Z" fill="#29ACE4"/>
<path d="M58.1489 145.096V157.261L71.1836 157.031V146.269L58.1489 145.096Z" fill="#29ACE4"/>
<path d="M36.5097 45.0095V58.2446" stroke="#29ACE4" stroke-miterlimit="10"/>
<path d="M46.661 39.45V53.0654" stroke="#29ACE4" stroke-miterlimit="10"/>
<path d="M80.795 80.4624L68.6304 83.3754V88.7688L78.4673 91.2445L80.524 91.0942L80.795 80.4624Z" fill="#48598B"/>
<path d="M236.822 181.168C236.159 180.039 210.873 156.299 150.683 155.58C101.911 154.997 28.5042 157.021 12.2855 162.428C12.2855 162.428 60.7617 159.725 91.0355 166.933C121.309 174.142 141.388 178.251 156.09 180.089C167.624 181.53 188.648 183.453 193.693 183.813C217.453 185.509 191.318 174.994 217.631 179.818C233.849 182.79 237.587 182.473 236.822 181.168Z" fill="#866694"/>
<path d="M85.0886 169.275C85.0886 169.275 68.8698 163.148 41.4795 164.95C8.787 167.1 0.462402 162.718 0.462402 162.718C0.462402 162.718 9.47255 175.909 30.6154 172.238C59.304 167.259 85.0886 169.275 85.0886 169.275Z" fill="#866694"/>
</svg>
