<svg width="576" height="686" viewBox="0 0 576 686" fill="none" xmlns="http://www.w3.org/2000/svg">
<path d="M276.47 506.653C203.821 507.395 145.64 523.059 89.6637 538.559C52.1406 548.947 20.2122 573.433 32.9821 574.175C45.752 574.917 67.3146 572.691 67.3146 572.691C67.3146 572.691 -20.1082 619.015 5.04571 639.472C24.2413 655.054 109.119 634.278 115.508 632.794C121.896 631.31 105.12 644.666 169.674 651.344C193.551 653.815 199.354 633.536 199.354 630.568C220.175 625.604 251.294 633.536 251.294 633.536C251.294 633.536 237.196 659.506 286.91 667.668C359.293 679.54 387.912 662.845 410.58 659.506C450.893 653.57 434.569 629.084 434.569 629.084C434.569 629.084 566.252 633.536 575.03 613.502C559.863 580.853 460.873 552.657 460.873 552.657C460.873 552.657 505.578 543.753 460.079 531.881C414.579 520.009 349.112 505.911 276.47 506.653Z" fill="#BB83C3"/>
<path d="M292.846 510.363C253.52 511.105 215.47 523.088 201.58 534.107C187.69 545.126 240.164 550.431 240.164 550.431C240.164 550.431 227.75 570.792 282.458 555.625C337.537 540.355 378.919 543.753 381.145 534.107C383.371 524.461 332.173 509.621 292.846 510.363Z" fill="#856792"/>
<path d="M236.402 595.694C229.383 598.194 230.051 604.598 244.757 601.63C259.464 598.662 246.1 594.098 236.402 595.694Z" fill="#856792"/>
<path d="M84.3437 643.924C76.1816 646.892 75.076 656.248 89.6787 652.828C102.152 649.86 92.5057 640.956 84.3437 643.924Z" fill="#BB83C3"/>
<path d="M79.1497 581.284C67.5225 585.113 -4.34048 622.25 55.6727 619.571C86.3768 618.198 108.043 614.125 133.323 603.856C157.067 594.21 155.583 583.547 165.229 576.401C191.942 558.4 203.814 555.625 191.2 550.431C158.314 536.89 78.6599 548.383 99.1911 566.755C113.289 579.369 84.3511 586.048 84.3511 586.048C84.3511 586.048 90.5468 577.529 79.1497 581.284Z" fill="#856792"/>
<path d="M175.796 638.195C160.525 638.351 49.8851 693.467 173.072 684.719C275.469 677.447 207.776 650.884 207.776 650.884C207.776 650.884 278.622 628.238 226.563 625.589C168.413 622.628 175.796 638.195 175.796 638.195Z" fill="#BB83C3"/>
<path d="M355.175 553.399C364.821 545.979 436.053 559.335 449.409 580.111C455.679 589.861 404.889 599.404 399.695 603.856C394.501 608.308 409.341 626.858 384.113 635.02C358.885 643.182 321.043 652.828 306.202 648.376C291.362 643.924 255.746 632.052 259.456 623.148C263.166 614.244 303.976 613.502 319.559 601.63C335.141 589.757 358.885 577.885 353.691 571.207C348.497 564.529 345.529 560.819 355.175 553.399Z" fill="#856792"/>
<path d="M155.131 579.369C126.564 579.369 97.9964 612.018 133.36 612.018C168.724 612.018 183.698 579.369 155.131 579.369Z" fill="#856792"/>
<path d="M546.062 682.174C563.299 676.238 548.125 665.382 528.996 665.724C509.867 666.065 528.803 688.125 546.062 682.174Z" fill="#BB83C3"/>
<path d="M512.924 679.748C552.065 671.437 557.934 638.433 481.256 642.121C404.577 645.808 473.791 688.051 512.924 679.748Z" fill="#BB83C3"/>
<path d="M441.989 606.824C431.601 612.76 458.313 623.89 464.249 612.76C470.185 601.63 452.377 600.888 441.989 606.824Z" fill="#856792"/>
<path d="M76.0777 149.387C76.0777 149.387 30.1255 177.946 42.7915 191.302L294.026 58.417C294.026 58.417 293.284 32.1946 268.932 36.1569C268.932 36.1569 256.837 -8.52648 219.856 1.45346C182.874 11.4334 176.077 51.739 176.077 51.739C176.077 51.739 162.996 35.2962 138.05 44.3857C102.152 57.5266 104.563 128.729 104.563 128.729C104.563 128.729 96.5718 113.629 73.3471 127.416C55.7468 137.878 76.0777 149.387 76.0777 149.387Z" fill="#F3E7D9"/>
<path d="M384.113 189.076C384.113 189.076 387.823 162.364 404.889 162.364C404.889 162.364 394.501 153.46 410.083 145.298C425.665 137.136 433.827 134.91 447.183 141.588C447.183 141.588 426.407 98.5518 481.315 80.7437C536.223 62.9356 571.097 104.488 553.289 111.908C535.481 119.328 507.285 140.846 488.735 141.588L384.113 189.076Z" fill="#F3E7D9"/>
<path d="M254.262 399.805L214.194 418.355C214.194 418.355 229.776 396.095 206.774 393.869C183.772 391.643 139.994 437.647 139.994 437.647C139.994 437.647 115.508 415.387 81.3755 429.485C47.2434 443.583 41.3074 476.973 41.3074 476.973C41.3074 476.973 13.1113 483.651 2.72323 499.975C-7.66481 516.299 13.1113 508.879 40.5654 500.717C68.0195 492.555 192.676 444.325 226.066 433.937C259.456 423.549 261.682 398.321 254.262 399.805Z" fill="#F3E7D9"/>
<path d="M166.402 547.033C166.402 547.033 172.026 545.876 180.329 548.191C188.632 550.506 187.207 557.362 186.577 559.069C185.946 560.775 178.637 564.159 162.655 563.031C146.672 561.903 146.249 560.901 137.248 561.339C127.461 561.814 131.75 545.297 134.57 540.066C137.389 534.835 166.402 547.033 166.402 547.033Z" fill="#EE5D4F"/>
<path d="M165.445 538.923C165.445 538.923 170.268 537.64 178.63 539.977C186.992 542.314 187.363 553.563 186.74 555.277C186.117 556.991 178.771 560.397 162.744 559.269C146.716 558.141 142.012 558.972 133.064 557.607C128.137 556.865 131.728 541.431 134.548 536.17C137.367 530.91 165.445 538.923 165.445 538.923Z" fill="#121721"/>
<path d="M138.406 372.462C139.764 373.523 185.738 441.06 185.738 441.06C185.738 441.06 190.049 455.752 189.203 459.573C188.358 463.395 168.264 538.226 168.264 538.226L154.166 541.194L138.05 536.875L154.53 458.802C154.53 458.802 105.595 387.673 103.331 384.32C101.068 380.966 118.476 356.947 138.406 372.462Z" fill="#1D2538"/>
<path d="M150.382 390.901C151.74 391.962 185.738 441.06 185.738 441.06C185.738 441.06 190.049 455.752 189.203 459.573C188.358 463.395 168.264 538.226 168.264 538.226L154.166 541.194L160.77 520.01L179.32 451.745C179.32 451.745 162.254 423.935 160.028 420.581C157.802 417.227 130.459 375.386 150.382 390.901Z" fill="#273252"/>
<path d="M128.033 577.723C128.033 577.723 133.501 576.617 141.693 578.828C149.885 581.04 148.66 587.606 148.096 589.216C147.533 590.827 140.461 594.091 124.798 593.008C109.134 591.925 108.689 590.968 99.8959 591.383C90.3315 591.843 94.0935 576.038 96.7127 571.03C99.332 566.021 128.033 577.723 128.033 577.723Z" fill="#EE5D4F"/>
<path d="M126.883 569.961C126.883 569.961 131.565 568.737 139.801 570.971C148.037 573.204 148.705 583.97 148.148 585.61C147.592 587.25 140.498 590.515 124.783 589.424C109.067 588.333 104.489 589.15 95.7333 587.836C90.8954 587.094 94.0044 572.366 96.6311 567.327C99.2578 562.289 126.883 569.961 126.883 569.961Z" fill="#121721"/>
<path d="M66.6838 359.552C66.6838 359.552 59.197 372.255 64.7694 386.753C70.2454 400.978 90.183 420.381 127.38 386.449C150.226 365.606 90.0198 346.938 66.6838 359.552Z" fill="#273252"/>
<path d="M71.0616 397.668C97.0317 430.836 117.066 460.338 117.066 460.338C116.413 465.643 118.49 465.643 118.49 465.643L92.5055 557.11C92.5055 557.11 91.4963 567.676 96.0448 569.642C100.593 571.609 120.472 572.247 120.472 572.247L132.017 569.642C132.017 569.642 164.561 473.137 165.303 470.889C166.045 468.641 168.42 457.251 166.453 452.651C164.487 448.05 139.652 404.257 119.344 377.545C98.3302 349.95 44.0453 363.173 71.0616 397.668Z" fill="#273252"/>
<path d="M71.0616 397.668C97.0317 430.836 117.066 460.338 117.066 460.338C116.413 465.643 118.49 465.643 118.49 465.643L92.5055 557.11C92.5055 557.11 91.4963 567.676 96.0448 569.642C100.593 571.609 120.472 572.247 120.472 572.247L132.017 569.642L111.798 550.432C111.798 550.432 132.321 469.049 132.685 467.951C133.427 465.725 100.408 404.406 98.4415 399.805C96.4752 395.205 119.344 377.545 119.344 377.545C98.3302 349.95 44.0453 363.173 71.0616 397.668Z" fill="#1D2538"/>
<path d="M233.842 214.356C219.833 216.085 171.996 219.64 155.828 224.744C139.66 229.849 144.869 260.784 166.276 258.535C187.682 256.287 229.932 254.083 243.793 250.121C257.653 246.159 247.851 212.635 233.842 214.356Z" fill="#7A462F"/>
<path d="M227.083 233.819C227.083 233.819 221.213 247.917 220.041 249.082C216.331 252.792 178.667 257.986 200.081 255.76C221.495 253.534 229.932 254.076 243.792 250.128C257.653 246.181 227.083 233.819 227.083 233.819Z" fill="#A96443"/>
<path d="M246.842 248.436C246.842 248.436 205.09 265.918 201.58 272.922C197.87 278.859 192.119 298.893 214.097 291.532C236.076 284.171 260.532 268.411 261.853 261.414C263.174 254.417 266.008 245.031 246.842 248.436Z" fill="#F5894E"/>
<path d="M146.494 265.725C146.494 265.725 192.305 264.983 207.145 266.334C221.985 267.684 229.242 282.487 214.891 290.961C200.541 299.434 172.16 292.022 155.301 292.593C138.443 293.164 126.319 272.923 146.494 265.725Z" fill="#CC6D3D"/>
<path d="M146.494 265.725C146.494 265.725 192.305 264.983 207.145 266.334C221.985 267.684 229.242 282.487 214.891 290.961C200.541 299.434 172.16 292.022 155.301 292.593C138.443 293.164 126.319 272.923 146.494 265.725Z" fill="#F5894E"/>
<path d="M146.494 265.725L171.9 276.633C171.9 276.633 180.737 287.288 185.998 287.763C200.838 289.098 229.242 282.487 214.891 290.961C200.541 299.434 172.16 292.022 155.301 292.593C138.443 293.164 126.319 272.923 146.494 265.725Z" fill="#CC6D3D"/>
<path d="M214.194 284.052L205.29 288.505C205.29 288.505 192.119 298.893 214.097 291.532C236.076 284.171 260.532 268.411 261.853 261.414C262.535 257.808 246.464 246.819 235.712 252.888C232.7 254.588 233.642 271.127 230.518 272.922C223.157 277.144 218.987 282.034 214.194 284.052Z" fill="#CC6D3D"/>
<path d="M339.118 312.323C339.118 312.323 301.224 302.365 297.187 300.814C293.151 299.264 274.697 314.393 293.588 324.121C312.48 333.848 324.753 337.477 338.109 336.735C350.723 336.037 349.476 318.355 339.118 312.323Z" fill="#F5894E"/>
<path d="M361.6 297.698C361.6 297.698 342.872 311.507 333.656 315.684C324.441 319.862 329.702 337.306 339.748 336.356C349.795 335.406 371.172 322.132 375.461 315.053C379.75 307.975 378.065 291.176 361.6 297.698Z" fill="#F5894E"/>
<path d="M361.6 297.698C361.6 297.698 342.872 311.507 333.656 315.684C324.441 319.862 326.556 332.49 336.624 331.541C346.693 330.591 371.194 322.132 375.483 315.053C379.772 307.975 378.065 291.176 361.6 297.698Z" fill="#CC6D3D"/>
<path d="M392.497 283.689C392.497 283.689 391.013 282.257 374.407 290.552C365.177 295.16 352.889 302.313 352.889 302.313L365.281 325.182C365.281 325.182 394.501 312.249 401.067 300.161C407.634 288.074 392.497 283.689 392.497 283.689Z" fill="#992C29"/>
<path d="M339.118 312.323C339.118 312.323 301.224 302.365 297.187 300.814C293.151 299.264 274.697 314.393 293.588 324.121C312.48 333.848 323.269 333.025 336.625 332.283C349.239 331.585 349.476 318.355 339.118 312.323Z" fill="#CC6D3D"/>
<path d="M254.351 517.62C253.253 517.62 245.069 523.326 237.938 531.882C231.935 539.079 235.593 542.641 241.648 545.238C246.842 547.464 252.927 549.69 265.043 540.429C272.293 534.887 277.873 529.737 278.585 526.176C279.297 522.614 277.16 511.914 277.16 511.914L254.351 517.62Z" fill="#29ABE2"/>
<path d="M254.351 516.196C253.253 516.196 249.751 519.245 241.574 526.799C231.26 536.333 235.949 538.812 238.012 540.348C244.616 545.237 251.494 546.135 264.331 539.005C266.802 537.632 270.341 533.484 272.174 531.881C276.248 528.298 278.11 525.07 278.585 522.614C279.327 519.045 277.16 510.49 277.16 510.49L254.351 516.196Z" fill="#121721"/>
<path d="M327.275 514.474C328.559 514.474 337.93 519.119 346.27 528.171C353.29 535.792 349.439 537.365 346.27 540.785C340.171 547.382 326.318 546.143 312.138 536.333C303.65 530.464 299.747 527.303 298.908 523.526C298.07 519.75 300.578 508.434 300.578 508.434L327.275 514.474Z" fill="#29ABE2"/>
<path d="M321.873 509.191C323.157 509.191 333.656 517.041 344.044 525.203C352.207 531.607 349.98 534.107 344.786 538.559C338.932 543.575 328.826 542.381 318.816 535.591C316.524 534.033 306.024 528.053 306.024 528.053C306.024 528.053 299.487 523.111 298.908 520.506C298.077 516.737 300.578 506.928 300.578 506.928L321.873 509.191Z" fill="#121721"/>
<path d="M244.371 327.994C244.371 335.585 243.132 351.805 243.132 363.447C243.132 393.127 243.132 423.727 243.629 426.517C244.334 430.398 251.012 510.408 254.262 516.299C254.262 516.299 257.46 519.475 261.474 519.045C270.03 518.132 278.949 514.83 279.283 512.634C279.965 508.323 276.559 462.92 277.991 427.304C278.7 411.118 281.171 395.058 285.36 379.407C297.12 309.459 244.371 301.623 244.371 327.994Z" fill="#F7BC4B"/>
<path d="M271.454 398.573C271.454 398.573 260.198 421.865 260.94 425.775C261.682 429.685 251.012 509.666 254.262 515.557C254.262 515.557 257.46 519.475 261.474 519.045C270.03 518.132 278.949 514.83 279.282 512.634C279.987 508.182 278.733 427.259 278.733 427.259C278.733 427.259 285.077 381.077 285.359 379.37C297.12 309.459 271.454 398.573 271.454 398.573Z" fill="#CE9436"/>
<path d="M299.984 317.443C299.984 317.443 243.689 302.246 243.132 327.089C242.576 351.931 325.91 371.609 329.205 333.767C331.334 309.281 299.984 317.443 299.984 317.443Z" fill="#F7BC4B"/>
<path d="M283.2 353.059C283.007 357.57 295.599 417.776 296.987 430.079C299.465 451.96 297.12 514.059 297.12 514.059C297.12 514.059 306.967 516.938 310.922 516.938C314.876 516.938 324.923 510.49 324.923 510.49C324.923 510.49 326.533 464.552 327.06 451.322C328.084 425.879 330.629 445.193 332.165 411.996C333.59 381.426 326.355 330.784 318.505 320.856C310.506 310.765 285.167 307.129 283.2 353.059Z" fill="#F7BC4B"/>
<path d="M244.698 334.991L265.392 343.413L324.537 330.294L244.698 334.991Z" fill="#CE9436"/>
<path d="M280.166 337.069C280.166 337.069 260.332 348.117 270.586 352.317C280.841 356.517 283.683 337.959 283.683 337.959C283.683 337.959 283.683 349.371 290.806 347.939C297.929 346.507 289.493 335.481 280.166 337.069Z" stroke="#FEED7F" stroke-width="2" stroke-miterlimit="10"/>
<path d="M321.361 357.222C321.272 359.225 315.848 396.837 315.848 396.837L297.298 422.733L297.12 514.074C297.12 514.074 306.967 516.952 310.922 516.952C314.876 516.952 324.923 510.504 324.923 510.504C324.923 510.504 331.512 438.708 329.946 448.035C328.381 457.362 334.398 420.581 334.398 420.581C334.398 420.581 333.337 329.604 325.494 319.669C317.496 309.54 323.328 311.292 321.361 357.222Z" fill="#CE9436"/>
<path d="M258.714 428.001C258.714 428.001 263.908 456.939 261.682 473.263C261.682 473.263 257.23 451.745 256.488 444.325C255.746 436.905 258.714 428.001 258.714 428.001Z" fill="#F7BC4B"/>
<path d="M277.724 208.531L225.472 214.571L227.55 234.568L234.399 259.448L242.561 334.115C242.561 334.115 267.789 338.404 291.288 335.407C304.402 333.788 317.399 331.332 330.199 328.053L334.517 252.888L337.552 238.33C337.552 238.33 341.262 219.394 338.695 218.608C336.127 217.821 298.04 207.404 277.724 208.531Z" fill="#1689CB"/>
<path d="M307.189 229.604L302.626 262.995L286.858 303.345L273.346 327.682L242.59 334.116C242.59 334.116 267.819 338.404 291.318 335.407C304.432 333.788 317.428 331.332 330.228 328.053L334.517 252.889L337.552 238.33C337.552 238.33 341.262 219.394 338.695 218.608C336.127 217.821 326.526 228.217 307.189 229.604Z" fill="#29ABE2"/>
<path d="M263.24 234.227C268.041 241.091 277.642 243.131 286.561 241.091C295.48 239.05 297.528 235.6 298.218 230.116C298.908 224.633 301.646 211.603 294.1 209.541C286.554 207.478 267.388 205.43 261.867 215.714C261.867 215.714 258.439 227.371 263.24 234.227Z" fill="#7A462F"/>
<path d="M240.008 253.119L241.492 267.959C241.492 267.959 295.503 276.944 328.626 265.362V252.599C328.626 252.599 286.836 266.593 240.008 253.119Z" fill="#3E4C6F"/>
<path d="M240.906 271.06L242.331 285.381C242.331 285.381 295.013 293.431 327.312 281.812V269.465C327.312 269.465 287.266 280.869 240.906 271.06Z" fill="#3E4C6F"/>
<path d="M314.364 190.605C313.17 216.145 307.924 224.099 291.459 224.21C279.015 224.292 269.08 208.814 269.28 190.123C269.481 171.431 279.654 154.811 292.104 154.944C304.37 155.078 315.656 163.67 314.364 190.605Z" fill="#273252"/>
<path d="M305.037 184.483C305.208 163.774 303.613 158.135 286.487 156.666C277.583 155.924 265.897 156.005 260.673 158.892C255.939 161.489 255.175 164.828 253.379 175.78C252.021 184.053 251.235 203.197 253.594 217.072C255.078 225.976 265.095 226.592 274.415 226.785C287.979 227.067 302.173 221.851 303.85 209.637C306.143 193.091 304.978 191.354 305.037 184.483Z" fill="#7A462F"/>
<path d="M304.347 203.82C306.982 189.722 303.212 174.518 286.228 173.012C277.368 172.225 259.879 176.358 259.033 185.819C258.106 196.066 257.364 206.113 259.211 215.031C260.792 222.696 266.32 226.711 276.686 225.961C288.483 225.1 293.076 225.82 298.322 219.417C303.568 213.013 303.012 210.928 304.347 203.82Z" fill="#A96443"/>
<path d="M257.23 160.138C253.654 166.861 254.908 166.505 253.787 172.485C253.52 173.746 257.972 169.042 257.972 169.042C257.972 169.042 259.493 170.348 268.219 171.669C276.945 172.99 280.232 170.526 280.232 170.526C280.232 170.526 286.858 182.725 289.04 187.555C290.471 190.582 292.584 193.236 295.213 195.309L308.109 192.274C308.748 179.393 307.301 159.589 299.131 156.658C284.18 151.279 260.807 153.416 257.23 160.138Z" fill="#273252"/>
<path d="M308.859 198.403C307.137 205.296 302.344 210.097 298.107 209.34C298.107 209.34 298.411 193.677 298.382 190.686C298.382 188.817 299.472 183.036 303.984 183.845C308.495 184.654 310.654 191.302 308.859 198.403Z" fill="#A96443"/>
<path d="M306.418 203.315C306.291 204.12 305.865 204.847 305.225 205.35C304.586 205.854 303.779 206.097 302.967 206.031C302.578 205.996 302.199 205.882 301.856 205.695C301.512 205.508 301.21 205.252 300.969 204.944C300.728 204.636 300.552 204.282 300.453 203.904C300.354 203.525 300.333 203.131 300.393 202.744C300.511 201.931 300.934 201.193 301.576 200.68C302.218 200.168 303.031 199.919 303.85 199.984C304.244 200.018 304.627 200.134 304.974 200.323C305.32 200.513 305.624 200.773 305.865 201.086C306.107 201.399 306.28 201.759 306.375 202.143C306.47 202.526 306.485 202.926 306.418 203.315Z" fill="#F3E7D9"/>
<path d="M273.198 194.76C272.983 197.313 271.796 199.271 270.534 199.16C269.273 199.049 268.42 196.934 268.613 194.352C268.806 191.77 270 189.737 271.276 189.855C272.553 189.974 273.421 192.178 273.198 194.76Z" fill="#1D2538"/>
<path d="M256.488 191.859C256.273 194.189 255.538 196.007 254.863 195.955C254.188 195.903 253.787 193.988 253.995 191.666C254.203 189.343 254.93 187.429 255.627 187.481C256.325 187.533 256.718 189.507 256.488 191.859Z" fill="#1D2538"/>
<path d="M269.399 182.65C270.536 182.284 271.759 182.284 272.895 182.652C274.031 183.019 275.022 183.735 275.728 184.698" stroke="#1D2538" stroke-linecap="round" stroke-linejoin="round"/>
<path d="M254.381 184.187L258.425 183.6" stroke="#1D2538" stroke-linecap="round" stroke-linejoin="round"/>
<path d="M338.851 273.664C338.109 274.406 333.656 291.472 346.271 292.956C358.885 294.441 367.047 283.31 357.401 276.632C347.755 269.954 338.851 273.664 338.851 273.664Z" fill="#273252"/>
<path d="M384.291 422.807C384.239 424.87 385.033 446.907 386.101 455.893C387.17 464.879 392.037 525.797 393.944 537.357C395.651 547.745 408.042 549.623 410.862 540.103C413.682 530.583 411.849 498.885 416.264 478.428C420.679 457.971 416.264 425.471 404.518 423.623C397.836 422.505 391.041 422.231 384.291 422.807Z" fill="#F5894E"/>
<path d="M383.081 410.401C383.029 412.464 383.92 434.509 385.129 443.494C386.339 452.48 386.806 462.133 386.806 462.133C391.6 465.623 397.132 467.963 402.974 468.975C412.873 470.748 417.956 466.14 417.956 466.14C422.704 445.698 417.807 413.183 405.074 411.291C397.802 410.147 390.422 409.849 383.081 410.401Z" fill="#121721"/>
<path d="M412.346 532.468C413.088 533.417 416.516 540.259 416.798 543.175C417.08 546.091 418.935 551.819 408.109 551.671C399.205 551.545 395.265 555.974 390.116 556.204C378.726 556.702 371.684 557.258 365.466 553.444C359.248 549.63 369.963 550.632 384.246 543.234C398.53 535.836 410.669 530.316 412.346 532.468Z" fill="#992C29"/>
<path d="M396.044 533.403C403.286 526.977 410.142 527.86 411.27 532.394C411.938 535.02 403.108 540.437 401.008 541.758C395.391 545.275 389.069 549.259 381.657 547.582C374.244 545.905 381.924 545.928 396.044 533.403Z" fill="#F5894E"/>
<path d="M395.666 446.722C395.666 448.948 397.239 472.692 398.634 482.338C400.029 491.984 406.981 557.384 409.274 569.724C411.329 580.854 423.587 582.174 426.051 571.757C428.514 561.339 426.407 534.078 429.175 504.977C431.312 482.486 427.253 447.842 415.64 446.507C409.004 445.661 402.283 445.734 395.666 446.722Z" fill="#F5894E"/>
<path d="M395.666 446.722C395.666 448.948 397.239 472.692 398.634 482.338C400.029 491.984 406.981 557.384 409.274 569.724C411.329 580.854 427.245 568.24 424.923 557.852C423.439 551.174 422.697 540.786 416.019 503.685C412.019 481.425 427.253 447.857 415.64 446.499C409.004 445.657 402.282 445.731 395.666 446.722Z" fill="#CC6D3D"/>
<path d="M394.033 433.381C394.033 435.607 395.725 459.351 397.231 468.997C398.737 478.643 399.554 489.031 399.554 489.031C404.33 492.498 409.889 494.731 415.737 495.531C425.553 496.911 430.399 491.657 430.399 491.657C434.354 469.353 428.366 434.523 415.744 433.203C408.528 432.349 401.234 432.408 394.033 433.381Z" fill="#1D2538"/>
<path d="M394.033 433.381C394.033 435.607 395.725 459.351 397.231 468.997C398.737 478.643 399.554 489.031 399.554 489.031C404.33 492.498 409.889 494.731 415.737 495.531L407.857 460.649C407.857 460.649 437.537 441.958 424.923 440.615C412.309 439.272 394.033 433.381 394.033 433.381Z" fill="#121721"/>
<path d="M407.523 567.142C407.523 567.142 390.539 593.653 404.555 588.303C418.571 582.954 431.267 574.858 425.138 567.839C419.009 560.82 407.523 567.142 407.523 567.142Z" fill="#CC6D3D"/>
<path d="M427.238 563.981C427.898 565.071 430.725 572.84 430.71 576.083C430.696 579.325 432.061 585.788 421.101 585.053C412.116 584.452 407.671 589.164 402.433 589.149C390.828 589.149 383.638 589.357 377.702 584.801C371.766 580.245 382.525 581.915 397.699 574.458C412.873 567 425.732 561.502 427.238 563.981Z" fill="#992C29"/>
<path d="M410.617 564.166C418.571 557.406 425.413 558.749 426.155 563.84C426.578 566.808 417.124 572.336 414.861 573.686C408.836 577.3 402.047 581.395 394.686 579.147C387.326 576.899 395.117 577.322 410.617 564.166Z" fill="#CC6D3D"/>
<path d="M409.749 336.772C409.749 340.831 383.653 386.657 384.113 392.637C378.919 425.286 379.661 430.643 379.661 430.643C379.661 430.643 398.211 440.452 412.309 444.251C426.407 448.05 448.163 449.208 457.571 442.767C466.98 436.327 464.19 435.347 464.19 435.347L476.121 432.09L485.767 429.812C485.767 429.812 483.756 405.838 473.895 368.967C461.281 321.843 455.345 316.404 441.989 313.481C428.633 310.557 409.786 332.721 409.749 336.772Z" fill="#F7BC4B"/>
<path d="M409.749 336.772C409.749 340.831 383.653 386.657 384.113 392.637C378.919 425.285 379.661 430.643 379.661 430.643C379.661 430.643 398.211 440.452 412.309 444.251C412.309 444.251 414.535 444.251 416.019 413.087C417.503 381.923 431.601 357.6 427.891 334.798C414.535 331.875 409.786 332.721 409.749 336.772Z" fill="#CE9436"/>
<path d="M364.116 287.577C364.116 287.577 365.563 312.664 371.499 319.52C380.262 329.649 411.53 342.396 411.53 342.396C411.53 342.396 415.982 348.488 428.596 344.711C449.372 338.508 461.986 334.895 453.134 318.155C449.135 310.616 433.842 294.826 425.205 287.414C414.683 278.376 401.973 271.617 390.145 272.425C368.598 273.909 364.116 287.577 364.116 287.577Z" fill="#F7BC4B"/>
<path d="M364.116 287.577C364.116 287.577 365.563 312.664 371.499 319.52C380.262 329.649 411.53 342.396 411.53 342.396C411.53 342.396 421.102 351.59 428.596 344.711L416.019 324.121L412.309 299.041C412.309 299.041 401.921 271.587 390.116 272.396C368.598 273.909 364.116 287.577 364.116 287.577Z" fill="#CE9436"/>
<path d="M351.465 278.502L364.821 295.183C366.186 297.097 372.107 279.534 370.015 274.8C368.367 271.045 365.563 269.413 364.546 266.245C364.375 265.672 364.042 265.161 363.587 264.773C363.132 264.385 362.574 264.137 361.981 264.059C361.389 263.98 360.786 264.075 360.246 264.331C359.706 264.587 359.251 264.994 358.937 265.503L349.981 272.418C349.313 273.531 350.723 277.434 351.465 278.502Z" fill="#CC6D3D"/>
<path d="M464.249 435.132L465.733 394.084C465.733 394.084 471.669 429.047 471.669 432.09C471.669 435.132 464.249 435.132 464.249 435.132Z" fill="#CE9436"/>
<path d="M402.091 319.402C402.091 319.402 407.575 350.974 406.744 359.225C405.913 367.476 388.809 377.033 385.292 360.932C381.775 344.83 378.214 328.001 378.362 320.544C378.533 312.249 398.812 306.268 402.091 319.402Z" fill="#F5894E"/>
<path d="M402.091 319.402C402.091 319.402 394.983 325.479 395.243 333.767C395.406 339.005 396.727 357.511 396.727 357.511C396.727 357.511 388.03 373.479 385.292 360.932C381.783 344.838 378.214 328.001 378.362 320.544C378.533 312.249 398.812 306.268 402.091 319.402Z" fill="#CC6D3D"/>
<path d="M378.036 325.783C377.917 324.299 367.047 289.247 380.039 285.425C398.233 280.231 399.027 299.523 400.236 305.407C401.446 311.292 402.388 323.104 402.388 323.104L378.036 325.783Z" fill="#992C29"/>
<path d="M393.017 314.475C392.972 313.881 394.501 308.539 394.501 308.539L380.039 285.425C398.233 280.231 399.027 299.523 400.236 305.408C401.446 311.292 402.388 323.104 402.388 323.104L393.017 314.475Z" fill="#C94039"/>
<path d="M388.854 361.666C388.854 361.666 385.648 361.963 386.338 376.061C387.029 390.159 390.264 415.387 390.79 420.581C391.317 425.775 399.442 429.211 403.405 416.871C407.367 404.532 408.213 374.577 407.27 362.371C406.328 350.165 390.093 351.85 388.854 361.666Z" fill="#F5894E"/>
<path d="M387.823 361.963C387.362 366.074 385.648 361.963 386.339 376.061C387.029 390.159 390.264 415.387 390.791 420.581C391.317 425.775 403.405 416.871 403.405 416.871L395.985 353.801C395.985 353.801 388.565 355.285 387.823 361.963Z" fill="#CC6D3D"/>
<path d="M402.388 412.352C402.388 412.352 408.614 422.162 403.086 426.45C397.558 430.739 390.791 435.421 390.791 435.421C390.791 435.421 393.15 446.24 390.049 445.067C386.947 443.895 380.403 440.615 380.403 440.615C377.086 444.681 378.177 423.549 378.177 423.549C378.177 423.549 390.279 410.609 402.388 412.352Z" fill="#CC6D3D"/>
<path d="M427.067 270.207C426.563 268.589 401.038 252.451 388.617 251.657C374.103 250.737 369.54 255.641 372.292 264.508C375.045 273.375 410.75 268.218 410.75 268.218L427.067 270.207Z" fill="#7A462F"/>
<path d="M412.413 260.591C415.725 261.05 418.966 261.928 422.059 263.202C426.436 265.154 427.943 264.894 430.859 273.665C432.558 278.77 432.951 280.781 433.085 286.279C433.189 290.79 432.417 290.59 430.362 291.77C430.048 292.514 429.468 293.114 428.735 293.453C428.002 293.792 427.169 293.845 426.399 293.602C423.431 292.86 423.431 290.731 423.431 290.731C423.431 290.731 422.815 293.951 418.979 292.957C415.143 291.962 415.269 287.021 415.269 287.021C415.269 287.021 416.152 292.526 412.153 291.013C410.238 290.271 408.012 289.922 408.213 284.728C408.287 282.732 408.042 280.528 407.975 278.577C407.604 277.649 402.418 274.325 402.418 274.325L404.377 277.063C404.377 277.063 406.766 282.784 405.326 284.298C402.485 287.303 399.442 284.372 398.329 282.673C396.882 280.447 392.171 276.328 395.235 271.439C400.607 262.891 402.203 259.018 412.413 260.591Z" fill="#7A462F"/>
<path d="M412.413 260.591C415.725 261.05 418.966 261.928 422.059 263.202C426.436 265.154 427.943 264.894 430.859 273.665C432.558 278.77 433.152 281.908 433.003 285.136L427.868 278.458L423.416 278.881C423.416 278.881 402.203 259.018 412.413 260.591Z" fill="#A96443"/>
<path d="M341.952 219.951C341.826 217.443 356.525 208.71 369.287 209.971C387.674 211.781 401.921 225.434 395.354 238.048C395.354 238.048 414.572 237.492 415.217 250.202C415.863 262.913 411.708 274.77 394.983 268.218C394.983 268.218 370.942 260.991 372.997 261.303C375.053 261.614 343.236 245.372 341.952 219.951Z" fill="#273252"/>
<path d="M331.742 230.851C331.742 230.851 323.372 223.884 329.598 217.866C335.823 211.848 338.851 218.014 338.851 218.014C338.851 218.014 330.622 199.613 340.587 202.024C350.552 204.436 349.817 226.696 340.795 229.174C331.772 231.652 331.742 230.851 331.742 230.851Z" fill="#273252"/>
<path d="M352.555 226.533C348.029 221.123 343.392 221.086 334.866 227.082C327.884 232.328 326.941 246.047 326.793 258.246C326.645 270.444 333.857 282.732 346.204 281.656C359.775 280.439 360.346 280.009 364.264 273.961C368.182 267.914 365.429 241.944 352.555 226.533Z" fill="#F5894E"/>
<path d="M352.555 226.533C348.029 221.123 343.392 221.086 334.866 227.082C327.884 232.328 330.058 254.202 331.594 264.115C333.13 274.028 346.204 281.656 346.204 281.656C359.775 280.439 360.346 280.009 364.264 273.961C368.182 267.914 365.429 241.944 352.555 226.533Z" fill="#CC6D3D"/>
<path d="M334.866 227.082C334.866 227.082 338.576 226.755 347.109 231.808C353.435 235.606 358.351 241.363 361.111 248.206L364.442 245.557C364.442 245.557 362.469 233.04 354.099 225.79C345.529 218.363 339.177 222.941 334.866 227.082Z" fill="#F7BC4B"/>
<path d="M378.34 254.543C378.34 254.543 359.79 265.428 359.664 276.544C359.538 287.659 387.452 294.352 395.666 277.783C403.88 261.214 378.34 254.543 378.34 254.543Z" fill="#273252"/>
<path d="M360.265 250.195C360.265 250.195 359.463 238.664 368.887 241.254C378.31 243.843 375.684 260.998 368.612 263.469C357.215 267.439 360.265 250.195 360.265 250.195Z" fill="#CC6D3D"/>
<path d="M337.781 242.684C337.923 240.624 337.177 238.894 336.114 238.82C335.051 238.747 334.074 240.357 333.931 242.418C333.789 244.478 334.535 246.208 335.598 246.282C336.661 246.355 337.638 244.745 337.781 242.684Z" fill="#273252"/>
<path d="M337.537 232.854C338.291 232.974 339 233.291 339.591 233.773C340.183 234.256 340.636 234.886 340.906 235.6" stroke="#273252" stroke-width="0.5" stroke-linecap="round" stroke-linejoin="round"/>
<path d="M167.055 231.059L151.532 253.497L170.505 284.965L190.324 251.464C190.324 251.464 193.077 223.899 167.055 231.059Z" fill="#CC6D3D"/>
<path d="M171.529 286.65C171.529 286.65 173.013 316.33 175.239 319.298" stroke="#992C29" stroke-miterlimit="10"/>
<path d="M174.868 282.569C175.61 275.149 172.642 259.418 157.06 248.436C148.816 242.619 115.114 256.977 102.508 269.405C64.3095 307.055 62.0835 369.383 62.0835 369.383C62.0835 369.383 81.7614 384.861 112.54 384.965C122.802 384.965 136.284 382.739 142.22 374.577L147.414 343.413C147.414 343.413 174.126 289.989 174.868 282.569Z" fill="#F7BC4B"/>
<path d="M117.734 258.825C117.734 258.825 112.54 261.051 102.894 269.213C63.2856 305.378 62.0836 369.383 62.0836 369.383C62.0836 369.383 81.7615 384.861 112.54 384.965C122.802 384.965 136.284 382.739 142.22 374.577C142.22 374.577 113.697 383.748 95.4737 367.157C90.5097 362.631 80.6337 342.671 80.6337 342.671C80.6337 342.671 78.4077 317.443 85.8277 299.635C93.2477 281.827 117.734 258.825 117.734 258.825Z" fill="#CE9436"/>
<path d="M122.928 378.287C117.531 376.234 112.699 372.928 108.83 368.641C100.119 359.106 91.0217 343.413 91.0217 343.413C91.0217 343.413 91.7637 361.221 99.9257 372.351C108.088 383.481 122.928 378.287 122.928 378.287Z" fill="#CE9436"/>
<path d="M166.372 248.437C169.681 255.226 174.356 267.135 175.239 277.041C176.347 290.869 176.347 304.764 175.239 318.593" stroke="#992C29" stroke-miterlimit="10"/>
<path d="M176.117 326.351C177.422 326.27 178.354 324.175 178.199 321.672C178.043 319.169 176.86 317.205 175.555 317.286C174.25 317.367 173.318 319.462 173.474 321.965C173.629 324.468 174.813 326.432 176.117 326.351Z" fill="#29ABE2"/>
<path d="M162.996 260.464C162.996 260.464 148.653 252.888 133.093 269.954C117.533 287.02 122.876 304.895 132.574 301.861C142.272 298.826 174.386 271.795 162.996 260.464Z" fill="#CC6D3D"/>
<path d="M130.541 349.349C121.429 351.916 109.023 346.618 111.991 332.965C114.959 319.313 139.638 268.471 147.414 263.106C161.237 253.593 173.169 264.59 172.642 273.494C172.115 282.398 159.894 309.733 151.435 322.837C137.471 344.496 139.652 346.781 130.541 349.349Z" fill="#F5894E"/>
<path d="M112.799 331.273C115.767 317.621 139.638 268.463 147.421 263.106C161.245 253.593 159.293 264.501 147.421 280.52C143.229 286.189 139.43 302.855 133.449 309.162C122.52 320.67 127.988 321.857 127.083 325.011C117.585 358.253 109.831 344.897 112.799 331.273Z" fill="#CC6D3D"/>
<path d="M182.117 346.663C171.818 342.122 129.762 319.951 120.435 326.183C111.108 332.416 105.379 346.566 126.066 352.755C149.766 359.841 178.081 366.571 185.612 366.274C194.331 365.932 196.156 352.844 182.117 346.663Z" fill="#F5894E"/>
<path d="M126.519 340.445C125.131 337.343 127.573 325.308 127.573 325.308C127.573 325.308 125.347 321.383 119.411 325.367C110.084 331.63 105.357 346.574 126.044 352.762C149.744 359.848 173.443 364.745 173.443 364.745C173.443 364.745 168.784 362.579 162.41 359.551C148.853 353.059 127.461 342.537 126.519 340.445Z" fill="#CC6D3D"/>
<path d="M146.457 330.294C146.457 330.294 141.567 325.204 134.325 325.597C129.606 325.857 146.457 330.294 146.457 330.294Z" fill="#CC6D3D"/>
<path d="M178.971 354.209C179.921 349.015 189.53 345.453 195.436 341.387C201.343 337.321 204.259 335.778 208.006 337.633C211.753 339.488 205.95 342.033 204.481 343.502C203.262 344.945 202.22 346.529 201.38 348.221C200.638 350.551 206.908 351.783 214.268 351.426C220.33 351.137 227.543 347.197 227.565 353.43C227.565 356.465 221.8 358.475 221.8 358.475C221.8 358.475 224.59 359.648 224.026 362.141C223.618 363.892 218.446 365.955 218.446 365.955C218.446 365.955 221.325 368.077 218.891 369.479C217.303 370.299 215.628 370.939 213.897 371.386C213.897 371.386 216.539 374.028 211.256 374.614C207.546 375.03 201.179 375.89 188.387 369.761C179.817 365.673 177.48 362.386 178.971 354.209Z" fill="#F5894E"/>
<path d="M205.95 373.738L210.061 366.4L210.944 359.937L214.758 356.709L212.406 367.869L205.95 373.738Z" fill="#CC6D3D"/>
<path d="M111.137 258.082C110.996 256.19 127.283 235.77 133.227 232.854C147.852 225.672 154.745 229.144 155.487 239.532C156.229 249.92 116.992 259.262 116.992 259.262L111.137 258.082Z" fill="#7A462F"/>
<path d="M133.739 249.275C148.416 238.709 160.028 229.144 160.77 239.533C161.512 249.921 133.449 253.972 133.449 253.972C133.449 253.972 122.423 257.422 133.739 249.275Z" fill="#A96443"/>
<path d="M121.251 248.837C121.251 248.837 112.347 253.623 108.303 257.496C104.66 260.984 101.855 272.982 101.343 275.304C101.287 275.564 101.287 275.832 101.343 276.091C101.744 278.117 103.658 287.265 105.565 289.002C106.708 290.041 109.112 289.165 110.069 287.436C111.672 284.542 109.876 280.194 109.876 280.194C109.876 280.194 113.052 289.922 113.586 290.76C114.951 292.92 117.712 293.565 120.628 290.961C121.555 290.13 118.476 284.112 118.476 284.112C118.476 284.112 120.628 290.374 122.386 290.567C124.145 290.76 125.184 290.523 127.083 288.809C128.983 287.095 125.154 279.022 125.154 279.022C125.154 279.022 128.433 285.537 130.83 284.216C132.915 283.051 136.596 281.3 134.036 275.891C132.476 272.599 131.396 269.101 130.83 265.503C130.83 265.503 129.658 261.793 133.175 263.351C137.709 265.354 143.748 263.032 145.173 261.214C148.282 257.281 146.204 252.814 137.872 252.198C128.53 251.516 126.89 246.144 121.251 248.837Z" fill="#7A462F"/>
<path d="M132.269 252.799L122.98 256.509L116.992 265.718L117.875 267.669L116.116 274.132C116.116 274.132 122.134 290.538 122.371 290.567C124.137 290.76 125.169 290.523 127.068 288.809C128.968 287.095 125.154 279.022 125.154 279.022C125.154 279.022 122.186 272.529 123.195 273.932C124.337 275.482 129.962 284.809 131.216 284.112C133.308 282.947 136.595 281.292 134.035 275.883C132.476 272.591 131.396 269.093 130.83 265.495L132.878 259.233C132.878 259.233 142.969 265.547 146.093 259.529C148.148 255.567 144.705 254.031 141.099 252.629C138.436 251.627 132.269 252.799 132.269 252.799Z" fill="#A96443"/>
<path d="M147.555 234.769C157.668 257.511 169.184 249.119 182.696 246.018C196.208 242.916 205.794 202.759 206.032 190.56C206.18 182.844 204.978 180.402 190.45 179.43C179.32 178.688 159.286 193.528 159.286 193.528C159.286 193.528 151.376 195.072 148.156 198.722C138.51 209.674 142.153 222.622 147.555 234.769Z" fill="#1D2538"/>
<path d="M189.626 191.362C189.626 191.362 201.907 193.469 205.416 196.556C208.926 199.642 217.904 234.339 212.71 245.469C210.447 250.314 181.902 258.825 173.599 250.062C171.373 247.739 173.213 240.838 170.802 229.879C168.257 218.341 178.801 208.866 179.387 204.273C180.388 196.4 189.626 191.362 189.626 191.362Z" fill="#CC6D3D"/>
<path d="M204.86 197.884C208.34 200.948 217.058 231.037 211.805 242.872C208.332 250.64 186.577 251.894 184.514 246.953C179.157 234.086 181.791 211.759 189.827 203.256C199.666 192.853 202.96 196.214 204.86 197.884Z" fill="#F5894E"/>
<path d="M164.139 225.65C166.313 232.506 171.64 237.232 176.07 236.216C180.5 235.199 182.377 228.796 180.218 221.851C178.059 214.905 172.642 210.134 168.19 211.218C163.738 212.301 161.965 218.756 164.139 225.65Z" fill="#CC6D3D"/>
<path d="M180.062 204.213C180.062 204.213 183.253 221.213 181.546 226.473L177.48 234.339L173.978 210.134L180.062 204.213Z" fill="#1D2538"/>
<path d="M207.939 189.722C207.939 189.722 205.446 197.276 192.29 204.829C185.167 208.918 184.091 207.671 180.663 208.539C172.234 210.706 177.079 191.362 190.406 183.348C203.888 175.275 207.939 189.722 207.939 189.722Z" fill="#1D2538"/>
<path d="M190.45 183.14C179.921 190.137 172.175 209.162 178.956 207.404C181.844 206.618 184.69 205.684 187.482 204.606C193.262 200.103 198.493 192.638 198.493 192.638C199.139 196.667 196.156 200.013 192.617 202.507C196.039 201.006 199.367 199.299 202.582 197.394C208.117 194.085 208.815 194.144 208.518 191.525C207.998 186.205 201.803 175.55 190.45 183.14Z" fill="#3E4C6F"/>
<path d="M201.773 214.898C202.292 217.621 203.806 218.534 205.164 218.237C206.522 217.94 207.219 216.545 206.707 213.785C206.195 211.025 204.659 209.073 203.302 209.378C201.944 209.682 201.254 212.168 201.773 214.898Z" fill="#34283A"/>
<path d="M198.649 208.161C198.649 208.161 199.48 205.029 202.359 204.184" stroke="#34283A" stroke-linecap="round" stroke-linejoin="round"/>
<path d="M283.69 532.527C289.997 533.803 322.719 531.881 325.487 519.319C327.535 510.007 331.423 499.619 332.291 491.717C334.773 487.646 337.016 483.434 339.006 479.103C342.182 472.157 340.787 471.067 336.669 473.078C332.551 475.088 324.938 482.308 324.938 482.308C317.997 478.098 310.136 475.64 302.032 475.148C289.322 474.465 292.275 478.643 287.526 484.571L284.12 489.914C284.12 489.914 275.016 485.261 269.021 484.72C263.151 484.222 261.133 486.686 258.633 493.223C256.073 499.953 255.954 500.643 257.371 504.516C258.788 508.389 263.901 515.72 269.555 521.13C269.577 521.189 277.517 531.288 283.69 532.527Z" fill="#1D2538"/>
<path d="M283.69 532.527C289.997 533.803 296.697 540.266 299.398 527.852C301.402 518.651 300.949 503.515 300.949 503.515C300.949 503.515 315.285 475.89 302.032 475.177C289.322 474.495 288.446 478.071 284.877 483.555L282.503 489.075C282.503 489.075 275.016 485.291 269.021 484.779C263.151 484.282 261.133 486.745 258.633 493.282C256.073 500.012 255.954 500.702 257.371 504.576C258.788 508.449 263.901 515.78 269.555 521.189C269.577 521.189 277.517 531.288 283.69 532.527Z" fill="#273252"/>
<path d="M261.185 487.309C258.959 490.277 263.344 493.512 265.637 490.492C267.93 487.472 274.296 486.167 270.586 484.913C268.012 484.052 263.448 484.289 261.185 487.309Z" fill="#121721"/>
<path d="M308.948 479.785C309.786 474.507 310.326 469.186 310.565 463.847C310.699 457.347 307.115 458.549 303.591 463.936C299.925 469.523 294.813 480.186 293.9 482.308C292.987 484.43 305.357 487.28 308.948 479.785Z" fill="#273252"/>
<path d="M306.202 465.272C307.508 458.727 306.202 460.731 302.7 466.103C299.05 471.675 299.287 472.781 298.367 474.881C297.447 476.981 305.045 471.089 306.202 465.272Z" fill="#1D2538"/>
<path d="M285.879 484.616C285.137 486.604 285.055 488.415 285.745 488.66C286.436 488.905 287.615 487.48 288.38 485.491C289.144 483.503 289.203 481.685 288.513 481.447C287.823 481.21 286.643 482.627 285.879 484.616Z" fill="#121721"/>
<path d="M277.331 526.398C277.331 526.398 273.206 537.699 270.653 540.318L267.997 534.456C267.997 534.456 271.632 528.602 277.331 526.398Z" fill="#992C29"/>
<path d="M275.61 531.236C275.61 531.236 277.346 540.637 276.426 543.969L271.603 542.433C271.989 538.426 273.366 534.578 275.61 531.236Z" fill="#992C29"/>
<path d="M402.455 576.201C402.455 576.201 406.328 602.958 405.015 609.272C403.702 615.587 406.031 623.697 408.784 627.971C410.268 630.605 404.941 640.028 404.941 640.028C404.941 640.028 396.705 641.987 388.839 639.093C382.005 636.586 383.645 632.831 387.986 631.102C392.327 629.373 382.213 612.018 382.213 612.018C382.213 612.018 374.637 582.976 374.14 578.628C373.643 574.28 398.211 561.71 402.455 576.201Z" fill="#1D2538"/>
<path d="M294.753 610.615C295.659 608.167 300.266 608.211 300.459 607.595C303.687 597.141 304.555 586.456 305 583.963C305.921 578.843 303.034 568.841 304.926 557.807C306.752 547.152 325.198 557.488 323.298 570.258C322.2 577.619 316.932 602.357 315.44 609.057C315.224 610.005 314.804 610.894 314.209 611.662L308.555 616.856C307.249 618.852 304.644 618.028 299.895 616.492C295.147 614.956 293.514 613.925 294.753 610.615Z" fill="#273252"/>
<path d="M261.682 622.554C262.283 616.195 270.171 616.559 270.171 616.559C270.638 615.735 272.189 614.177 272.345 613.339C273.569 606.891 273.198 591.902 273.495 589.023C274.103 583.043 273.495 564.893 274.645 551.07C275.795 537.246 292.965 549 293.047 562.882C293.106 572.773 284.588 611.855 283.794 615.565C283.794 615.565 274.712 628.112 270.327 627.526C265.941 626.94 261.319 626.472 261.682 622.554Z" fill="#273252"/>
<path d="M325.494 523.95C328.225 529.886 326.177 532.549 333.708 535.146C351.034 541.082 365.481 542.21 385.649 547.657C399.005 551.263 407.36 578.45 401.535 585.899C395.71 593.349 372.805 591.583 358.692 600.086C344.067 608.894 328.218 597.489 319.366 593.364C310.513 589.238 288.268 573.523 282.844 567.973C280.893 565.977 280.099 560.553 278.837 554.787C277.019 546.492 273.643 536.979 279.045 529.374C282.703 524.187 322.764 518.028 325.494 523.95Z" fill="#1D2538"/>
<path d="M292.386 533.677L300.548 548.762C300.548 548.762 309.875 562.756 309.044 562.727L299.613 578.568C299.613 578.568 288.29 573.523 282.866 567.973C280.915 565.977 276.7 561.391 275.446 555.663C273.636 547.382 274.793 540.763 276.76 529.084L292.386 533.677Z" fill="#273252"/>
<path d="M325.495 521.301C325.495 521.301 326.867 523.015 326.63 526.561C326.63 526.561 315.136 530.487 293.566 533.67C287.286 534.644 280.894 534.661 274.608 533.722L275.439 527.385C275.439 527.385 300.519 531.459 325.495 521.301Z" fill="#992C29"/>
<path d="M382.065 556.479C384.12 553.793 387.081 555.811 395.013 542.863C402.945 529.915 405.831 508.419 395.755 501.504C395.755 501.504 406.944 498.536 415.447 518.726C424.203 539.502 400.029 562.704 397.84 564.485C388.179 572.358 376.233 564.092 382.065 556.479Z" fill="#273252"/>
<path d="M380.93 557.199C383 554.498 389.24 565.361 401.023 545.571C407.271 535.094 411.411 508.813 395.695 501.504C395.695 501.504 413.081 498.736 417.636 520.291C423.572 548.265 399.999 563.231 397.795 565.034C388.075 572.966 375.045 564.871 380.93 557.199Z" fill="#1D2538"/>
<path d="M372.426 582.382C372.426 582.382 363.173 616.166 359.204 621.152C355.234 626.138 352.229 633.647 353.09 638.099C353.95 642.551 345.284 647.523 345.284 647.523C345.284 647.523 334.154 645.86 332.343 645.141C330.533 644.421 327.038 637.253 331.913 637.157C336.788 637.06 339.785 616.626 339.785 616.626C339.785 616.626 341.767 579.956 343.132 575.942C344.497 571.927 374.615 568.143 372.426 582.382Z" fill="#1D2538"/>
</svg>
